<svg width="40" height="40" viewBox="0 0 40 40" fill="none" xmlns="http://www.w3.org/2000/svg">
<path d="M37.7054 1.05885C37.5583 1.05885 34.2923 1.20596 30.2318 2.17694C24.7296 3.47158 20.6103 5.6195 18.0799 8.53243C17.5208 9.17975 16.9912 9.79764 16.5204 10.3861C15.52 10.6509 12.7542 11.4159 11.489 11.6513C10.7534 11.7984 10.1355 12.2104 9.69417 12.8283C8.78204 14.1523 7.19317 16.8593 7.13432 16.977L5.31006 20.0959L8.63492 18.6541C10.0767 18.0068 12.1069 17.5655 12.6954 17.9185C12.7248 17.948 12.7542 17.948 12.7836 18.1245C12.7836 19.0661 13.019 19.9782 13.4604 20.8903C12.5483 21.5965 12.0481 22.7146 12.1069 23.8621V27.9226H16.1673C17.3149 27.9814 18.4035 27.4518 19.1391 26.5691C20.0513 27.0104 20.9634 27.2164 21.9049 27.2458C22.0521 27.2752 22.0815 27.3047 22.0815 27.3341C22.4346 27.9226 21.9932 29.9528 21.3459 31.3945L19.9041 34.69L23.023 32.8657C23.1407 32.8069 25.8477 31.218 27.1718 30.3059C27.7897 29.8939 28.2016 29.2466 28.3487 28.511C28.6135 27.2458 29.3491 24.48 29.6139 23.4796C30.2024 23.0088 30.8203 22.4792 31.4676 21.9201C38.2939 15.8883 38.9118 2.82426 38.9412 2.26521L39 1L37.7054 1.05885ZM13.2544 15.6235C12.4894 15.3881 11.6067 15.4175 10.7534 15.5647C11.0771 15.035 11.4007 14.5348 11.6655 14.1523C11.7244 14.0346 11.8421 13.9758 11.9892 13.9464C12.5777 13.8287 13.4898 13.5933 14.4019 13.3873C13.8723 14.1818 13.5192 14.9173 13.2544 15.6235ZM17.256 25.0685C17.0206 25.3921 16.6087 25.5687 16.2262 25.5392H15.8437L18.2858 21.7142L14.4608 24.1858V23.7738C14.4314 23.3619 14.6079 22.9794 14.9316 22.744L19.6099 19.0366C19.8453 18.8307 20.169 18.6836 20.4632 18.6247L21.699 18.3305L21.4047 19.5663C21.3165 19.8899 21.1988 20.1842 20.9928 20.4195L17.256 25.0685ZM26.0242 28.0402C25.9948 28.1579 25.936 28.2756 25.8183 28.3639C25.4358 28.6287 24.9356 28.9524 24.4059 29.276C24.5531 28.4228 24.5825 27.54 24.3471 26.775C25.0533 26.5102 25.7889 26.1571 26.5833 25.6569C26.3773 26.5396 26.1419 27.4224 26.0242 28.0402ZM29.9081 20.1547C25.8477 23.7444 23.6115 24.8037 21.9932 24.8625C21.9638 24.8625 21.9638 24.8625 21.9344 24.8625C21.4342 24.8625 21.0222 24.7742 20.6103 24.6271L22.7876 21.8613C23.1996 21.3317 23.4938 20.7432 23.6704 20.0959L24.8473 15.1527L19.9041 16.3297C19.2568 16.4768 18.6389 16.771 18.1387 17.183L15.3729 19.3603C15.2258 18.9484 15.1375 18.5364 15.1375 18.0362C15.1375 18.0068 15.1375 18.0068 15.1375 17.9774C15.1669 16.3885 16.2556 14.1229 19.8453 10.0625C24.1706 5.14872 33.1153 3.82466 36.4696 3.501C36.1459 6.88471 34.8219 15.8295 29.9081 20.1547Z" fill="#10D078"/>
<path d="M11.6223 33.7359C10.1217 34.0302 8.59168 34.1184 7.06165 34.1478C6.17895 34.1478 5.29624 34.1184 4.38411 34.0302C4.73719 33.4417 5.06085 32.8532 5.35509 32.2353C5.91413 30.9701 6.32606 29.7049 6.64972 28.4103C6.94396 27.1745 7.29704 25.9681 7.73839 24.7617C8.15032 23.5554 8.6211 22.349 9.15072 21.1426C8.67995 21.6134 8.26802 22.1136 7.88551 22.6432C7.503 23.1729 7.1205 23.7319 6.76742 24.291C6.09067 25.4091 5.5022 26.6448 5.002 27.8512C4.53123 29.0282 4.03103 30.2051 3.44256 31.2643C2.85408 32.3236 2.17734 33.2946 1.35348 34.2361L0 35.825L2.08907 36.1192C3.73679 36.3546 5.41393 36.4723 7.09108 36.4135C7.94436 36.384 8.76822 36.3252 9.6215 36.1781C10.4454 36.0604 11.2986 35.8544 12.0931 35.619C13.7114 35.1483 15.2708 34.3832 16.6537 33.4123C17.3305 32.9121 17.9778 32.353 18.5074 31.7057C19.037 31.0584 19.5372 30.3816 19.8609 29.6166C18.7428 30.7936 17.3893 31.6468 16.0064 32.3236C14.5941 33.0003 13.1229 33.4417 11.6223 33.7359Z" fill="#10D078"/>
<path d="M29.0549 15.0645C30.1141 15.0645 31.1734 14.6525 31.9972 13.8581C33.6155 12.2398 33.6155 9.62111 31.9972 8.00281C31.2028 7.20838 30.173 6.79645 29.0549 6.79645C27.9368 6.79645 26.907 7.2378 26.1125 8.00281C24.4942 9.62111 24.4942 12.2398 26.1125 13.8581C26.907 14.6525 27.9662 15.0645 29.0549 15.0645ZM27.7602 9.65053C28.1133 9.29745 28.5547 9.12091 29.0255 9.12091C29.4962 9.12091 29.967 9.29745 30.2907 9.65053C30.9968 10.3567 30.9968 11.4748 30.2907 12.181C29.5845 12.8871 28.4664 12.8871 27.7602 12.181C27.0835 11.5042 27.0835 10.3567 27.7602 9.65053Z" fill="#10D078"/>
</svg>
