<?xml version="1.0" encoding="utf-8"?>
<!-- Generator: Adobe Illustrator 16.0.0, SVG Export Plug-In . SVG Version: 6.00 Build 0)  -->
<!DOCTYPE svg PUBLIC "-//W3C//DTD SVG 1.1//EN" "http://www.w3.org/Graphics/SVG/1.1/DTD/svg11.dtd">
<svg version="1.1" id="Layer_1" xmlns="http://www.w3.org/2000/svg" xmlns:xlink="http://www.w3.org/1999/xlink" x="0px" y="0px"
	 width="436px" height="457px" viewBox="0 0 436 457" enable-background="new 0 0 436 457" xml:space="preserve">
<g opacity="0.11">
	
		<radialGradient id="SVGID_1_" cx="-78.6326" cy="649.3809" r="1" gradientTransform="matrix(-7.0315 219.2963 224.9984 7.2143 -146436.9375 12796.0166)" gradientUnits="userSpaceOnUse">
		<stop  offset="0" style="stop-color:#31E7FA"/>
		<stop  offset="0.526" style="stop-color:#4477FF"/>
		<stop  offset="1" style="stop-color:#DB74FF"/>
	</radialGradient>
	<path fill="url(#SVGID_1_)" d="M186.64,247.354c19-13.805,44.729-13.805,63.729,0l58.289,42.351
		c19,13.804,26.95,38.272,19.693,60.608l-22.265,68.523c-7.258,22.336-28.071,37.459-51.558,37.459h-72.05
		c-23.485,0-44.3-15.123-51.557-37.459l-22.265-68.523c-7.258-22.336,0.692-46.805,19.692-60.609L186.64,247.354z"/>
</g>
<g opacity="0.66">
	
		<radialGradient id="SVGID_2_" cx="-79.8655" cy="649.7842" r="0.9999" gradientTransform="matrix(-235.9999 -8.5011 -8.7222 242.136 -12844.501 -157595.9531)" gradientUnits="userSpaceOnUse">
		<stop  offset="0" style="stop-color:#31E7FA;stop-opacity:0"/>
		<stop  offset="0.526" style="stop-color:#4477FF;stop-opacity:0.35"/>
		<stop  offset="1" style="stop-color:#DB74FF"/>
	</radialGradient>
	<path fill="url(#SVGID_2_)" d="M172.309,142.933c27.405-19.911,64.513-19.911,91.917,0l84.073,61.083
		c27.403,19.91,38.871,55.202,28.403,87.417l-32.112,98.834c-10.469,32.216-40.489,54.027-74.362,54.027H166.307
		c-33.873,0-63.894-21.812-74.361-54.027l-32.113-98.834c-10.468-32.216,0.999-67.508,28.403-87.417L172.309,142.933z"/>
</g>
<g>
	
		<radialGradient id="SVGID_3_" cx="-79.0525" cy="649.1973" r="1" gradientTransform="matrix(-13.6167 424.6737 435.7151 13.9708 -283709.5938 24502.1797)" gradientUnits="userSpaceOnUse">
		<stop  offset="0" style="stop-color:#31E7FA"/>
		<stop  offset="0.526" style="stop-color:#4477FF"/>
		<stop  offset="1" style="stop-color:#DB74FF"/>
	</radialGradient>
	<path fill="url(#SVGID_3_)" d="M156.162,20.674c36.794-26.732,86.615-26.732,123.409,0l112.881,82.012
		c36.794,26.733,52.19,74.117,38.137,117.371l-43.117,132.699c-14.054,43.254-54.361,72.539-99.841,72.539H148.103
		c-45.479,0-85.787-29.285-99.841-72.539L5.145,220.057c-14.054-43.254,1.343-90.638,38.137-117.371L156.162,20.674z"/>
	<g id="XMLID_1865_">
		<path id="XMLID_1869_" fill="#FBDBED" d="M231.35,212.87c13.008,4.831,26.459,9.825,36.418,18.166
			c9.308,7.795,14.571,17.641,15.938,29.902c4.335-2.271,9.083-4.501,13.984-6.382c-4.874-36.871-65.177-58.347-54.693-105.846
			c0,0-31.022,19.136-26.716,58.31C221.132,209.073,226.206,210.96,231.35,212.87z"/>
		<path id="XMLID_1868_" fill="#FFFFFF" d="M345.074,275.223c-2.617-1.17-2.497-4.056-3.743-7.086
			c-9.078-22.067-38.704-11.705-61.508,1.589c-0.554,0.325-1.103,0.663-1.644,1.014c3.069-63.855-88.35-39.571-102.858-97.127
			c0,0-31.896,51.562,32.471,92.698c9.81,6.269,16.882,17.935,15.459,29.812c-6.04,50.364-108.724,13.459-113.375-70.113
			c-3.793-68.169,55.38-120.369,125.651-120.369c46.31,0,86.834,24.741,109.093,61.723c-21.261-48.529-69.708-82.436-126.083-82.436
			c-75.989,0-137.591,61.602-137.591,137.593c0,75.99,61.602,137.592,137.591,137.592c1.673,0,3.334-0.035,4.99-0.099
			c21.545,0.854,44.523-3.728,64.464-19.713c23.522-18.854,18.846-42.174,40.389-54.783c6.116-3.581,14.09-6.68,27.208-3.561
			C355.588,281.957,353.318,278.909,345.074,275.223z"/>
		<path id="XMLID_1866_" fill="#00A8C9" d="M170.314,250.287"/>
	</g>
</g>
</svg>
