<?xml version="1.0" encoding="utf-8"?>
<!-- Generator: Adobe Illustrator 16.0.0, SVG Export Plug-In . SVG Version: 6.00 Build 0)  -->
<!DOCTYPE svg PUBLIC "-//W3C//DTD SVG 1.1//EN" "http://www.w3.org/Graphics/SVG/1.1/DTD/svg11.dtd">
<svg version="1.1"
	 id="图层_1" xmlns:dc="http://purl.org/dc/elements/1.1/" xmlns:cc="http://creativecommons.org/ns#" xmlns:rdf="http://www.w3.org/1999/02/22-rdf-syntax-ns#" xmlns:svg="http://www.w3.org/2000/svg"
	 xmlns="http://www.w3.org/2000/svg" xmlns:xlink="http://www.w3.org/1999/xlink" x="0px" y="0px" width="170.079px"
	 height="170.079px" viewBox="67.961 7.46 170.079 170.079" enable-background="new 67.961 7.46 170.079 170.079"
	 xml:space="preserve">
<path id="path2534" fill="#FFFCDB" d="M138.355,14.27l19.542,8.107c0,4.969-0.403,20.125,2.702,24.595
	c32.501,41.856,27.033,125.757-6.583,127.909c-51.189,0-70.711-34.774-70.711-66.734c0-29.146,34.94-48.522,55.807-65.744
	C144.41,37.766,143.49,27.518,138.355,14.27L138.355,14.27z"/>
<path id="path2536" fill="#7D4698" d="M157.902,22.086l7.043,3.591c-0.661,4.636,0.331,14.905,4.968,17.553
	c20.534,12.751,39.909,26.661,47.528,40.573c27.158,49.018-19.045,94.391-58.954,90.085c21.692-16.063,27.986-49.019,19.871-84.955
	c-3.311-14.076-8.445-26.827-17.554-41.234C156.857,40.628,158.236,31.857,157.902,22.086L157.902,22.086z"/>
<g id="layer4">
	<path id="path2538" d="M154.512,20.875l14.573,1.987c-4.307,14.241,8.446,24.177,12.586,26.497
		c9.273,5.133,18.215,10.433,25.336,16.891c13.416,12.254,21.032,29.478,21.032,47.692c0,18.05-8.279,35.438-22.191,47.029
		c-13.082,10.931-31.131,15.567-48.685,15.567c-10.931,0-20.701-0.495-31.299-3.974c-24.176-8.115-42.229-28.814-43.718-53.656
		c-1.325-19.375,2.98-34.114,18.051-49.514c7.782-8.114,23.516-17.388,34.281-24.84c5.299-3.644,10.93-13.912,0.165-33.286
		l2.152-1.656l15.954,10.685l-13.469-5.551c1.159,1.657,4.306,9.109,4.969,11.262c1.49,6.126,0.828,12.09-0.497,14.738
		c-6.789,12.255-18.382,15.567-26.827,22.521c-14.904,12.255-31.133,22.025-29.312,55.642c0.828,16.56,13.745,36.764,33.12,46.203
		c10.93,5.301,23.516,7.453,36.266,8.113c11.427,0.498,33.286-6.293,45.209-16.228c12.753-10.597,19.874-26.661,19.874-43.056
		c0-16.56-6.625-32.292-19.044-43.387c-7.122-6.46-18.879-14.243-26.165-18.384c-7.288-4.139-16.396-15.731-13.415-26.826
		L154.512,20.875z"/>
	<path id="path2540" d="M150.042,45.384c-1.491,7.619-3.148,21.362-9.771,26.498c-2.814,1.986-5.631,3.974-8.611,5.961
		c-11.923,8.116-23.847,15.731-29.311,35.273c-1.16,4.141-0.166,8.61,0.829,12.75c2.98,11.923,11.426,24.842,18.049,32.459
		c0,0.331,1.326,1.159,1.326,1.49c5.466,6.46,7.122,8.28,27.82,12.917l-0.497,2.319c-12.42-3.313-22.687-6.292-29.145-13.747
		c0-0.164-1.159-1.323-1.159-1.323c-6.956-7.95-15.402-21.197-18.548-33.617c-1.158-4.969-2.151-8.777-0.828-13.912
		c5.63-20.202,17.885-28.15,30.306-36.596c2.816-1.821,6.126-3.479,8.777-5.632C144.41,66.415,147.225,54.823,150.042,45.384z"/>
	<path id="path2542" d="M155.337,76.847c0.166,8.611-0.675,12.93,1.479,19.059c1.322,3.643,5.798,8.611,7.123,13.414
		c1.821,6.459,3.805,13.58,3.638,17.886c0,4.969-0.312,14.237-2.463,24.175c-1.641,8.212-5.425,15.255-11.785,19.25
		c-6.514-1.342-14.165-3.634-18.68-7.504c-8.777-7.617-16.551-20.355-17.545-31.45c-0.828-9.108,7.606-22.539,19.363-29.328
		c9.936-5.797,12.247-12.403,14.399-23c-2.981,9.274-5.78,17.046-15.385,22.015c-13.911,7.286-21.047,19.518-20.386,31.109
		c0.992,14.903,6.962,25.002,18.719,33.118c4.967,3.476,14.249,7.152,20.045,8.146v-0.757c4.396-0.824,10.086-8.042,12.921-17.81
		c2.485-8.776,3.464-20.009,3.297-27.13c-0.166-4.141-1.992-13.106-5.305-21.221c-1.822-4.471-4.62-8.94-6.442-12.087
		C156.345,91.582,156.331,84.795,155.337,76.847z"/>
	<path id="path2544" d="M154.352,109.32c0.165,5.796,2.493,13.223,3.486,20.842c0.829,5.63,0.47,11.287,0.303,16.255
		c-0.162,5.751-2.08,16.057-4.698,21.068c-2.47-1.132-3.435-2.426-5.04-4.51c-1.986-2.815-3.335-5.632-4.66-8.942
		c-0.994-2.483-2.154-5.329-2.652-8.64c-0.662-4.968-0.478-12.739,5.153-20.688c4.306-6.293,5.291-6.771,6.782-14.059
		c-1.988,6.458-3.471,7.117-8.108,12.581c-5.134,5.962-5.987,14.744-5.987,21.864c0,2.98,1.189,6.289,2.35,9.434
		c1.324,3.313,2.46,6.61,4.281,9.094c2.738,4.027,6.241,6.317,7.957,6.745c0.011,0.003,0.027-0.001,0.039,0
		c0.036,0.01,0.078,0.031,0.113,0.039v-0.189c3.212-3.584,5.146-7.142,5.798-10.724c0.827-4.306,1.019-8.621,1.516-13.755
		c0.495-4.306,0.136-10.104-1.023-16.065C158.305,122.216,155.511,114.619,154.352,109.32L154.352,109.32z"/>
	<path id="path2550" d="M154.844,38.429c0.165,8.611,0.827,24.676,3.146,30.968c0.661,2.151,6.788,11.592,11.094,23.018
		c2.98,7.95,3.644,15.235,4.14,17.388c1.987,9.439-0.496,25.338-3.81,40.407c-1.655,8.114-7.286,18.217-13.745,22.189l-1.323,2.32
		c3.645-0.167,12.585-8.943,15.731-19.873c5.3-18.547,7.452-27.159,4.97-47.692c-0.332-1.989-1.159-8.777-4.307-16.065
		c-4.637-11.096-11.26-21.693-12.087-23.846C157.162,63.765,155.173,48.696,154.844,38.429L154.844,38.429z"/>
	<path id="path2552" d="M157.95,26.652c-0.491,8.849-0.623,12.107,1.032,18.565c1.822,7.122,11.097,17.388,14.905,29.146
		c7.286,22.521,5.465,52,0.164,75.016c-1.985,8.113-11.427,19.874-20.864,23.681l6.954,1.656c3.81-0.166,13.578-9.272,17.388-19.706
		c6.126-16.396,7.287-35.935,4.802-56.471c-0.166-1.987-3.479-19.706-6.624-27.158c-4.472-11.095-12.42-21.032-13.249-23.183
		C160.97,44.556,157.698,36.991,157.95,26.652L157.95,26.652z"/>
	<rect id="rect2556" x="152.686" y="20.424" width="0.667" height="152.804"/>
</g>
</svg>
