<?xml version="1.0" encoding="utf-8"?>
<!-- Generator: Adobe Illustrator 16.0.0, SVG Export Plug-In . SVG Version: 6.00 Build 0)  -->
<!DOCTYPE svg PUBLIC "-//W3C//DTD SVG 1.1//EN" "http://www.w3.org/Graphics/SVG/1.1/DTD/svg11.dtd">
<svg version="1.1"
	 id="图层_1" xmlns:dc="http://purl.org/dc/elements/1.1/" xmlns:cc="http://creativecommons.org/ns#" xmlns:rdf="http://www.w3.org/1999/02/22-rdf-syntax-ns#" xmlns:svg="http://www.w3.org/2000/svg"
	 xmlns="http://www.w3.org/2000/svg" xmlns:xlink="http://www.w3.org/1999/xlink" x="0px" y="0px" width="306px" height="185px"
	 viewBox="0 0 306 185" enable-background="new 0 0 306 185" xml:space="preserve">
<g id="layer3" transform="translate(-92,-63.999774)" opacity="0.1">
	<g id="layer5">
		<path id="path2554" fill="#ABCD03" d="M264.513,77.978l-4.917,19.529c6.965-13.793,18.027-24.172,30.729-33.323
			c-9.287,10.789-17.755,21.579-22.944,32.368c8.741-12.292,20.486-19.12,33.732-23.627c-17.617,15.706-31.602,32.56-42.255,49.495
			l-8.467-3.687C251.893,105.211,257.001,91.363,264.513,77.978L264.513,77.978z"/>
		<path id="path2534" fill="#FFFCDB" d="M241.901,115.141l16.116,6.686c0,4.098-0.333,16.597,2.229,20.284
			c26.803,34.519,22.294,103.713-5.43,105.488c-42.216,0-58.316-28.679-58.316-55.037c0-24.037,28.815-40.017,46.024-54.22
			C246.895,134.519,246.136,126.068,241.901,115.141L241.901,115.141z"/>
		<path id="path2536" fill="#7D4698" d="M258.022,121.587l5.809,2.962c-0.546,3.823,0.272,12.292,4.096,14.476
			c16.936,10.516,32.914,21.988,39.197,33.46c22.397,40.426-15.706,77.846-48.62,74.295c17.891-13.248,23.081-40.426,16.389-70.063
			c-2.73-11.609-6.966-22.125-14.478-34.007C257.159,136.879,258.296,129.646,258.022,121.587L258.022,121.587z"/>
	</g>
	<g id="layer4">
		<path id="path2538" d="M255.226,120.589l12.019,1.639c-3.552,11.745,6.966,19.939,10.38,21.852
			c7.647,4.234,15.022,8.604,20.896,13.93c11.063,10.106,17.345,24.311,17.345,39.333c0,14.886-6.828,29.226-18.301,38.786
			c-10.789,9.014-25.675,12.838-40.151,12.838c-9.015,0-17.072-0.408-25.813-3.277c-19.938-6.692-34.826-23.764-36.055-44.25
			c-1.093-15.979,2.458-28.135,14.887-40.836c6.418-6.691,19.394-14.339,28.271-20.485c4.37-3.005,9.014-11.473,0.136-27.451
			l1.775-1.366l13.157,8.813l-11.107-4.578c0.956,1.366,3.551,7.512,4.098,9.287c1.229,5.053,0.683,9.971-0.41,12.155
			c-5.599,10.107-15.159,12.838-22.124,18.574c-12.292,10.106-25.676,18.164-24.174,45.889
			c0.683,13.656,11.336,30.318,27.314,38.104c9.014,4.371,19.394,6.146,29.909,6.691c9.424,0.41,27.451-5.189,37.284-13.383
			c10.517-8.74,16.39-21.988,16.39-35.509c0-13.657-5.464-26.632-15.706-35.782c-5.873-5.327-15.569-11.746-21.578-15.161
			c-6.01-3.414-13.521-12.974-11.063-22.124L255.226,120.589z"/>
		<path id="path2540" d="M251.539,140.802c-1.229,6.283-2.596,17.618-8.059,21.853c-2.321,1.638-4.644,3.277-7.102,4.916
			c-9.833,6.693-19.667,12.974-24.173,29.09c-0.956,3.415-0.137,7.102,0.684,10.516c2.458,9.833,9.423,20.486,14.886,26.77
			c0,0.272,1.094,0.955,1.094,1.229c4.507,5.327,5.873,6.829,22.943,10.652l-0.41,1.913c-10.242-2.731-18.71-5.189-24.036-11.337
			c0-0.135-0.956-1.092-0.956-1.092c-5.736-6.557-12.702-17.481-15.297-27.725c-0.955-4.098-1.774-7.238-0.683-11.473
			c4.644-16.661,14.75-23.217,24.993-30.182c2.322-1.502,5.053-2.869,7.238-4.645C246.895,158.146,249.216,148.586,251.539,140.802z
			"/>
		<path id="path2542" d="M255.906,166.75c0.137,7.102-0.557,10.664,1.219,15.719c1.092,3.004,4.782,7.102,5.875,11.063
			c1.502,5.326,3.138,11.199,3,14.75c0,4.098-0.257,11.742-2.031,19.938c-1.354,6.771-4.474,12.581-9.719,15.875
			c-5.373-1.106-11.683-2.996-15.406-6.188c-7.238-6.282-13.649-16.787-14.469-25.938c-0.683-7.512,6.272-18.589,15.969-24.188
			c8.193-4.78,10.1-10.229,11.875-18.969c-2.458,7.648-4.767,14.059-12.688,18.156c-11.473,6.009-17.358,16.096-16.813,25.656
			c0.818,12.291,5.741,20.619,15.438,27.313c4.097,2.867,11.751,5.898,16.531,6.719v-0.625c3.625-0.68,8.318-6.633,10.656-14.688
			c2.049-7.238,2.856-16.502,2.719-22.375c-0.138-3.414-1.644-10.809-4.375-17.5c-1.502-3.688-3.81-7.374-5.313-9.969
			C256.738,178.902,256.726,173.304,255.906,166.75z"/>
		<path id="path2544" d="M255.094,193.531c0.136,4.779,2.056,10.904,2.875,17.188c0.684,4.644,0.387,9.309,0.25,13.406
			c-0.135,4.743-1.716,13.242-3.875,17.375c-2.037-0.934-2.833-2-4.156-3.719c-1.639-2.322-2.751-4.645-3.844-7.375
			c-0.819-2.049-1.776-4.395-2.188-7.125c-0.546-4.098-0.394-10.507,4.25-17.063c3.551-5.19,4.364-5.585,5.594-11.594
			c-1.641,5.326-2.862,5.869-6.688,10.375c-4.233,4.917-4.938,12.159-4.938,18.031c0,2.459,0.98,5.188,1.938,7.781
			c1.092,2.732,2.029,5.451,3.531,7.5c2.258,3.32,5.147,5.209,6.563,5.563c0.009,0.002,0.021-0.002,0.031,0
			c0.03,0.007,0.064,0.025,0.094,0.031v-0.156c2.649-2.955,4.244-5.89,4.781-8.844c0.683-3.551,0.84-7.109,1.25-11.344
			c0.408-3.551,0.112-8.334-0.844-13.25C258.354,204.166,256.05,197.9,255.094,193.531L255.094,193.531z"/>
		<path id="path2550" d="M255.499,135.066c0.137,7.101,0.683,20.35,2.595,25.54c0.546,1.774,5.599,9.56,9.149,18.982
			c2.459,6.557,3.005,12.564,3.415,14.34c1.639,7.785-0.41,20.896-3.143,33.324c-1.365,6.691-6.009,15.023-11.335,18.301
			l-1.092,1.912c3.005-0.137,10.379-7.375,12.974-16.389c4.371-15.296,6.146-22.398,4.099-39.333
			c-0.273-1.64-0.956-7.238-3.552-13.248c-3.823-9.151-9.286-17.892-9.969-19.667C257.411,155.961,255.772,143.533,255.499,135.066
			L255.499,135.066z"/>
		<path id="path2552" d="M258.062,125.353c-0.405,7.298-0.514,9.985,0.852,15.312c1.502,5.873,9.15,14.34,12.292,24.037
			c6.009,18.573,4.507,42.884,0.136,61.866c-1.638,6.691-9.424,16.39-17.208,19.529l5.736,1.366
			c3.141-0.137,11.197-7.647,14.34-16.252c5.052-13.521,6.009-29.636,3.96-46.571c-0.138-1.639-2.869-16.252-5.463-22.397
			c-3.688-9.15-10.244-17.345-10.927-19.119C260.552,140.119,257.854,133.88,258.062,125.353L258.062,125.353z"/>
		<rect id="rect2556" x="253.72" y="120.217" width="0.55" height="126.019"/>
	</g>
</g>
<path id="path2528" opacity="0.1" fill="#7D4698" d="M7.943,18.075h109.668c4.097,0,7.647,3.414,7.647,7.648V58.09
	c0,4.234-3.551,7.649-7.647,7.649H95.077c-5.055,0-7.239,2.867-7.239,6.145v105.98c0,3.551-2.868,6.282-6.282,6.282H44.272
	c-3.415,0-6.146-2.731-6.146-6.282V70.929c0-3.278-3.005-5.189-5.326-5.189H7.943c-4.233,0-7.647-3.415-7.647-7.649V25.723
	C0.294,21.489,3.708,18.075,7.943,18.075z"/>
<path id="path2532" opacity="0.1" fill="#7D4698" d="M289.307,60.959h9.695c3.552,0,6.42,2.868,6.42,6.282v34.69
	c0,4.506,0.272,6.281-5.19,6.281c-10.789,0-15.705,5.736-15.705,12.018v58.59c0,2.731-2.595,5.053-5.735,5.053h-34.827
	c-3.142,0-5.736-2.321-5.736-5.053v-66.784c-0.038-1.175-0.015-2.908,0.137-3.823c1.912-24.72,21.308-44.498,45.889-46.981
	C285.077,61.149,287.992,60.959,289.307,60.959L289.307,60.959z"/>
</svg>
