<?xml version="1.0" encoding="utf-8"?>
<!-- Generator: Adobe Illustrator 16.0.0, SVG Export Plug-In . SVG Version: 6.00 Build 0)  -->
<!DOCTYPE svg PUBLIC "-//W3C//DTD SVG 1.1//EN" "http://www.w3.org/Graphics/SVG/1.1/DTD/svg11.dtd">
<svg version="1.1" xmlns="http://www.w3.org/2000/svg" xmlns:xlink="http://www.w3.org/1999/xlink" x="0px" y="0px"
	 width="595.279px" height="841.89px" viewBox="0 0 595.279 841.89" enable-background="new 0 0 595.279 841.89"
	 xml:space="preserve">
<g id="Layer_2">
	<circle fill="#FFFFFF" cx="301.64" cy="421.445" r="186"/>
</g>
<g id="Layer_1" xmlns:vectornator="http://vectornator.io">
	<g id="Layer_1_1_" vectornator:layerName="Layer 1">
		<path fill="#FF7F00" d="M297.268,145.256c-11.225,0.06-22.501,3.054-31.065,7.999L81.479,259.847
			c-8.494,4.905-16.856,12.732-22.509,22.323c-5.885,9.987-8.93,21.783-8.93,31.996v213.37c0,10.668,3.509,22.627,9.859,32.928
			c5.569,9.031,13.479,16.9,21.579,21.578l184.724,106.594c8.751,5.051,20.525,8.045,31.996,7.998
			c11.255-0.047,22.292-3.041,30.879-7.998l184.724-106.594c8.648-4.994,17.575-13.068,23.254-22.881
			c5.705-9.857,8.184-21.59,8.185-31.625v-213.37c-0.001-9.704-2.25-20.711-7.627-30.322c-5.718-10.219-14.876-18.839-23.812-23.998
			L329.077,153.255C320.303,148.189,308.768,145.195,297.268,145.256z M212.813,289.611h106.592
			c55.103,0,89.665,31.663,89.665,82.038c-0.001,34.552-18.204,63.507-49.483,74.782l57.296,105.662h-53.575l-51.529-98.408h-17.114
			h-34.786v98.408h-47.064v-98.408h-38.321v-39.251h38.321h28.275h49.111h4.464h19.347c29.825,0,46.879-15.892,46.879-43.716
			c0-27.278-18.171-44.088-47.995-44.088h-53.017v18.975v7.441v4.092v40.368v4.093l-47.064-7.069v-4.092v-33.299v-4.092v-7.441
			V289.611z"/>
	</g>
</g>
</svg>
