<?xml version="1.0" encoding="utf-8"?>
<!-- Generator: Adobe Illustrator 16.0.0, SVG Export Plug-In . SVG Version: 6.00 Build 0)  -->
<!DOCTYPE svg PUBLIC "-//W3C//DTD SVG 1.1//EN" "http://www.w3.org/Graphics/SVG/1.1/DTD/svg11.dtd">
<svg version="1.1" id="Layer_1" xmlns="http://www.w3.org/2000/svg" xmlns:xlink="http://www.w3.org/1999/xlink" x="0px" y="0px"
	 width="3021.302px" height="1020.104px" viewBox="0 0 3021.302 1020.104" enable-background="new 0 0 3021.302 1020.104"
	 xml:space="preserve">
<polygon fill-rule="evenodd" clip-rule="evenodd" points="1046.354,543.629 988.318,462.67 1051.727,462.67 1082.535,509.957 
	1112.271,462.67 1172.094,462.67 1115.495,543.629 1182.486,636.774 1119.079,636.774 1081.103,578.737 1040.262,636.774 
	977.57,636.774 "/>
<g>
	<defs>
		<rect id="SVGID_1_" x="-372.209" y="-990.095" width="4000" height="3000"/>
	</defs>
	<clipPath id="SVGID_2_">
		<use xlink:href="#SVGID_1_"  overflow="visible"/>
	</clipPath>
</g>
<path fill-rule="evenodd" clip-rule="evenodd" d="M1212.41,383.088h98.16c12.896,0,25.136,1.256,36.72,3.764
	c11.584,2.508,21.732,6.684,30.448,12.536c8.72,5.851,15.644,13.732,20.78,23.643c5.136,9.913,7.7,22.273,7.7,37.081
	c0,17.912-4.656,33.136-13.968,45.676c-9.316,12.535-22.928,20.476-40.84,23.819l64.484,107.116h-66.992l-53.02-101.384h-27.584
	v101.384h-55.888V383.088z M1268.298,488.052h32.956c5.016,0,10.332-0.176,15.944-0.536c5.612-0.36,10.688-1.432,15.224-3.224
	c4.54-1.792,8.3-4.596,11.284-8.42c2.988-3.82,4.479-9.192,4.479-16.12c0-6.448-1.316-11.584-3.939-15.404
	c-2.628-3.82-5.972-6.748-10.032-8.776c-4.06-2.032-8.716-3.404-13.972-4.121c-5.256-0.715-10.388-1.075-15.404-1.075h-36.54
	V488.052z"/>
<polygon fill-rule="evenodd" clip-rule="evenodd" points="1444.55,383.087 1500.438,383.087 1500.438,477.664 1608.982,477.664 
	1608.982,383.087 1664.871,383.087 1664.871,636.724 1608.982,636.724 1608.982,527.1 1500.438,527.1 1500.438,636.724 
	1444.55,636.724 "/>
<path fill-rule="evenodd" clip-rule="evenodd" d="M1702.842,509.907c0-20.304,3.404-38.692,10.212-55.172
	c6.805-16.475,16.301-30.508,28.48-42.092s26.628-20.48,43.344-26.688c16.721-6.212,34.988-9.316,54.813-9.316
	s38.092,3.104,54.812,9.316c16.716,6.208,31.164,15.104,43.344,26.688c12.181,11.584,21.677,25.617,28.48,42.092
	c6.808,16.48,10.212,34.868,10.212,55.172c0,20.3-3.404,38.688-10.212,55.168c-6.804,16.48-16.3,30.509-28.48,42.093
	c-12.18,11.584-26.628,20.479-43.344,26.688c-16.72,6.212-34.987,9.316-54.812,9.316s-38.092-3.104-54.813-9.316
	c-16.716-6.208-31.164-15.104-43.344-26.688s-21.676-25.612-28.48-42.093C1706.247,548.596,1702.842,530.207,1702.842,509.907
	 M1760.878,509.907c0,11.94,1.852,22.864,5.552,32.776s9.017,18.512,15.94,25.796c6.928,7.284,15.229,12.956,24.9,17.016
	c9.672,4.061,20.479,6.089,32.42,6.089c11.939,0,22.748-2.028,32.42-6.089c9.672-4.06,17.972-9.731,24.899-17.016
	c6.925-7.284,12.24-15.884,15.94-25.796c3.699-9.912,5.552-20.836,5.552-32.776c0-11.704-1.853-22.572-5.552-32.6
	c-3.7-10.032-9.016-18.688-15.94-25.976c-6.928-7.284-15.228-12.956-24.899-17.016c-9.672-4.06-20.48-6.088-32.42-6.088
	c-11.94,0-22.748,2.028-32.42,6.088c-9.672,4.06-17.973,9.732-24.9,17.016c-6.924,7.288-12.24,15.944-15.94,25.976
	C1762.73,487.335,1760.878,498.203,1760.878,509.907"/>
<path fill-rule="evenodd" clip-rule="evenodd" d="M2014.509,383.088h83.828c20.301,0,39.588,2.272,57.857,6.808
	c18.271,4.536,34.212,11.88,47.828,22.032c13.611,10.147,24.42,23.344,32.42,39.584c8,16.24,12,35.944,12,59.111
	c0,20.536-3.881,38.629-11.645,54.272c-7.76,15.644-18.209,28.78-31.344,39.408c-13.136,10.628-28.3,18.688-45.496,24.18
	c-17.197,5.492-35.229,8.24-54.096,8.24h-91.354V383.088z M2070.398,585.136h29.017c12.896,0,24.896-1.312,36.005-3.94
	c11.104-2.628,20.715-6.984,28.834-13.076c8.121-6.087,14.514-14.092,19.168-24c4.657-9.912,6.985-22.031,6.985-36.363
	c0-12.42-2.328-23.224-6.985-32.42c-4.654-9.196-10.927-16.776-18.807-22.748c-7.88-5.973-17.137-10.448-27.764-13.436
	c-10.629-2.984-21.793-4.476-33.496-4.476h-32.957V585.136z"/>
<rect x="2285.699" y="383.087" fill-rule="evenodd" clip-rule="evenodd" width="55.888" height="253.636"/>
<path fill-rule="evenodd" clip-rule="evenodd" d="M2606.323,538.924c0,15.044-2.269,28.896-6.804,41.556
	c-4.541,12.656-11.284,23.644-20.24,32.956c-8.956,9.316-20.124,16.6-33.496,21.855c-13.376,5.252-28.78,7.881-46.217,7.881
	c-17.672,0-33.195-2.629-46.567-7.881c-13.376-5.256-24.54-12.539-33.496-21.855c-8.956-9.313-15.704-20.3-20.241-32.956
	c-4.539-12.659-6.807-26.512-6.807-41.556V383.088h55.884v153.688c0,7.88,1.255,15.164,3.765,21.852
	c2.508,6.685,6.027,12.477,10.567,17.373c4.536,4.896,9.972,8.72,16.3,11.464c6.328,2.747,13.196,4.12,20.596,4.12
	c7.404,0,14.213-1.373,20.421-4.12c6.212-2.744,11.584-6.568,16.124-11.464c4.535-4.896,8.06-10.688,10.566-17.373
	c2.51-6.688,3.762-13.972,3.762-21.852V383.088h55.884V538.924z"/>
<polygon fill-rule="evenodd" clip-rule="evenodd" points="2657.911,383.087 2742.455,383.087 2800.846,548.596 2801.566,548.596 
	2860.314,383.087 2944.502,383.087 2944.502,636.724 2888.619,636.724 2888.619,442.199 2887.903,442.199 2821.267,636.724 
	2778.638,636.724 2714.51,442.199 2713.794,442.199 2713.794,636.724 2657.911,636.724 "/>
<path fill-rule="evenodd" clip-rule="evenodd" fill="#FF7F00" d="M477.686,77.692c-17.735,0.096-35.592,4.564-49.124,12.376
	l-291.876,168.5c-13.424,7.748-26.696,20.096-35.628,35.252c-9.296,15.776-13.996,34.612-14,50.748v337
	c0,16.855,5.468,35.6,15.504,51.876c8.796,14.269,21.324,26.736,34.124,34.124l291.876,168.5c13.828,7.984,32.5,12.576,50.624,12.5
	c17.784-0.076,35.056-4.664,48.624-12.5l291.876-168.5c13.664-7.892,27.776-20.496,36.748-36c9.016-15.576,12.876-34.145,12.876-50
	v-337c0-15.332-3.38-32.94-11.876-48.124c-9.032-16.148-23.632-29.724-37.748-37.876L527.81,90.068
	C513.946,82.064,495.854,77.597,477.686,77.692"/>
<path fill-rule="evenodd" clip-rule="evenodd" fill="#FFFFFF" d="M344.186,305.692h168.5c87.063,0,141.5,50.032,141.5,129.624
	c0,54.596-28.704,100.313-78.128,118.128l90.504,167H581.81l-81.248-155.5h-27h-55.128v155.5h-74.248v-155.5h-60.5v-62h60.5h44.5
	h77.748h7.128h30.496c47.128,0,74-25.288,74-69.252c0.004-43.1-28.748-69.5-75.872-69.5h-83.752v30v11.5v6.5v63.876v6.5
	l-74.248-11.124v-6.5v-52.752v-6.5v-11.5V305.692z"/>
</svg>
