<?xml version="1.0" encoding="utf-8"?>
<!-- Generator: Adobe Illustrator 16.0.0, SVG Export Plug-In . SVG Version: 6.00 Build 0)  -->
<!DOCTYPE svg PUBLIC "-//W3C//DTD SVG 1.1//EN" "http://www.w3.org/Graphics/SVG/1.1/DTD/svg11.dtd">
<svg version="1.1" id="Layer_1" xmlns="http://www.w3.org/2000/svg" xmlns:xlink="http://www.w3.org/1999/xlink" x="0px" y="0px"
	 width="695px" height="443px" viewBox="0 0 695 443" enable-background="new 0 0 695 443" xml:space="preserve">
<g id="layer3" transform="translate(-92,-63.999774)" opacity="0.1">
	<g id="layer5">
		<path id="path2554" fill="#ABCD03" d="M224.977,85.575l-2.635,10.464c3.732-7.391,9.66-12.953,16.467-17.856
			c-4.977,5.781-9.514,11.563-12.295,17.344c4.684-6.586,10.978-10.245,18.076-12.661c-9.44,8.417-16.934,17.447-22.643,26.522
			l-4.537-1.976C218.215,100.168,220.952,92.748,224.977,85.575L224.977,85.575z"/>
		<path id="path2534" fill="#FFFCDB" d="M212.861,105.49l8.636,3.583c0,2.196-0.178,8.894,1.195,10.87
			c14.362,18.497,11.946,55.575-2.91,56.526c-22.622,0-31.249-15.368-31.249-29.492c0-12.88,15.441-21.443,24.663-29.054
			C215.537,115.873,215.13,111.344,212.861,105.49L212.861,105.49z"/>
		<path id="path2536" fill="#7D4698" d="M221.499,108.944l3.112,1.587c-0.292,2.049,0.146,6.586,2.195,7.757
			c9.075,5.635,17.637,11.782,21.004,17.93c12.001,21.662-8.416,41.713-26.053,39.811c9.587-7.099,12.368-21.662,8.782-37.543
			c-1.463-6.221-3.732-11.855-7.758-18.223C221.037,117.138,221.646,113.262,221.499,108.944L221.499,108.944z"/>
	</g>
	<g id="layer4">
		<path id="path2538" d="M220.001,108.408l6.44,0.878c-1.903,6.293,3.732,10.684,5.562,11.709c4.098,2.269,8.05,4.61,11.197,7.464
			c5.929,5.416,9.294,13.027,9.294,21.077c0,7.977-3.659,15.661-9.807,20.784c-5.781,4.83-13.758,6.879-21.515,6.879
			c-4.831,0-9.148-0.219-13.832-1.756c-10.684-3.586-18.662-12.734-19.32-23.712c-0.585-8.563,1.317-15.076,7.977-21.882
			c3.439-3.585,10.392-7.684,15.149-10.977c2.342-1.61,4.83-6.148,0.073-14.71l0.951-0.732l7.05,4.722l-5.952-2.453
			c0.512,0.732,1.903,4.025,2.196,4.977c0.659,2.708,0.366,5.343-0.22,6.513c-3,5.416-8.123,6.879-11.855,9.953
			c-6.586,5.416-13.758,9.733-12.954,24.589c0.366,7.318,6.075,16.247,14.637,20.418c4.83,2.343,10.392,3.294,16.027,3.586
			c5.05,0.22,14.71-2.781,19.979-7.171c5.635-4.684,8.782-11.783,8.782-19.027c0-7.318-2.928-14.271-8.416-19.174
			c-3.147-2.854-8.343-6.294-11.563-8.124s-7.245-6.952-5.928-11.855L220.001,108.408z"/>
		<path id="path2540" d="M218.026,119.24c-0.659,3.367-1.391,9.441-4.318,11.71c-1.244,0.877-2.488,1.756-3.806,2.634
			c-5.269,3.586-10.539,6.952-12.953,15.588c-0.513,1.83-0.073,3.805,0.366,5.635c1.317,5.269,5.049,10.978,7.977,14.344
			c0,0.146,0.586,0.512,0.586,0.659c2.415,2.854,3.147,3.659,12.294,5.708l-0.22,1.025c-5.489-1.464-10.026-2.781-12.88-6.075
			c0-0.072-0.512-0.585-0.512-0.585c-3.074-3.514-6.807-9.368-8.197-14.856c-0.512-2.196-0.951-3.879-0.366-6.148
			c2.488-8.928,7.904-12.44,13.393-16.173c1.245-0.805,2.708-1.537,3.879-2.489C215.537,128.534,216.781,123.411,218.026,119.24z"/>
		<path id="path2542" d="M220.365,133.144c0.073,3.806-0.298,5.714,0.653,8.423c0.585,1.609,2.563,3.805,3.148,5.928
			c0.805,2.854,1.682,6.001,1.607,7.904c0,2.196-0.138,6.292-1.088,10.684c-0.725,3.628-2.397,6.742-5.208,8.506
			c-2.879-0.593-6.26-1.605-8.256-3.315c-3.878-3.366-7.314-8.995-7.753-13.898c-0.366-4.025,3.361-9.961,8.557-12.961
			c4.39-2.562,5.412-5.481,6.363-10.165c-1.317,4.098-2.554,7.533-6.798,9.729c-6.148,3.22-9.302,8.625-9.009,13.748
			c0.438,6.586,3.077,11.049,8.272,14.636c2.195,1.536,6.297,3.16,8.858,3.6v-0.335c1.942-0.364,4.458-3.554,5.71-7.87
			c1.098-3.878,1.531-8.842,1.457-11.99c-0.074-1.829-0.881-5.792-2.344-9.377c-0.805-1.976-2.042-3.951-2.847-5.342
			C220.811,139.656,220.804,136.656,220.365,133.144z"/>
		<path id="path2544" d="M219.93,147.495c0.073,2.561,1.102,5.843,1.541,9.21c0.366,2.488,0.207,4.988,0.134,7.184
			c-0.072,2.542-0.919,7.096-2.077,9.311c-1.091-0.5-1.518-1.071-2.227-1.993c-0.878-1.245-1.474-2.489-2.06-3.952
			c-0.439-1.098-0.952-2.354-1.172-3.818c-0.292-2.196-0.21-5.63,2.278-9.143c1.902-2.781,2.338-2.993,2.997-6.212
			c-0.879,2.854-1.534,3.145-3.583,5.56c-2.269,2.635-2.646,6.516-2.646,9.662c0,1.317,0.525,2.78,1.038,4.169
			c0.585,1.464,1.087,2.921,1.892,4.019c1.21,1.779,2.758,2.791,3.517,2.98c0.005,0.001,0.012-0.001,0.017,0
			c0.017,0.004,0.035,0.014,0.05,0.017v-0.083c1.42-1.584,2.274-3.156,2.562-4.739c0.366-1.903,0.45-3.81,0.67-6.079
			c0.219-1.903,0.06-4.466-0.452-7.1C221.677,153.194,220.443,149.836,219.93,147.495L219.93,147.495z"/>
		<path id="path2550" d="M220.147,116.166c0.073,3.805,0.366,10.905,1.391,13.686c0.292,0.951,3,5.123,4.903,10.172
			c1.317,3.514,1.61,6.733,1.83,7.684c0.878,4.172-0.22,11.197-1.684,17.857c-0.732,3.585-3.22,8.05-6.074,9.807l-0.585,1.024
			c1.61-0.073,5.562-3.952,6.952-8.782c2.342-8.197,3.293-12.002,2.196-21.077c-0.146-0.879-0.512-3.879-1.903-7.099
			c-2.049-4.904-4.976-9.587-5.342-10.539C221.172,127.363,220.293,120.703,220.147,116.166L220.147,116.166z"/>
		<path id="path2552" d="M221.52,110.962c-0.217,3.911-0.275,5.351,0.457,8.205c0.805,3.147,4.903,7.684,6.587,12.88
			c3.22,9.953,2.415,22.979,0.073,33.151c-0.878,3.585-5.05,8.782-9.221,10.465l3.074,0.731c1.683-0.073,6-4.098,7.684-8.708
			c2.707-7.245,3.22-15.88,2.122-24.956c-0.074-0.878-1.538-8.708-2.927-12.001c-1.977-4.903-5.489-9.295-5.855-10.245
			C222.855,118.874,221.409,115.531,221.52,110.962L221.52,110.962z"/>
		<rect id="rect2556" x="219.194" y="108.209" width="0.294" height="67.528"/>
	</g>
</g>
<path id="path2528" opacity="0.1" fill="#7D4698" d="M44.792,23.771h58.766c2.195,0,4.098,1.83,4.098,4.098v17.344
	c0,2.269-1.902,4.099-4.098,4.099H91.483c-2.708,0-3.879,1.536-3.879,3.292v56.79c0,1.902-1.537,3.366-3.366,3.366H64.259
	c-1.83,0-3.293-1.464-3.293-3.366V52.093c0-1.756-1.61-2.78-2.854-2.78h-13.32c-2.268,0-4.098-1.83-4.098-4.099V27.869
	C40.694,25.601,42.523,23.771,44.792,23.771z"/>
<path id="path2532" opacity="0.1" fill="#7D4698" d="M195.561,46.75h5.195c1.903,0,3.44,1.537,3.44,3.366v18.589
	c0,2.415,0.146,3.366-2.781,3.366c-5.781,0-8.416,3.074-8.416,6.439v31.395c0,1.464-1.391,2.708-3.073,2.708h-18.663
	c-1.683,0-3.074-1.244-3.074-2.708V74.12c-0.02-0.629-0.008-1.558,0.073-2.048c1.025-13.247,11.418-23.844,24.59-25.175
	C193.295,46.852,194.857,46.75,195.561,46.75L195.561,46.75z"/>
<g id="layer3_1_" transform="translate(-92,-63.999774)" opacity="0.1">
	<g id="layer5_1_">
		<path id="path2554_1_" fill="#ABCD03" d="M656.292,350.134l-1.765,7.006c2.5-4.949,6.469-8.672,11.025-11.956
			c-3.332,3.871-6.369,7.742-8.231,11.613c3.137-4.41,7.351-6.859,12.103-8.478c-6.32,5.636-11.338,11.683-15.16,17.759
			l-3.038-1.323C651.765,359.903,653.598,354.935,656.292,350.134L656.292,350.134z"/>
		<path id="path2534_1_" fill="#FFFCDB" d="M648.18,363.467l5.782,2.398c0,1.471-0.119,5.956,0.8,7.277
			c9.616,12.386,7.998,37.211-1.948,37.848c-15.146,0-20.923-10.289-20.923-19.746c0-8.624,10.339-14.357,16.513-19.453
			C649.971,370.419,649.699,367.386,648.18,363.467L648.18,363.467z"/>
		<path id="path2536_1_" fill="#7D4698" d="M653.964,365.779l2.083,1.063c-0.195,1.371,0.099,4.409,1.471,5.193
			c6.075,3.773,11.809,7.889,14.063,12.006c8.036,14.504-5.635,27.929-17.444,26.655c6.419-4.754,8.281-14.504,5.881-25.138
			c-0.979-4.165-2.499-7.938-5.194-12.201C653.655,371.266,654.063,368.671,653.964,365.779L653.964,365.779z"/>
	</g>
	<g id="layer4_1_">
		<path id="path2538_1_" d="M652.96,365.421l4.313,0.589c-1.274,4.213,2.499,7.152,3.724,7.84c2.744,1.52,5.391,3.087,7.497,4.998
			c3.97,3.626,6.224,8.723,6.224,14.111c0,5.341-2.45,10.486-6.566,13.916c-3.871,3.234-9.212,4.605-14.406,4.605
			c-3.233,0-6.124-0.146-9.261-1.175c-7.153-2.402-12.495-8.526-12.936-15.877c-0.393-5.733,0.882-10.094,5.341-14.651
			c2.303-2.4,6.958-5.145,10.144-7.35c1.568-1.078,3.234-4.116,0.049-9.849l0.637-0.49l4.721,3.162l-3.985-1.643
			c0.344,0.489,1.274,2.694,1.471,3.332c0.44,1.813,0.245,3.576-0.147,4.36c-2.009,3.626-5.439,4.606-7.938,6.664
			c-4.409,3.626-9.211,6.518-8.673,16.464c0.245,4.9,4.067,10.878,9.801,13.671c3.233,1.568,6.958,2.206,10.73,2.401
			c3.382,0.147,9.85-1.862,13.377-4.802c3.773-3.137,5.881-7.89,5.881-12.74c0-4.9-1.961-9.555-5.636-12.838
			c-2.106-1.911-5.586-4.214-7.741-5.438c-2.156-1.226-4.852-4.656-3.97-7.938L652.96,365.421z"/>
		<path id="path2540_1_" d="M651.638,372.674c-0.441,2.254-0.931,6.32-2.892,7.84c-0.833,0.588-1.666,1.176-2.548,1.764
			c-3.528,2.401-7.057,4.654-8.673,10.438c-0.343,1.225-0.049,2.547,0.246,3.772c0.881,3.528,3.38,7.35,5.341,9.604
			c0,0.099,0.392,0.343,0.392,0.441c1.617,1.911,2.107,2.45,8.231,3.822l-0.146,0.687c-3.675-0.98-6.713-1.862-8.624-4.067
			c0-0.049-0.344-0.392-0.344-0.392c-2.058-2.354-4.557-6.272-5.488-9.947c-0.343-1.471-0.636-2.598-0.244-4.116
			c1.666-5.978,5.292-8.33,8.967-10.829c0.833-0.539,1.813-1.029,2.598-1.667C649.971,378.896,650.804,375.466,651.638,372.674z"/>
		<path id="path2542_1_" d="M653.204,381.983c0.05,2.547-0.2,3.825,0.438,5.64c0.392,1.077,1.716,2.548,2.107,3.969
			c0.539,1.911,1.126,4.018,1.076,5.292c0,1.47-0.091,4.213-0.729,7.153c-0.484,2.43-1.604,4.514-3.486,5.695
			c-1.928-0.396-4.191-1.075-5.528-2.22c-2.597-2.254-4.896-6.022-5.19-9.306c-0.245-2.695,2.251-6.67,5.729-8.678
			c2.939-1.716,3.623-3.67,4.26-6.806c-0.881,2.743-1.71,5.044-4.552,6.514c-4.116,2.155-6.228,5.774-6.032,9.205
			c0.294,4.409,2.061,7.397,5.539,9.8c1.471,1.028,4.216,2.115,5.932,2.41v-0.225c1.3-0.244,2.984-2.38,3.822-5.27
			c0.736-2.597,1.025-5.921,0.976-8.027c-0.049-1.226-0.59-3.878-1.569-6.279c-0.538-1.322-1.366-2.646-1.906-3.576
			C653.503,386.343,653.499,384.335,653.204,381.983z"/>
		<path id="path2544_1_" d="M652.913,391.592c0.049,1.715,0.737,3.912,1.031,6.166c0.245,1.667,0.139,3.341,0.09,4.811
			c-0.049,1.702-0.615,4.751-1.391,6.233c-0.73-0.335-1.017-0.717-1.491-1.334c-0.588-0.833-0.986-1.666-1.379-2.646
			c-0.294-0.735-0.637-1.576-0.784-2.556c-0.196-1.471-0.142-3.77,1.524-6.122c1.273-1.862,1.566-2.004,2.007-4.159
			c-0.589,1.911-1.026,2.105-2.399,3.722c-1.52,1.765-1.771,4.363-1.771,6.47c0,0.882,0.352,1.861,0.695,2.792
			c0.392,0.98,0.728,1.956,1.267,2.69c0.811,1.191,1.847,1.869,2.354,1.996c0.004,0,0.008-0.001,0.012,0
			c0.011,0.002,0.023,0.009,0.033,0.011v-0.056c0.951-1.061,1.522-2.113,1.716-3.173c0.245-1.273,0.301-2.551,0.448-4.069
			c0.146-1.274,0.04-2.991-0.303-4.755C654.082,395.407,653.256,393.159,652.913,391.592L652.913,391.592z"/>
		<path id="path2550_1_" d="M653.058,370.615c0.05,2.547,0.245,7.301,0.932,9.163c0.196,0.637,2.009,3.431,3.283,6.811
			c0.882,2.353,1.078,4.508,1.225,5.145c0.588,2.794-0.146,7.497-1.128,11.957c-0.489,2.4-2.154,5.39-4.066,6.565l-0.392,0.687
			c1.078-0.049,3.724-2.646,4.654-5.881c1.569-5.487,2.206-8.035,1.472-14.111c-0.099-0.589-0.344-2.597-1.275-4.754
			c-1.372-3.282-3.331-6.419-3.576-7.056C653.744,378.112,653.156,373.653,653.058,370.615L653.058,370.615z"/>
		<path id="path2552_1_" d="M653.978,367.131c-0.146,2.618-0.184,3.582,0.306,5.493c0.539,2.107,3.283,5.146,4.41,8.624
			c2.156,6.664,1.617,15.387,0.049,22.197c-0.588,2.4-3.381,5.88-6.174,7.007l2.058,0.489c1.127-0.049,4.018-2.743,5.146-5.83
			c1.813-4.852,2.155-10.633,1.421-16.71c-0.05-0.587-1.029-5.83-1.961-8.035c-1.323-3.283-3.675-6.224-3.92-6.859
			C654.871,372.428,653.903,370.19,653.978,367.131L653.978,367.131z"/>
		<rect id="rect2556_1_" x="652.42" y="365.287" width="0.197" height="45.215"/>
	</g>
</g>
<path id="path2528_1_" opacity="0.1" fill="#7D4698" d="M505.247,287.604h39.348c1.47,0,2.743,1.225,2.743,2.743v11.613
	c0,1.52-1.273,2.744-2.743,2.744h-8.085c-1.813,0-2.597,1.028-2.597,2.205v38.023c0,1.274-1.029,2.254-2.255,2.254h-13.377
	c-1.225,0-2.205-0.979-2.205-2.254v-38.366c0-1.177-1.078-1.862-1.91-1.862h-8.919c-1.519,0-2.743-1.225-2.743-2.744v-11.613
	C502.503,288.828,503.728,287.604,505.247,287.604z"/>
<path id="path2532_1_" opacity="0.1" fill="#7D4698" d="M606.196,302.989h3.479c1.275,0,2.305,1.028,2.305,2.254v12.446
	c0,1.616,0.098,2.254-1.862,2.254c-3.871,0-5.636,2.058-5.636,4.312v21.021c0,0.98-0.931,1.813-2.058,1.813h-12.495
	c-1.127,0-2.059-0.833-2.059-1.813v-23.961c-0.014-0.422-0.005-1.043,0.05-1.371c0.687-8.869,7.645-15.965,16.464-16.856
	C604.679,303.057,605.725,302.989,606.196,302.989L606.196,302.989z"/>
<g id="layer3_2_" transform="translate(-92,-63.999774)" opacity="0.1">
	<g id="layer5_2_">
		<path id="path2554_2_" fill="#ABCD03" d="M573.541,137.76l-4.471,17.756c6.333-12.542,16.392-21.979,27.941-30.299
			c-8.444,9.81-16.143,19.621-20.862,29.431c7.949-11.176,18.629-17.384,30.673-21.483c-16.02,14.282-28.734,29.605-38.421,45.004
			l-7.699-3.352C562.068,162.521,566.712,149.93,573.541,137.76L573.541,137.76z"/>
		<path id="path2534_2_" fill="#FFFCDB" d="M552.982,171.551l14.654,6.079c0,3.727-0.302,15.092,2.027,18.444
			c24.369,31.388,20.27,94.303-4.938,95.916c-38.385,0-53.025-26.077-53.025-50.042c0-21.857,26.2-36.386,41.85-49.301
			C557.524,189.17,556.833,181.486,552.982,171.551L552.982,171.551z"/>
		<path id="path2536_2_" fill="#7D4698" d="M567.641,177.412l5.281,2.694c-0.497,3.477,0.248,11.176,3.725,13.162
			c15.397,9.562,29.927,19.993,35.641,30.426c20.364,36.757-14.28,70.781-44.209,67.552c16.268-12.047,20.986-36.757,14.901-63.705
			c-2.481-10.556-6.333-20.118-13.163-30.922C566.857,191.317,567.891,184.74,567.641,177.412L567.641,177.412z"/>
	</g>
	<g id="layer4_2_">
		<path id="path2538_2_" d="M565.097,176.504l10.93,1.491c-3.23,10.679,6.334,18.129,9.438,19.869
			c6.953,3.85,13.659,7.823,18.998,12.666c10.063,9.19,15.772,22.105,15.772,35.763c0,13.535-6.209,26.575-16.641,35.268
			c-9.81,8.196-23.345,11.673-36.509,11.673c-8.195,0-15.523-0.371-23.471-2.979c-18.129-6.086-31.665-21.606-32.782-40.236
			c-0.992-14.529,2.235-25.582,13.537-37.13c5.836-6.084,17.633-13.038,25.704-18.626c3.974-2.733,8.196-10.433,0.125-24.961
			l1.613-1.242l11.963,8.013l-10.099-4.163c0.868,1.242,3.229,6.83,3.726,8.444c1.118,4.594,0.621,9.066-0.371,11.052
			c-5.091,9.189-13.784,11.673-20.117,16.888c-11.177,9.189-23.347,16.517-21.981,41.725c0.621,12.418,10.309,27.568,24.837,34.647
			c8.195,3.975,17.633,5.589,27.194,6.084c8.57,0.373,24.962-4.719,33.902-12.169c9.563-7.947,14.901-19.993,14.901-32.287
			c0-12.418-4.968-24.215-14.28-32.535c-5.339-4.843-14.156-10.68-19.62-13.784c-5.465-3.104-12.295-11.797-10.06-20.117
			L565.097,176.504z"/>
		<path id="path2540_2_" d="M561.746,194.883c-1.118,5.713-2.359,16.02-7.328,19.869c-2.11,1.49-4.222,2.979-6.457,4.471
			c-8.94,6.084-17.882,11.795-21.979,26.45c-0.871,3.105-0.126,6.456,0.62,9.562c2.235,8.942,8.568,18.627,13.535,24.339
			c0,0.248,0.994,0.868,0.994,1.118c4.1,4.844,5.341,6.209,20.863,9.686l-0.373,1.74c-9.314-2.484-17.014-4.72-21.855-10.309
			c0-0.123-0.868-0.993-0.868-0.993c-5.217-5.962-11.55-15.895-13.91-25.209c-0.868-3.727-1.613-6.582-0.621-10.431
			c4.223-15.149,13.411-21.111,22.726-27.445c2.112-1.365,4.595-2.608,6.582-4.222C557.524,210.654,559.633,201.961,561.746,194.883
			z"/>
		<path id="path2542_2_" d="M565.717,218.477c0.124,6.456-0.508,9.695,1.108,14.292c0.992,2.731,4.348,6.458,5.341,10.059
			c1.365,4.844,2.854,10.183,2.728,13.411c0,3.727-0.232,10.678-1.846,18.128c-1.23,6.158-4.067,11.44-8.836,14.436
			c-4.887-1.006-10.624-2.725-14.009-5.626c-6.582-5.712-12.412-15.264-13.157-23.584c-0.62-6.831,5.703-16.902,14.521-21.993
			c7.448-4.347,9.182-9.3,10.796-17.247c-2.233,6.953-4.331,12.783-11.535,16.508c-10.431,5.463-15.783,14.636-15.286,23.329
			c0.742,11.176,5.22,18.748,14.035,24.835c3.726,2.606,10.686,5.362,15.033,6.107v-0.568c3.294-0.618,7.563-6.03,9.688-13.354
			c1.864-6.58,2.599-15.004,2.473-20.344c-0.125-3.105-1.495-9.828-3.978-15.913c-1.365-3.352-3.463-6.704-4.832-9.064
			C566.472,229.527,566.462,224.436,565.717,218.477z"/>
		<path id="path2544_2_" d="M564.978,242.828c0.124,4.347,1.869,9.915,2.614,15.628c0.622,4.222,0.352,8.465,0.228,12.189
			c-0.123,4.313-1.56,12.04-3.524,15.799c-1.852-0.849-2.575-1.817-3.778-3.381c-1.49-2.112-2.502-4.224-3.495-6.707
			c-0.744-1.863-1.615-3.994-1.99-6.478c-0.495-3.728-0.356-9.554,3.866-15.516c3.229-4.72,3.969-5.078,5.086-10.541
			c-1.492,4.844-2.602,5.338-6.082,9.434c-3.848,4.471-4.487,11.056-4.487,16.395c0,2.235,0.892,4.716,1.76,7.076
			c0.994,2.483,1.847,4.956,3.212,6.818c2.053,3.02,4.68,4.736,5.967,5.058c0.009,0.002,0.02-0.002,0.028,0
			c0.028,0.007,0.06,0.023,0.086,0.028v-0.141c2.409-2.688,3.857-5.356,4.347-8.042c0.621-3.229,0.764-6.465,1.137-10.313
			c0.371-3.23,0.102-7.58-0.768-12.049C567.943,252.497,565.848,246.8,564.978,242.828L564.978,242.828z"/>
		<path id="path2550_2_" d="M565.345,189.667c0.127,6.457,0.622,18.504,2.36,23.223c0.497,1.614,5.091,8.693,8.32,17.26
			c2.235,5.962,2.732,11.424,3.104,13.038c1.491,7.079-0.371,19-2.856,30.302c-1.241,6.085-5.462,13.659-10.308,16.641l-0.991,1.738
			c2.731-0.124,9.436-6.706,11.796-14.902c3.975-13.908,5.589-20.366,3.729-35.763c-0.249-1.492-0.87-6.582-3.231-12.047
			c-3.477-8.32-8.443-16.268-9.064-17.882C567.085,208.666,565.594,197.366,565.345,189.667L565.345,189.667z"/>
		<path id="path2552_2_" d="M567.675,180.836c-0.367,6.636-0.465,9.08,0.775,13.922c1.366,5.34,8.32,13.039,11.178,21.856
			c5.463,16.889,4.098,38.993,0.124,56.253c-1.491,6.083-8.57,14.901-15.647,17.757l5.215,1.241
			c2.856-0.124,10.181-6.953,13.039-14.776c4.594-12.294,5.464-26.946,3.601-42.347c-0.126-1.488-2.607-14.776-4.968-20.364
			c-3.354-8.32-9.313-15.772-9.936-17.385C569.941,194.262,567.487,188.59,567.675,180.836L567.675,180.836z"/>
		<rect id="rect2556_2_" x="563.728" y="176.166" width="0.501" height="114.585"/>
	</g>
</g>
<path id="path2528_2_" opacity="0.1" fill="#7D4698" d="M331.904,77.485h99.718c3.726,0,6.953,3.104,6.953,6.954v29.43
	c0,3.85-3.228,6.956-6.953,6.956h-20.489c-4.596,0-6.582,2.607-6.582,5.587v96.364c0,3.229-2.608,5.712-5.711,5.712h-33.902
	c-3.104,0-5.587-2.483-5.587-5.712v-97.232c0-2.98-2.732-4.718-4.844-4.718h-22.603c-3.848,0-6.953-3.105-6.953-6.956V84.439
	C324.95,80.589,328.056,77.485,331.904,77.485z"/>
<path id="path2532_2_" opacity="0.1" fill="#7D4698" d="M587.738,116.478h8.815c3.231,0,5.84,2.607,5.84,5.712v31.542
	c0,4.098,0.248,5.714-4.72,5.714c-9.81,0-14.28,5.215-14.28,10.927v53.272c0,2.483-2.36,4.595-5.215,4.595h-31.669
	c-2.855,0-5.215-2.111-5.215-4.595V162.92c-0.035-1.068-0.013-2.643,0.124-3.475c1.74-22.479,19.375-40.461,41.726-42.72
	C583.893,116.65,586.544,116.478,587.738,116.478L587.738,116.478z"/>
<g id="layer3_3_" transform="translate(-92,-63.999774)" opacity="0.1">
	<g id="layer5_3_">
		<path id="path2554_3_" fill="#ABCD03" d="M338.999,223.82l-1,3.972c1.417-2.806,3.667-4.917,6.25-6.777
			c-1.889,2.194-3.611,4.389-4.667,6.583c1.778-2.5,4.167-3.889,6.861-4.805c-3.583,3.194-6.427,6.622-8.594,10.066l-1.722-0.75
			C336.433,229.358,337.472,226.542,338.999,223.82L338.999,223.82z"/>
		<path id="path2534_3_" fill="#FFFCDB" d="M334.401,231.378l3.278,1.36c0,0.833-0.067,3.375,0.454,4.125
			c5.451,7.021,4.534,21.093-1.104,21.454c-8.586,0-11.86-5.833-11.86-11.193c0-4.889,5.86-8.139,9.36-11.027
			C335.416,235.319,335.262,233.6,334.401,231.378L334.401,231.378z"/>
		<path id="path2536_3_" fill="#7D4698" d="M337.679,232.689l1.181,0.603c-0.111,0.777,0.056,2.5,0.833,2.944
			c3.444,2.139,6.694,4.472,7.972,6.806c4.555,8.222-3.194,15.832-9.889,15.11c3.639-2.695,4.694-8.222,3.333-14.25
			c-0.555-2.361-1.417-4.5-2.944-6.917C337.504,235.799,337.736,234.328,337.679,232.689L337.679,232.689z"/>
	</g>
	<g id="layer4_3_">
		<path id="path2538_3_" d="M337.111,232.486l2.445,0.333c-0.723,2.389,1.417,4.055,2.111,4.444c1.555,0.861,3.055,1.75,4.25,2.833
			c2.25,2.056,3.528,4.944,3.528,7.999c0,3.027-1.389,5.944-3.722,7.889c-2.194,1.833-5.222,2.611-8.166,2.611
			c-1.833,0-3.472-0.083-5.25-0.667c-4.055-1.361-7.083-4.833-7.333-9c-0.222-3.25,0.5-5.722,3.027-8.305
			c1.306-1.361,3.944-2.917,5.75-4.167c0.889-0.611,1.833-2.333,0.028-5.583l0.361-0.278l2.676,1.792l-2.259-0.931
			c0.194,0.278,0.722,1.527,0.833,1.889c0.25,1.028,0.139,2.028-0.083,2.472c-1.139,2.055-3.083,2.611-4.5,3.777
			c-2.5,2.056-5.222,3.694-4.917,9.333c0.139,2.777,2.306,6.166,5.555,7.75c1.833,0.889,3.944,1.25,6.083,1.361
			c1.917,0.083,5.583-1.056,7.583-2.722c2.139-1.777,3.333-4.472,3.333-7.222c0-2.777-1.111-5.416-3.194-7.277
			c-1.194-1.083-3.167-2.389-4.388-3.083c-1.223-0.694-2.75-2.639-2.25-4.5L337.111,232.486z"/>
		<path id="path2540_3_" d="M336.361,236.596c-0.25,1.278-0.528,3.583-1.639,4.444c-0.472,0.333-0.944,0.667-1.444,1
			c-2,1.361-4,2.638-4.916,5.916c-0.195,0.695-0.028,1.444,0.139,2.139c0.5,2,1.917,4.167,3.028,5.444
			c0,0.056,0.222,0.194,0.222,0.25c0.917,1.083,1.194,1.389,4.667,2.167l-0.083,0.389c-2.083-0.556-3.805-1.056-4.889-2.306
			c0-0.027-0.194-0.222-0.194-0.222c-1.167-1.333-2.583-3.555-3.111-5.639c-0.194-0.833-0.361-1.472-0.139-2.333
			c0.944-3.389,3-4.722,5.083-6.139c0.473-0.306,1.028-0.583,1.472-0.945C335.416,240.124,335.888,238.179,336.361,236.596z"/>
		<path id="path2542_3_" d="M337.249,241.874c0.028,1.444-0.114,2.169,0.248,3.197c0.222,0.611,0.973,1.445,1.195,2.25
			c0.305,1.083,0.638,2.278,0.61,3c0,0.834-0.052,2.389-0.413,4.055c-0.275,1.377-0.91,2.559-1.977,3.229
			c-1.093-0.225-2.376-0.609-3.133-1.258c-1.472-1.277-2.776-3.414-2.943-5.275c-0.139-1.528,1.276-3.781,3.248-4.919
			c1.666-0.972,2.054-2.08,2.415-3.857c-0.5,1.555-0.969,2.859-2.58,3.692c-2.333,1.222-3.53,3.273-3.419,5.218
			c0.167,2.5,1.168,4.193,3.14,5.555c0.833,0.583,2.39,1.2,3.362,1.366v-0.127c0.737-0.138,1.691-1.349,2.167-2.987
			c0.417-1.472,0.581-3.356,0.553-4.551c-0.028-0.694-0.334-2.198-0.89-3.559c-0.306-0.75-0.775-1.5-1.081-2.027
			C337.418,244.345,337.416,243.207,337.249,241.874z"/>
		<path id="path2544_3_" d="M337.084,247.321c0.028,0.972,0.418,2.218,0.585,3.496c0.139,0.944,0.079,1.893,0.051,2.727
			c-0.027,0.965-0.349,2.693-0.789,3.534c-0.414-0.19-0.576-0.407-0.845-0.756c-0.333-0.472-0.56-0.944-0.782-1.5
			c-0.167-0.417-0.361-0.894-0.445-1.449c-0.111-0.833-0.08-2.137,0.865-3.47c0.722-1.056,0.888-1.136,1.138-2.358
			c-0.334,1.083-0.582,1.194-1.36,2.11c-0.861,1-1.004,2.473-1.004,3.667c0,0.5,0.199,1.055,0.394,1.583
			c0.222,0.556,0.413,1.108,0.718,1.525c0.459,0.675,1.047,1.06,1.335,1.131c0.002,0,0.004,0,0.006,0
			c0.006,0.001,0.013,0.005,0.019,0.006v-0.032c0.539-0.601,0.863-1.198,0.972-1.798c0.139-0.722,0.171-1.446,0.254-2.307
			c0.083-0.722,0.022-1.695-0.171-2.695C337.747,249.483,337.279,248.209,337.084,247.321L337.084,247.321z"/>
		<path id="path2550_3_" d="M337.166,235.43c0.028,1.444,0.139,4.139,0.528,5.194c0.111,0.361,1.139,1.945,1.861,3.861
			c0.5,1.333,0.611,2.555,0.694,2.917c0.333,1.583-0.083,4.25-0.639,6.777c-0.277,1.361-1.222,3.056-2.305,3.722l-0.222,0.389
			c0.611-0.028,2.11-1.5,2.638-3.333c0.889-3.111,1.25-4.555,0.834-8c-0.056-0.333-0.195-1.472-0.723-2.694
			c-0.778-1.861-1.889-3.639-2.028-4C337.555,239.679,337.221,237.152,337.166,235.43L337.166,235.43z"/>
		<path id="path2552_3_" d="M337.687,233.455c-0.083,1.484-0.104,2.03,0.173,3.114c0.306,1.194,1.861,2.917,2.5,4.889
			c1.222,3.778,0.917,8.722,0.028,12.583c-0.333,1.36-1.917,3.333-3.5,3.972l1.167,0.278c0.639-0.028,2.277-1.555,2.917-3.305
			c1.027-2.75,1.222-6.027,0.806-9.472c-0.028-0.333-0.583-3.305-1.111-4.555c-0.75-1.861-2.083-3.528-2.223-3.889
			C338.194,236.458,337.645,235.189,337.687,233.455L337.687,233.455z"/>
		<rect id="rect2556_3_" x="336.804" y="232.41" width="0.112" height="25.63"/>
	</g>
</g>
<path id="path2528_3_" opacity="0.1" fill="#7D4698" d="M213.529,160.653h22.305c0.833,0,1.555,0.694,1.555,1.555v6.583
	c0,0.861-0.722,1.556-1.555,1.556h-4.583c-1.028,0-1.472,0.583-1.472,1.25v21.554c0,0.722-0.583,1.277-1.278,1.277h-7.583
	c-0.694,0-1.25-0.555-1.25-1.277v-21.749c0-0.667-0.611-1.055-1.083-1.055h-5.056c-0.861,0-1.555-0.695-1.555-1.556v-6.583
	C211.974,161.347,212.668,160.653,213.529,160.653z"/>
<path id="path2532_3_" opacity="0.1" fill="#7D4698" d="M270.753,169.375h1.972c0.723,0,1.307,0.583,1.307,1.278v7.055
	c0,0.917,0.055,1.278-1.056,1.278c-2.194,0-3.194,1.167-3.194,2.444v11.916c0,0.555-0.528,1.028-1.167,1.028h-7.083
	c-0.639,0-1.167-0.473-1.167-1.028v-13.583c-0.008-0.239-0.003-0.591,0.028-0.777c0.389-5.028,4.333-9.05,9.333-9.555
	C269.893,169.413,270.486,169.375,270.753,169.375L270.753,169.375z"/>
<g id="layer3_4_" transform="translate(-92,-63.999774)" opacity="0.1">
	<g id="layer5_4_">
		<path id="path2554_4_" fill="#ABCD03" d="M274.636,292.967l-3.109,12.351c4.405-8.725,11.401-15.287,19.435-21.075
			c-5.874,6.823-11.229,13.647-14.511,20.471c5.529-7.774,12.957-12.092,21.334-14.943c-11.142,9.935-19.986,20.592-26.724,31.303
			l-5.355-2.331C266.656,310.188,269.887,301.431,274.636,292.967L274.636,292.967z"/>
		<path id="path2534_4_" fill="#FFFCDB" d="M260.337,316.47l10.192,4.228c0,2.592-0.209,10.497,1.411,12.828
			c16.95,21.832,14.098,65.592-3.435,66.715c-26.699,0-36.881-18.139-36.881-34.807c0-15.203,18.224-25.309,29.108-34.292
			C263.495,328.724,263.015,323.38,260.337,316.47L260.337,316.47z"/>
		<path id="path2536_4_" fill="#7D4698" d="M270.532,320.546l3.673,1.874c-0.346,2.418,0.173,7.773,2.591,9.155
			c10.709,6.651,20.815,13.905,24.79,21.162c14.164,25.566-9.933,49.231-30.75,46.986c11.314-8.38,14.597-25.566,10.365-44.31
			c-1.727-7.342-4.405-13.992-9.156-21.508C269.987,330.219,270.706,325.642,270.532,320.546L270.532,320.546z"/>
	</g>
	<g id="layer4_4_">
		<path id="path2538_4_" d="M268.763,319.914l7.603,1.037c-2.248,7.428,4.405,12.609,6.564,13.82c4.836,2.678,9.5,5.442,13.214,8.81
			c6.998,6.393,10.97,15.376,10.97,24.875c0,9.414-4.319,18.484-11.574,24.53c-6.823,5.701-16.238,8.119-25.394,8.119
			c-5.701,0-10.797-0.259-16.325-2.072c-12.609-4.233-22.025-15.028-22.802-27.986c-0.691-10.105,1.555-17.793,9.415-25.825
			c4.06-4.231,12.265-9.068,17.88-12.956c2.764-1.899,5.701-7.256,0.086-17.36l1.123-0.864l8.32,5.573l-7.023-2.895
			c0.604,0.863,2.246,4.749,2.591,5.873c0.777,3.195,0.432,6.305-0.259,7.687c-3.541,6.392-9.587,8.119-13.992,11.746
			c-7.773,6.393-16.238,11.489-15.289,29.021c0.432,8.638,7.17,19.175,17.275,24.099c5.701,2.765,12.265,3.888,18.915,4.232
			c5.961,0.259,17.362-3.283,23.581-8.465c6.651-5.527,10.365-13.906,10.365-22.457c0-8.638-3.456-16.843-9.933-22.63
			c-3.713-3.367-9.846-7.428-13.646-9.587c-3.801-2.16-8.552-8.206-6.997-13.992L268.763,319.914z"/>
		<path id="path2540_4_" d="M266.432,332.699c-0.778,3.973-1.641,11.142-5.097,13.819c-1.468,1.036-2.937,2.072-4.492,3.109
			c-6.219,4.232-12.438,8.204-15.287,18.397c-0.605,2.16-0.086,4.49,0.432,6.65c1.555,6.219,5.959,12.956,9.415,16.929
			c0,0.173,0.691,0.604,0.691,0.778c2.851,3.369,3.714,4.318,14.51,6.736l-0.259,1.211c-6.478-1.729-11.833-3.283-15.201-7.171
			c0-0.085-0.604-0.69-0.604-0.69c-3.628-4.146-8.034-11.056-9.675-17.534c-0.604-2.592-1.122-4.578-0.432-7.255
			c2.937-10.537,9.328-14.685,15.807-19.089c1.469-0.95,3.195-1.814,4.578-2.938C263.495,343.668,264.963,337.621,266.432,332.699z"
			/>
		<path id="path2542_4_" d="M269.194,349.109c0.086,4.49-0.353,6.743,0.771,9.94c0.69,1.899,3.024,4.492,3.715,6.996
			c0.95,3.369,1.985,7.083,1.897,9.328c0,2.592-0.161,7.427-1.284,12.609c-0.855,4.283-2.829,7.957-6.146,10.04
			c-3.399-0.7-7.389-1.895-9.745-3.913c-4.578-3.973-8.632-10.616-9.15-16.403c-0.432-4.751,3.967-11.757,10.1-15.297
			c5.181-3.023,6.386-6.469,7.509-11.996c-1.554,4.836-3.013,8.891-8.023,11.481c-7.256,3.801-10.978,10.18-10.633,16.227
			c0.518,7.772,3.631,13.04,9.764,17.273c2.591,1.813,7.431,3.729,10.456,4.248v-0.396c2.292-0.43,5.26-4.193,6.738-9.288
			c1.297-4.577,1.808-10.437,1.72-14.15c-0.086-2.16-1.04-6.836-2.766-11.068c-0.95-2.331-2.409-4.663-3.361-6.305
			C269.719,356.795,269.713,353.254,269.194,349.109z"/>
		<path id="path2544_4_" d="M268.68,366.046c0.086,3.023,1.3,6.896,1.819,10.87c0.432,2.937,0.244,5.888,0.158,8.479
			c-0.085,3-1.084,8.375-2.451,10.988c-1.288-0.59-1.792-1.264-2.628-2.351c-1.036-1.47-1.74-2.938-2.431-4.666
			c-0.519-1.296-1.124-2.777-1.384-4.505c-0.345-2.593-0.249-6.646,2.688-10.792c2.245-3.282,2.76-3.531,3.537-7.332
			c-1.038,3.369-1.81,3.713-4.229,6.563c-2.677,3.109-3.122,7.689-3.122,11.403c0,1.555,0.62,3.28,1.225,4.921
			c0.69,1.729,1.283,3.448,2.233,4.743c1.428,2.101,3.255,3.294,4.15,3.518c0.006,0.001,0.014-0.001,0.02,0
			c0.02,0.005,0.042,0.017,0.06,0.02v-0.098c1.676-1.869,2.683-3.726,3.023-5.594c0.432-2.245,0.531-4.496,0.791-7.174
			c0.258-2.246,0.07-5.271-0.534-8.38C270.742,372.771,269.285,368.808,268.68,366.046L268.68,366.046z"/>
		<path id="path2550_4_" d="M268.936,329.07c0.088,4.49,0.432,12.87,1.641,16.152c0.346,1.123,3.541,6.047,5.787,12.005
			c1.555,4.147,1.901,7.946,2.159,9.068c1.037,4.924-0.258,13.216-1.987,21.076c-0.863,4.232-3.799,9.501-7.169,11.574l-0.689,1.209
			c1.899-0.086,6.563-4.664,8.204-10.365c2.765-9.673,3.888-14.165,2.593-24.874c-0.173-1.038-0.605-4.578-2.248-8.38
			c-2.418-5.787-5.872-11.314-6.304-12.438C270.146,342.286,269.109,334.426,268.936,329.07L268.936,329.07z"/>
		<path id="path2552_4_" d="M270.556,322.928c-0.256,4.615-0.324,6.314,0.54,9.683c0.95,3.715,5.787,9.069,7.774,15.202
			c3.8,11.747,2.851,27.121,0.086,39.127c-1.037,4.23-5.961,10.365-10.884,12.351l3.627,0.863c1.987-0.086,7.081-4.836,9.069-10.277
			c3.195-8.551,3.8-18.742,2.505-29.454c-0.088-1.035-1.814-10.277-3.456-14.164c-2.333-5.787-6.478-10.971-6.911-12.092
			C272.132,332.266,270.425,328.321,270.556,322.928L270.556,322.928z"/>
		<rect id="rect2556_4_" x="267.811" y="319.679" width="0.348" height="79.699"/>
	</g>
</g>
<path id="path2528_4_" opacity="0.1" fill="#7D4698" d="M78.557,231.559h69.358c2.591,0,4.836,2.158,4.836,4.836v20.47
	c0,2.679-2.245,4.838-4.836,4.838h-14.251c-3.197,0-4.578,1.813-4.578,3.886v67.025c0,2.246-1.814,3.974-3.973,3.974h-23.58
	c-2.16,0-3.886-1.728-3.886-3.974v-67.629c0-2.074-1.9-3.282-3.369-3.282H78.557c-2.677,0-4.836-2.159-4.836-4.838v-20.47
	C73.72,233.717,75.88,231.559,78.557,231.559z"/>
<path id="path2532_4_" opacity="0.1" fill="#7D4698" d="M256.501,258.678h6.131c2.248,0,4.062,1.814,4.062,3.975v21.938
	c0,2.85,0.173,3.974-3.283,3.974c-6.823,0-9.933,3.627-9.933,7.601v37.053c0,1.728-1.641,3.196-3.627,3.196h-22.027
	c-1.986,0-3.627-1.469-3.627-3.196v-42.236c-0.024-0.743-0.009-1.838,0.086-2.417c1.21-15.635,13.476-28.143,29.021-29.713
	C253.826,258.798,255.671,258.678,256.501,258.678L256.501,258.678z"/>
<g id="layer3_5_" transform="translate(-92,-63.999774)" opacity="0.1">
	<g id="layer5_5_">
		<path id="path2554_5_" fill="#ABCD03" d="M494.692,398.394l-2.33,9.255c3.301-6.537,8.543-11.456,14.563-15.792
			c-4.401,5.113-8.414,10.227-10.874,15.34c4.144-5.826,9.71-9.062,15.987-11.197c-8.35,7.443-14.977,15.431-20.026,23.457
			l-4.013-1.748C488.711,411.301,491.132,404.738,494.692,398.394L494.692,398.394z"/>
		<path id="path2534_5_" fill="#FFFCDB" d="M483.975,416.008l7.639,3.168c0,1.943-0.158,7.867,1.057,9.613
			c12.702,16.36,10.565,49.153-2.574,49.995c-20.008,0-27.638-13.593-27.638-26.084c0-11.392,13.657-18.966,21.813-25.696
			C486.342,425.191,485.983,421.185,483.975,416.008L483.975,416.008z"/>
		<path id="path2536_5_" fill="#7D4698" d="M491.615,419.062l2.753,1.404c-0.259,1.812,0.13,5.824,1.941,6.859
			c8.025,4.984,15.599,10.422,18.577,15.859c10.614,19.159-7.443,36.893-23.043,35.211c8.479-6.279,10.938-19.159,7.768-33.205
			c-1.294-5.502-3.302-10.486-6.861-16.117C491.207,426.31,491.746,422.882,491.615,419.062L491.615,419.062z"/>
	</g>
	<g id="layer4_5_">
		<path id="path2538_5_" d="M490.289,418.589l5.697,0.777c-1.684,5.565,3.302,9.449,4.919,10.356
			c3.625,2.006,7.12,4.077,9.903,6.602c5.244,4.79,8.221,11.522,8.221,18.641c0,7.055-3.236,13.852-8.674,18.383
			c-5.113,4.271-12.168,6.084-19.029,6.084c-4.271,0-8.091-0.193-12.233-1.553c-9.449-3.173-16.505-11.263-17.087-20.973
			c-0.518-7.572,1.164-13.334,7.055-19.354c3.042-3.17,9.191-6.795,13.398-9.708c2.072-1.425,4.272-5.438,0.064-13.011l0.842-0.646
			l6.235,4.176l-5.264-2.17c0.453,0.648,1.683,3.561,1.942,4.402c0.582,2.395,0.323,4.725-0.195,5.76
			c-2.652,4.791-7.184,6.084-10.484,8.803c-5.826,4.79-12.169,8.609-11.457,21.748c0.323,6.474,5.373,14.369,12.945,18.06
			c4.271,2.071,9.191,2.913,14.174,3.171c4.468,0.194,13.012-2.46,17.671-6.343c4.985-4.143,7.768-10.421,7.768-16.829
			c0-6.473-2.589-12.621-7.443-16.958c-2.783-2.524-7.379-5.567-10.227-7.185c-2.849-1.619-6.409-6.149-5.243-10.486
			L490.289,418.589z"/>
		<path id="path2540_5_" d="M488.543,428.168c-0.583,2.979-1.229,8.351-3.819,10.357c-1.101,0.775-2.2,1.553-3.366,2.33
			c-4.66,3.172-9.32,6.147-11.455,13.786c-0.454,1.619-0.065,3.365,0.323,4.984c1.165,4.66,4.466,9.709,7.056,12.686
			c0,0.13,0.518,0.453,0.518,0.583c2.137,2.525,2.783,3.237,10.874,5.049l-0.194,0.907c-4.854-1.295-8.867-2.46-11.392-5.373
			c0-0.064-0.453-0.518-0.453-0.518c-2.719-3.107-6.021-8.285-7.25-13.14c-0.452-1.942-0.841-3.431-0.323-5.438
			c2.201-7.896,6.99-11.004,11.845-14.305c1.101-0.712,2.395-1.359,3.431-2.201C486.342,436.388,487.442,431.857,488.543,428.168z"
			/>
		<path id="path2542_5_" d="M490.614,440.467c0.064,3.365-0.266,5.054,0.577,7.449c0.518,1.424,2.267,3.366,2.784,5.243
			c0.711,2.524,1.486,5.308,1.422,6.99c0,1.942-0.121,5.565-0.963,9.449c-0.641,3.209-2.119,5.963-4.605,7.523
			c-2.547-0.524-5.537-1.42-7.303-2.933c-3.43-2.977-6.469-7.955-6.856-12.292c-0.323-3.561,2.974-8.811,7.568-11.464
			c3.882-2.266,4.786-4.847,5.627-8.989c-1.164,3.624-2.258,6.663-6.013,8.604c-5.438,2.848-8.227,7.628-7.968,12.159
			c0.388,5.825,2.722,9.772,7.316,12.944c1.942,1.359,5.569,2.796,7.835,3.185v-0.297c1.718-0.322,3.942-3.143,5.05-6.961
			c0.972-3.43,1.354-7.82,1.288-10.604c-0.064-1.618-0.778-5.123-2.072-8.294c-0.712-1.748-1.805-3.495-2.519-4.725
			C491.006,446.225,491.002,443.572,490.614,440.467z"/>
		<path id="path2544_5_" d="M490.228,453.159c0.064,2.266,0.974,5.167,1.362,8.146c0.324,2.201,0.184,4.412,0.119,6.354
			c-0.064,2.248-0.813,6.275-1.838,8.234c-0.965-0.441-1.342-0.947-1.969-1.762c-0.776-1.102-1.304-2.201-1.822-3.496
			c-0.388-0.971-0.841-2.082-1.036-3.376c-0.259-1.943-0.187-4.979,2.015-8.088c1.683-2.459,2.068-2.646,2.65-5.494
			c-0.777,2.525-1.355,2.782-3.169,4.918c-2.007,2.33-2.34,5.763-2.34,8.545c0,1.166,0.464,2.459,0.918,3.688
			c0.517,1.295,0.962,2.583,1.673,3.554c1.07,1.574,2.439,2.469,3.111,2.637c0.004,0.001,0.01-0.001,0.014,0
			c0.016,0.003,0.031,0.012,0.045,0.015v-0.073c1.256-1.401,2.012-2.792,2.266-4.192c0.324-1.682,0.398-3.369,0.593-5.375
			c0.193-1.684,0.053-3.951-0.399-6.28C491.773,458.199,490.681,455.229,490.228,453.159L490.228,453.159z"/>
		<path id="path2550_5_" d="M490.419,425.45c0.065,3.365,0.324,9.645,1.229,12.104c0.26,0.841,2.654,4.531,4.338,8.996
			c1.165,3.107,1.424,5.954,1.617,6.796c0.777,3.689-0.193,9.903-1.488,15.794c-0.647,3.171-2.848,7.119-5.373,8.673l-0.517,0.906
			c1.423-0.064,4.918-3.495,6.147-7.768c2.072-7.249,2.914-10.615,1.944-18.641c-0.13-0.777-0.454-3.431-1.685-6.279
			c-1.813-4.337-4.4-8.479-4.725-9.32C491.326,435.353,490.549,429.463,490.419,425.45L490.419,425.45z"/>
		<path id="path2552_5_" d="M491.634,420.847c-0.192,3.459-0.243,4.732,0.403,7.256c0.713,2.783,4.338,6.797,5.826,11.393
			c2.848,8.803,2.137,20.324,0.065,29.32c-0.777,3.171-4.468,7.768-8.156,9.256l2.718,0.646c1.489-0.064,5.307-3.624,6.797-7.701
			c2.395-6.408,2.848-14.045,1.877-22.072c-0.065-0.776-1.359-7.702-2.59-10.615c-1.748-4.336-4.854-8.221-5.179-9.061
			C492.815,427.845,491.535,424.888,491.634,420.847L491.634,420.847z"/>
		<rect id="rect2556_5_" x="489.576" y="418.413" width="0.261" height="59.725"/>
	</g>
</g>
<path id="path2528_5_" opacity="0.1" fill="#7D4698" d="M324.696,336.336h51.976c1.941,0,3.624,1.618,3.624,3.625v15.34
	c0,2.006-1.683,3.625-3.624,3.625h-10.68c-2.396,0-3.431,1.358-3.431,2.912v50.228c0,1.683-1.359,2.978-2.978,2.978h-17.67
	c-1.619,0-2.912-1.295-2.912-2.978v-50.681c0-1.553-1.424-2.459-2.524-2.459h-11.781c-2.006,0-3.624-1.618-3.624-3.625v-15.34
	C321.072,337.954,322.69,336.336,324.696,336.336z"/>
<path id="path2532_5_" opacity="0.1" fill="#7D4698" d="M458.044,356.66h4.595c1.684,0,3.044,1.359,3.044,2.978v16.44
	c0,2.136,0.129,2.978-2.46,2.978c-5.113,0-7.444,2.719-7.444,5.695v27.768c0,1.295-1.229,2.395-2.718,2.395h-16.507
	c-1.487,0-2.718-1.1-2.718-2.395v-31.651c-0.019-0.557-0.007-1.378,0.064-1.812c0.907-11.716,10.099-21.089,21.749-22.267
	C456.04,356.75,457.422,356.66,458.044,356.66L458.044,356.66z"/>
<g id="layer3_6_" transform="translate(-92,-63.999774)" opacity="0.1">
	<g id="layer5_6_">
		<path id="path2554_6_" fill="#ABCD03" d="M170.287,435.248l-1.143,4.537c1.619-3.204,4.188-5.615,7.14-7.742
			c-2.158,2.508-4.125,5.014-5.331,7.521c2.031-2.856,4.76-4.443,7.838-5.49c-4.093,3.649-7.342,7.564-9.818,11.5l-1.967-0.857
			C167.355,441.576,168.542,438.358,170.287,435.248L170.287,435.248z"/>
		<path id="path2534_6_" fill="#FFFCDB" d="M165.033,443.883l3.744,1.554c0,0.952-0.077,3.856,0.519,4.713
			c6.227,8.021,5.179,24.097-1.262,24.509c-9.809,0-13.55-6.663-13.55-12.787c0-5.585,6.695-9.297,10.694-12.598
			C166.194,448.385,166.017,446.422,165.033,443.883L165.033,443.883z"/>
		<path id="path2536_6_" fill="#7D4698" d="M168.779,445.381l1.35,0.688c-0.127,0.889,0.063,2.856,0.952,3.363
			c3.935,2.444,7.647,5.109,9.107,7.775c5.204,9.393-3.649,18.086-11.296,17.262c4.157-3.078,5.363-9.393,3.808-16.279
			c-0.635-2.697-1.619-5.141-3.364-7.9C168.579,448.933,168.843,447.253,168.779,445.381L168.779,445.381z"/>
	</g>
	<g id="layer4_6_">
		<path id="path2538_6_" d="M168.129,445.148l2.793,0.381c-0.826,2.729,1.618,4.633,2.411,5.077
			c1.777,0.983,3.491,1.999,4.855,3.237c2.571,2.348,4.03,5.648,4.03,9.138c0,3.459-1.587,6.791-4.252,9.013
			c-2.506,2.094-5.965,2.982-9.329,2.982c-2.094,0-3.966-0.096-5.997-0.762c-4.632-1.555-8.091-5.521-8.377-10.281
			c-0.254-3.713,0.571-6.537,3.459-9.488c1.491-1.555,4.506-3.331,6.568-4.76c1.016-0.697,2.094-2.665,0.032-6.377l0.413-0.318
			l3.057,2.048l-2.581-1.063c0.222,0.317,0.825,1.745,0.952,2.158c0.286,1.174,0.159,2.316-0.095,2.824
			c-1.301,2.348-3.522,2.982-5.141,4.314c-2.856,2.349-5.965,4.221-5.617,10.662c0.159,3.174,2.634,7.044,6.347,8.854
			c2.094,1.016,4.506,1.428,6.949,1.555c2.19,0.095,6.379-1.206,8.663-3.109c2.444-2.031,3.808-5.109,3.808-8.251
			c0-3.173-1.27-6.188-3.649-8.313c-1.364-1.237-3.617-2.729-5.013-3.522c-1.396-0.793-3.142-3.015-2.571-5.14L168.129,445.148z"/>
		<path id="path2540_6_" d="M167.273,449.844c-0.286,1.46-0.603,4.094-1.872,5.077c-0.54,0.381-1.079,0.762-1.65,1.143
			c-2.285,1.555-4.569,3.014-5.616,6.759c-0.222,0.794-0.032,1.649,0.159,2.443c0.571,2.284,2.189,4.76,3.459,6.22
			c0,0.063,0.254,0.222,0.254,0.285c1.047,1.238,1.364,1.587,5.331,2.475l-0.095,0.445c-2.38-0.635-4.347-1.206-5.584-2.635
			c0-0.031-0.222-0.254-0.222-0.254c-1.333-1.523-2.951-4.061-3.554-6.441c-0.222-0.951-0.412-1.682-0.159-2.665
			c1.079-3.871,3.427-5.395,5.807-7.013c0.54-0.35,1.174-0.666,1.682-1.079C166.194,453.875,166.733,451.654,167.273,449.844z"/>
		<path id="path2542_6_" d="M168.287,455.874c0.032,1.649-0.129,2.478,0.283,3.651c0.254,0.698,1.111,1.65,1.365,2.57
			c0.349,1.238,0.729,2.603,0.697,3.428c0,0.952-0.06,2.729-0.472,4.632c-0.314,1.573-1.04,2.923-2.258,3.688
			c-1.249-0.257-2.715-0.695-3.58-1.438c-1.682-1.459-3.171-3.9-3.361-6.026c-0.159-1.745,1.457-4.319,3.71-5.62
			c1.903-1.109,2.346-2.375,2.759-4.406c-0.571,1.776-1.107,3.266-2.948,4.218c-2.666,1.396-4.033,3.739-3.906,5.962
			c0.19,2.855,1.334,4.79,3.587,6.346c0.952,0.666,2.73,1.369,3.841,1.561v-0.146c0.842-0.157,1.933-1.541,2.475-3.412
			c0.477-1.682,0.664-3.835,0.632-5.198c-0.032-0.794-0.382-2.512-1.016-4.066c-0.349-0.857-0.885-1.713-1.235-2.316
			C168.481,458.697,168.478,457.396,168.287,455.874z"/>
		<path id="path2544_6_" d="M168.098,462.095c0.032,1.111,0.478,2.534,0.668,3.994c0.159,1.078,0.09,2.162,0.058,3.115
			c-0.032,1.102-0.398,3.076-0.901,4.036c-0.473-0.217-0.658-0.464-0.965-0.864c-0.381-0.539-0.639-1.078-0.893-1.713
			c-0.19-0.477-0.413-1.021-0.508-1.656c-0.127-0.951-0.091-2.44,0.988-3.964c0.825-1.206,1.014-1.298,1.299-2.693
			c-0.381,1.237-0.665,1.364-1.554,2.41c-0.984,1.143-1.147,2.825-1.147,4.189c0,0.571,0.228,1.205,0.45,1.808
			c0.253,0.635,0.471,1.268,0.82,1.743c0.524,0.771,1.196,1.21,1.524,1.292c0.002,0,0.005,0,0.007,0
			c0.007,0.002,0.015,0.006,0.022,0.008v-0.037c0.616-0.686,0.986-1.367,1.111-2.055c0.159-0.824,0.195-1.651,0.291-2.635
			c0.095-0.826,0.026-1.938-0.196-3.079C168.856,464.566,168.321,463.111,168.098,462.095L168.098,462.095z"/>
		<path id="path2550_6_" d="M168.193,448.511c0.032,1.65,0.159,4.729,0.603,5.935c0.127,0.412,1.301,2.222,2.126,4.41
			c0.571,1.523,0.698,2.919,0.793,3.331c0.381,1.81-0.095,4.855-0.73,7.744c-0.317,1.555-1.396,3.49-2.634,4.252l-0.253,0.443
			c0.698-0.031,2.411-1.713,3.014-3.808c1.016-3.554,1.428-5.204,0.953-9.139c-0.063-0.381-0.222-1.682-0.826-3.078
			c-0.888-2.126-2.157-4.157-2.316-4.569C168.637,453.367,168.256,450.479,168.193,448.511L168.193,448.511z"/>
		<path id="path2552_6_" d="M168.788,446.256c-0.094,1.695-0.119,2.32,0.198,3.557c0.349,1.365,2.126,3.332,2.856,5.586
			c1.396,4.315,1.047,9.963,0.032,14.374c-0.381,1.554-2.19,3.808-3.999,4.537l1.333,0.317c0.73-0.031,2.602-1.777,3.332-3.775
			c1.174-3.142,1.396-6.886,0.92-10.821c-0.032-0.38-0.667-3.775-1.27-5.204c-0.857-2.125-2.38-4.029-2.539-4.441
			C169.367,449.686,168.74,448.236,168.788,446.256L168.788,446.256z"/>
		<rect id="rect2556_6_" x="167.779" y="445.062" width="0.128" height="29.279"/>
	</g>
</g>
<path id="path2528_6_" opacity="0.1" fill="#7D4698" d="M40.051,372.2h25.48c0.952,0,1.777,0.794,1.777,1.776v7.521
	c0,0.983-0.825,1.777-1.777,1.777h-5.235c-1.175,0-1.682,0.666-1.682,1.427v24.624c0,0.824-0.667,1.459-1.459,1.459h-8.663
	c-0.793,0-1.428-0.635-1.428-1.459V384.48c0-0.762-0.698-1.205-1.237-1.205h-5.775c-0.983,0-1.777-0.794-1.777-1.777v-7.521
	C38.274,372.994,39.067,372.2,40.051,372.2z"/>
<path id="path2532_6_" opacity="0.1" fill="#7D4698" d="M105.423,382.164h2.253c0.826,0,1.492,0.666,1.492,1.459v8.061
	c0,1.047,0.063,1.46-1.206,1.46c-2.507,0-3.649,1.333-3.649,2.792v13.612c0,0.635-0.603,1.175-1.333,1.175h-8.092
	c-0.729,0-1.333-0.54-1.333-1.175v-15.517c-0.009-0.273-0.003-0.676,0.032-0.888c0.445-5.744,4.951-10.339,10.662-10.916
	C104.441,382.208,105.118,382.164,105.423,382.164L105.423,382.164z"/>
<g id="layer3_7_" transform="translate(-92,-63.999774)" opacity="0.1">
	<g id="layer5_7_">
		<path id="path2554_7_" fill="#ABCD03" d="M720.402,74.009l-1.524,6.056c2.159-4.277,5.59-7.496,9.528-10.333
			c-2.88,3.346-5.505,6.691-7.114,10.037c2.711-3.811,6.353-5.929,10.46-7.326c-5.463,4.87-9.799,10.096-13.103,15.348l-2.626-1.143
			C716.489,82.454,718.073,78.16,720.402,74.009L720.402,74.009z"/>
		<path id="path2534_7_" fill="#FFFCDB" d="M713.39,85.533l4.997,2.073c0,1.271-0.103,5.147,0.692,6.29
			c8.311,10.704,6.912,32.16-1.685,32.711c-13.09,0-18.083-8.894-18.083-17.066c0-7.454,8.935-12.409,14.272-16.813
			C714.939,91.542,714.703,88.921,713.39,85.533L713.39,85.533z"/>
		<path id="path2536_7_" fill="#7D4698" d="M718.389,87.532l1.801,0.918c-0.169,1.186,0.085,3.812,1.271,4.489
			c5.251,3.261,10.206,6.818,12.155,10.376c6.944,12.536-4.871,24.138-15.077,23.038c5.548-4.108,7.157-12.536,5.082-21.726
			c-0.847-3.6-2.16-6.861-4.489-10.545C718.121,92.274,718.475,90.031,718.389,87.532L718.389,87.532z"/>
	</g>
	<g id="layer4_7_">
		<path id="path2538_7_" d="M717.522,87.222l3.728,0.508c-1.103,3.642,2.16,6.183,3.218,6.776c2.372,1.313,4.659,2.668,6.479,4.319
			c3.432,3.134,5.379,7.539,5.379,12.197c0,4.616-2.117,9.063-5.675,12.027c-3.346,2.795-7.962,3.981-12.451,3.981
			c-2.795,0-5.294-0.127-8.004-1.016c-6.183-2.076-10.799-7.369-11.18-13.722c-0.339-4.955,0.762-8.725,4.616-12.663
			c1.99-2.075,6.014-4.447,8.767-6.353c1.354-0.932,2.795-3.558,0.042-8.513l0.55-0.423l4.08,2.733l-3.443-1.42
			c0.296,0.424,1.101,2.329,1.27,2.88c0.382,1.567,0.212,3.092-0.126,3.769c-1.736,3.134-4.701,3.981-6.86,5.76
			c-3.813,3.134-7.963,5.633-7.497,14.229c0.212,4.235,3.516,9.401,8.471,11.815c2.795,1.356,6.013,1.906,9.273,2.075
			c2.923,0.127,8.514-1.609,11.563-4.15c3.261-2.71,5.082-6.818,5.082-11.011c0-4.235-1.694-8.258-4.87-11.096
			c-1.821-1.651-4.828-3.642-6.691-4.701c-1.863-1.059-4.193-4.023-3.431-6.861L717.522,87.222z"/>
		<path id="path2540_7_" d="M716.379,93.49c-0.382,1.948-0.805,5.463-2.499,6.776c-0.72,0.508-1.44,1.016-2.202,1.524
			c-3.049,2.075-6.099,4.022-7.495,9.021c-0.298,1.059-0.043,2.202,0.211,3.261c0.763,3.049,2.922,6.353,4.616,8.301
			c0,0.084,0.339,0.296,0.339,0.381c1.398,1.652,1.821,2.117,7.114,3.303l-0.127,0.593c-3.176-0.847-5.802-1.609-7.453-3.516
			c0-0.042-0.296-0.338-0.296-0.338c-1.779-2.034-3.939-5.421-4.744-8.598c-0.296-1.271-0.55-2.245-0.212-3.557
			c1.44-5.167,4.574-7.2,7.75-9.36c0.721-0.465,1.567-0.889,2.245-1.439C714.939,98.868,715.658,95.904,716.379,93.49z"/>
		<path id="path2542_7_" d="M717.733,101.536c0.043,2.202-0.173,3.307,0.378,4.875c0.339,0.931,1.483,2.202,1.821,3.43
			c0.466,1.652,0.974,3.473,0.931,4.574c0,1.271-0.079,3.642-0.63,6.182c-0.419,2.1-1.387,3.902-3.013,4.923
			c-1.667-0.343-3.623-0.929-4.777-1.918c-2.245-1.948-4.233-5.206-4.487-8.043c-0.212-2.33,1.945-5.764,4.952-7.5
			c2.54-1.482,3.131-3.171,3.682-5.882c-0.762,2.372-1.478,4.359-3.934,5.63c-3.558,1.863-5.383,4.991-5.214,7.956
			c0.254,3.812,1.78,6.394,4.787,8.47c1.271,0.889,3.644,1.829,5.127,2.083v-0.194c1.123-0.21,2.579-2.056,3.304-4.554
			c0.636-2.244,0.886-5.117,0.843-6.938c-0.042-1.059-0.51-3.352-1.356-5.427c-0.466-1.144-1.181-2.287-1.647-3.091
			C717.99,105.304,717.988,103.569,717.733,101.536z"/>
		<path id="path2544_7_" d="M717.481,109.841c0.043,1.482,0.638,3.381,0.892,5.33c0.212,1.44,0.12,2.887,0.078,4.157
			c-0.042,1.471-0.532,4.106-1.202,5.388c-0.632-0.29-0.879-0.62-1.289-1.153c-0.508-0.721-0.854-1.44-1.191-2.288
			c-0.254-0.635-0.551-1.362-0.679-2.209c-0.169-1.271-0.122-3.258,1.318-5.292c1.101-1.609,1.354-1.731,1.734-3.595
			c-0.509,1.652-0.888,1.82-2.074,3.217c-1.312,1.525-1.53,3.771-1.53,5.591c0,0.762,0.304,1.608,0.601,2.413
			c0.339,0.847,0.629,1.69,1.095,2.326c0.7,1.029,1.596,1.615,2.035,1.725c0.003,0,0.007,0,0.01,0
			c0.01,0.002,0.021,0.008,0.029,0.01v-0.048c0.821-0.917,1.315-1.826,1.482-2.742c0.212-1.101,0.261-2.205,0.388-3.518
			c0.126-1.102,0.034-2.585-0.262-4.109C718.491,113.138,717.778,111.196,717.481,109.841L717.481,109.841z"/>
		<path id="path2550_7_" d="M717.607,91.711c0.043,2.202,0.212,6.311,0.805,7.919c0.169,0.551,1.735,2.965,2.837,5.887
			c0.763,2.033,0.932,3.896,1.059,4.446c0.509,2.414-0.127,6.479-0.975,10.334c-0.423,2.075-1.862,4.658-3.515,5.675l-0.338,0.593
			c0.932-0.042,3.218-2.287,4.022-5.082c1.355-4.743,1.906-6.945,1.271-12.196c-0.085-0.509-0.297-2.245-1.102-4.109
			c-1.186-2.837-2.88-5.547-3.092-6.098C718.199,98.191,717.691,94.337,717.607,91.711L717.607,91.711z"/>
		<path id="path2552_7_" d="M718.401,88.7c-0.125,2.263-0.158,3.096,0.265,4.748c0.466,1.821,2.838,4.447,3.812,7.454
			c1.863,5.76,1.397,13.298,0.043,19.185c-0.509,2.074-2.923,5.082-5.337,6.056l1.778,0.423c0.975-0.042,3.473-2.372,4.447-5.039
			c1.566-4.193,1.863-9.189,1.229-14.442c-0.043-0.507-0.89-5.039-1.694-6.945c-1.145-2.837-3.177-5.379-3.389-5.929
			C719.173,93.278,718.336,91.344,718.401,88.7L718.401,88.7z"/>
		<rect id="rect2556_7_" x="717.055" y="87.107" width="0.171" height="39.077"/>
	</g>
</g>
<path id="path2528_7_" opacity="0.1" fill="#7D4698" d="M577.369,11.28h34.008c1.271,0,2.371,1.059,2.371,2.372v10.037
	c0,1.313-1.101,2.372-2.371,2.372h-6.988c-1.566,0-2.244,0.889-2.244,1.905v32.864c0,1.101-0.89,1.948-1.947,1.948h-11.563
	c-1.059,0-1.905-0.847-1.905-1.948v-33.16c0-1.016-0.932-1.609-1.651-1.609h-7.709c-1.312,0-2.371-1.059-2.371-2.372V13.651
	C574.998,12.338,576.058,11.28,577.369,11.28z"/>
<path id="path2532_7_" opacity="0.1" fill="#7D4698" d="M664.617,24.578h3.007c1.103,0,1.991,0.889,1.991,1.948v10.757
	c0,1.398,0.085,1.949-1.609,1.949c-3.346,0-4.87,1.778-4.87,3.727v18.167c0,0.847-0.805,1.567-1.778,1.567h-10.8
	c-0.974,0-1.778-0.72-1.778-1.567V40.416c-0.012-0.364-0.005-0.901,0.042-1.185c0.594-7.666,6.607-13.798,14.229-14.569
	C663.307,24.636,664.211,24.578,664.617,24.578L664.617,24.578z"/>
</svg>
