<?xml version="1.0" encoding="utf-8"?>
<!-- Generator: Adobe Illustrator 16.0.0, SVG Export Plug-In . SVG Version: 6.00 Build 0)  -->
<!DOCTYPE svg PUBLIC "-//W3C//DTD SVG 1.1//EN" "http://www.w3.org/Graphics/SVG/1.1/DTD/svg11.dtd">
<svg version="1.1" id="Layer_1" xmlns="http://www.w3.org/2000/svg" xmlns:xlink="http://www.w3.org/1999/xlink" x="0px" y="0px"
	 width="695px" height="443px" viewBox="0 0 695 443" enable-background="new 0 0 695 443" xml:space="preserve">
<path opacity="0.1" fill-rule="evenodd" clip-rule="evenodd" fill="#FF7F00" d="M142.393,141.604
	c-3.825,0.021-7.675,0.984-10.593,2.668l-62.939,36.334c-2.894,1.67-5.756,4.334-7.682,7.602c-2.005,3.402-3.019,7.463-3.019,10.943
	v72.668c0,3.635,1.179,7.677,3.343,11.187c1.896,3.077,4.598,5.766,7.358,7.358L131.8,326.7c2.982,1.722,7.008,2.712,10.916,2.695
	c3.835-0.017,7.56-1.006,10.485-2.695l62.938-36.335c2.947-1.701,5.99-4.419,7.924-7.763c1.944-3.359,2.776-7.363,2.776-10.782
	v-72.668c0-3.307-0.729-7.104-2.561-10.377c-1.948-3.482-5.096-6.41-8.14-8.168l-62.938-36.334
	C150.212,142.547,146.311,141.583,142.393,141.604"/>
<path fill-rule="evenodd" clip-rule="evenodd" fill="#FFFFFF" d="M113.606,190.77h36.334c18.774,0,30.512,10.788,30.512,27.95
	c0,11.773-6.189,21.632-16.847,25.474l19.516,36.01h-18.275l-17.52-33.53h-5.822h-11.888v33.53h-16.01v-33.53H100.56v-13.37h13.046
	h9.596h16.765h1.537h6.576c10.162,0,15.957-5.452,15.957-14.933c0-9.294-6.199-14.987-16.361-14.987h-18.06v6.47v2.479v1.401v13.774
	v1.401l-16.01-2.398v-1.401v-11.376v-1.401v-2.479V190.77z"/>
<path opacity="0.1" fill-rule="evenodd" clip-rule="evenodd" fill="#FF7F00" d="M345.24,178.604
	c-3.031,0.016-6.082,0.779-8.395,2.114l-49.867,28.788c-2.293,1.324-4.561,3.434-6.087,6.023c-1.588,2.696-2.392,5.914-2.392,8.671
	v57.576c0,2.88,0.934,6.082,2.649,8.863c1.502,2.438,3.643,4.568,5.83,5.83l49.867,28.789c2.363,1.364,5.553,2.148,8.649,2.136
	c3.038-0.013,5.989-0.797,8.308-2.136l49.868-28.789c2.334-1.348,4.745-3.501,6.278-6.15c1.54-2.662,2.199-5.834,2.199-8.543
	v-57.576c0-2.62-0.577-5.628-2.028-8.223c-1.543-2.759-4.038-5.079-6.449-6.472l-49.868-28.788
	C351.434,179.351,348.344,178.588,345.24,178.604"/>
<path fill-rule="evenodd" clip-rule="evenodd" fill="#FFFFFF" d="M322.431,217.559h28.788c14.875,0,24.176,8.548,24.176,22.146
	c0,9.328-4.904,17.139-13.348,20.183l15.463,28.531h-14.48l-13.881-26.566h-4.613h-9.42v26.566h-12.685v-26.566h-10.337v-10.594
	h10.337h7.603h13.283h1.219h5.211c8.051,0,12.643-4.319,12.643-11.831c0-7.363-4.912-11.875-12.963-11.875h-14.311v5.126v1.965v1.11
	v10.914v1.11l-12.685-1.9v-1.11v-9.014v-1.11v-1.965V217.559z"/>
<path opacity="0.1" fill-rule="evenodd" clip-rule="evenodd" fill="#FF7F00" d="M511.71,16.5c-4.144,0.022-8.313,1.065-11.473,2.89
	l-68.15,39.343c-3.134,1.81-6.232,4.693-8.318,8.231c-2.171,3.684-3.269,8.083-3.269,11.851V157.5c0,3.936,1.276,8.312,3.619,12.113
	c2.053,3.333,4.979,6.243,7.968,7.968l68.15,39.344c3.229,1.864,7.589,2.937,11.82,2.919c4.152-0.018,8.186-1.089,11.354-2.919
	l68.151-39.344c3.189-1.842,6.485-4.785,8.58-8.406c2.105-3.638,3.006-7.973,3.006-11.675V78.814c0-3.581-0.789-7.692-2.771-11.237
	c-2.109-3.771-5.52-6.94-8.814-8.844L523.411,19.39C520.174,17.521,515.951,16.478,511.71,16.5"/>
<path fill-rule="evenodd" clip-rule="evenodd" fill="#FFFFFF" d="M480.537,69.736h39.343c20.329,0,33.039,11.682,33.039,30.266
	c0,12.748-6.702,23.422-18.241,27.583l21.133,38.992h-19.79l-18.97-36.307h-6.305h-12.874v36.307h-17.335V130.27H466.41v-14.478
	h14.127h10.39h18.153h1.666h7.121c11.003,0,17.278-5.903,17.278-16.169c0-10.063-6.714-16.229-17.716-16.229h-19.558V90.4v2.686
	v1.518v14.915v1.518l-17.335-2.597v-1.517V94.603v-1.518V90.4V69.736z"/>
<path opacity="0.1" fill-rule="evenodd" clip-rule="evenodd" fill="#FF7F00" d="M77.906,18.34c-1.575,0.008-3.16,0.405-4.362,1.099
	L47.631,34.398c-1.192,0.688-2.37,1.785-3.163,3.13c-0.826,1.401-1.243,3.073-1.243,4.506v29.919c0,1.497,0.485,3.161,1.376,4.606
	c0.781,1.267,1.893,2.374,3.03,3.029l25.914,14.96c1.228,0.709,2.886,1.116,4.495,1.11c1.579-0.007,3.112-0.414,4.317-1.11
	l25.914-14.96c1.213-0.7,2.466-1.819,3.263-3.196c0.8-1.383,1.143-3.032,1.143-4.439V42.035c0-1.362-0.3-2.925-1.054-4.273
	c-0.802-1.434-2.098-2.639-3.351-3.363L82.356,19.439C81.125,18.728,79.519,18.332,77.906,18.34"/>
<path fill-rule="evenodd" clip-rule="evenodd" fill="#FFFFFF" d="M66.053,38.583h14.96c7.73,0,12.563,4.442,12.563,11.509
	c0,4.847-2.548,8.906-6.936,10.488l8.035,14.826h-7.525L79.938,61.6H77.54h-4.895v13.805h-6.592V61.6h-5.372v-5.505h5.372h3.951
	h6.903h0.633h2.708c4.184,0,6.569-2.245,6.569-6.148c0-3.826-2.552-6.17-6.736-6.17h-7.437v2.664v1.021v0.577v5.671v0.577
	l-6.592-0.988v-0.577v-4.684v-0.577V46.44V38.583z"/>
<path opacity="0.1" fill-rule="evenodd" clip-rule="evenodd" fill="#FF7F00" d="M264.483,6.104
	c-3.132,0.017-6.286,0.806-8.676,2.186l-51.543,29.755c-2.371,1.369-4.714,3.549-6.292,6.225c-1.642,2.787-2.472,6.113-2.473,8.963
	v59.511c0,2.977,0.965,6.287,2.738,9.161c1.553,2.521,3.766,4.722,6.026,6.026l51.543,29.756c2.442,1.41,5.74,2.221,8.94,2.208
	c3.14-0.013,6.19-0.824,8.586-2.208l51.544-29.756c2.413-1.393,4.905-3.619,6.489-6.357c1.592-2.751,2.273-6.03,2.273-8.83V53.233
	c0-2.708-0.597-5.817-2.097-8.499c-1.595-2.852-4.174-5.249-6.666-6.689L273.333,8.29C270.885,6.876,267.691,6.087,264.483,6.104"/>
<path fill-rule="evenodd" clip-rule="evenodd" fill="#FFFFFF" d="M240.907,46.368h29.756c15.375,0,24.988,8.835,24.988,22.891
	c0,9.642-5.069,17.714-13.796,20.861l15.982,29.49H282.87L268.523,92.15h-4.769h-9.736v27.459h-13.111V92.15h-10.684V81.2h10.684
	h7.858h13.73h1.259h5.386c8.321,0,13.067-4.464,13.067-12.229c0-7.611-5.077-12.274-13.398-12.274h-14.791v5.298v2.031v1.147v11.281
	v1.148l-13.111-1.964v-1.148v-9.316v-1.147v-2.031V46.368z"/>
<path opacity="0.1" fill-rule="evenodd" clip-rule="evenodd" fill="#FF7F00" d="M419.953,346.894
	c-1.693,0.01-3.397,0.436-4.688,1.181l-27.854,16.08c-1.28,0.739-2.547,1.918-3.399,3.363c-0.888,1.506-1.336,3.304-1.336,4.844
	v32.159c0,1.608,0.521,3.396,1.479,4.95c0.839,1.362,2.034,2.552,3.256,3.257l27.854,16.08c1.319,0.762,3.101,1.199,4.831,1.192
	c1.696-0.007,3.345-0.445,4.64-1.192l27.854-16.08c1.304-0.753,2.65-1.956,3.507-3.436c0.86-1.487,1.229-3.259,1.229-4.771v-32.159
	c0-1.464-0.322-3.144-1.133-4.593c-0.862-1.541-2.256-2.836-3.603-3.614l-27.854-16.08
	C423.412,347.311,421.687,346.885,419.953,346.894"/>
<path fill-rule="evenodd" clip-rule="evenodd" fill="#FFFFFF" d="M407.213,368.651h16.079c8.309,0,13.504,4.774,13.504,12.37
	c0,5.21-2.739,9.572-7.456,11.272l8.637,15.936h-8.088l-7.753-14.838h-2.576h-5.262v14.838h-7.085v-14.838h-5.773v-5.917h5.773
	h4.246h7.42h0.681h2.91c4.497,0,7.062-2.413,7.062-6.608c0-4.113-2.744-6.633-7.24-6.633h-7.993v2.863v1.098v0.62v6.096v0.62
	l-7.085-1.062v-0.62v-5.034v-0.62v-1.098V368.651z"/>
<path opacity="0.1" fill-rule="evenodd" clip-rule="evenodd" fill="#FF7F00" d="M66.442,303.719
	c-2.646,0.014-5.308,0.681-7.326,1.846L15.592,330.69c-2.001,1.156-3.981,2.997-5.313,5.258c-1.386,2.353-2.087,5.161-2.088,7.567
	v50.253c0,2.514,0.815,5.309,2.312,7.735c1.312,2.129,3.18,3.987,5.088,5.089l43.524,25.127c2.063,1.19,4.847,1.875,7.549,1.864
	c2.652-0.011,5.228-0.695,7.251-1.864l43.525-25.127c2.037-1.176,4.142-3.056,5.48-5.368c1.344-2.323,1.919-5.092,1.919-7.456
	v-50.253c0-2.286-0.504-4.912-1.771-7.177c-1.347-2.407-3.524-4.433-5.629-5.648l-43.525-25.126
	C71.848,304.37,69.151,303.704,66.442,303.719"/>
<path fill-rule="evenodd" clip-rule="evenodd" fill="#FFFFFF" d="M46.534,337.718H71.66c12.983,0,21.101,7.461,21.101,19.33
	c0,8.142-4.281,14.958-11.65,17.615l13.496,24.902H81.969l-12.115-23.188h-4.027h-8.221v23.188H46.534v-23.188h-9.022v-9.246h9.022
	h6.635h11.594h1.063h4.548c7.027,0,11.035-3.77,11.035-10.326c0-6.427-4.288-10.364-11.314-10.364h-12.49v4.474v1.715v0.97v9.525
	v0.969l-11.071-1.658v-0.97V353.6v-0.97v-1.715V337.718z"/>
<path opacity="0.1" fill-rule="evenodd" clip-rule="evenodd" fill="#FF7F00" d="M618.995,216.104
	c-3.337,0.018-6.695,0.858-9.241,2.328l-54.895,31.69c-2.523,1.458-5.02,3.781-6.7,6.63c-1.749,2.968-2.633,6.51-2.633,9.546v63.381
	c0,3.17,1.028,6.695,2.916,9.757c1.653,2.684,4.01,5.028,6.417,6.418l54.895,31.691c2.602,1.501,6.113,2.364,9.521,2.351
	c3.345-0.014,6.594-0.877,9.146-2.351l54.896-31.691c2.569-1.484,5.224-3.854,6.911-6.771c1.695-2.931,2.421-6.423,2.421-9.404
	v-63.381c0-2.884-0.636-6.196-2.232-9.052c-1.699-3.038-4.445-5.59-7.1-7.124l-54.896-31.69
	C625.813,216.926,622.411,216.086,618.995,216.104"/>
<path fill-rule="evenodd" clip-rule="evenodd" fill="#FFFFFF" d="M593.886,258.985h31.69c16.375,0,26.613,9.41,26.613,24.38
	c0,10.268-5.398,18.866-14.693,22.217l17.021,31.407h-15.94l-15.28-29.244h-5.078H607.85v29.244h-13.964v-29.244h-11.379v-11.662
	h11.379h8.369h14.622h1.342h5.736c8.862,0,13.917-4.755,13.917-13.023c0-8.105-5.407-13.072-14.27-13.072H607.85v5.643v2.163v1.223
	v12.014v1.223l-13.964-2.092v-1.223v-9.922v-1.223v-2.163V258.985z"/>
</svg>
