<?xml version="1.0" encoding="utf-8"?>
<!-- Generator: Adobe Illustrator 16.0.0, SVG Export Plug-In . SVG Version: 6.00 Build 0)  -->
<!DOCTYPE svg PUBLIC "-//W3C//DTD SVG 1.1//EN" "http://www.w3.org/Graphics/SVG/1.1/DTD/svg11.dtd">
<svg version="1.1" id="Layer_1" xmlns="http://www.w3.org/2000/svg" xmlns:xlink="http://www.w3.org/1999/xlink" x="0px" y="0px"
	 width="123.167px" height="36px" viewBox="0 0 123.167 36" enable-background="new 0 0 123.167 36" xml:space="preserve">
<g>
	<path fill="#FFFFFF" d="M11.058,11.781h12.734c2.525,0,4.572,2.047,4.572,4.572s-2.047,4.572-4.572,4.572H6.075L11.058,11.781z"/>
</g>
<linearGradient id="SVGID_1_" gradientUnits="userSpaceOnUse" x1="16.4028" y1="827.7363" x2="16.4028" y2="835.166" gradientTransform="matrix(1 0 0 1 -0.04 -806.8105)">
	<stop  offset="0" style="stop-color:#FFFFFF;stop-opacity:0.6"/>
	<stop  offset="1" style="stop-color:#FFFFFF"/>
</linearGradient>
<path fill="url(#SVGID_1_)" d="M6.075,20.926h17.668l2.907,7.43L6.075,20.926z"/>
<g>
	
		<radialGradient id="SVGID_2_" cx="-479.1221" cy="-0.6753" r="0.0826" gradientTransform="matrix(-13.6167 424.6737 -435.7151 -13.9708 -6799.25 203461.9688)" gradientUnits="userSpaceOnUse">
		<stop  offset="0" style="stop-color:#31E7FA"/>
		<stop  offset="0.526" style="stop-color:#4477FF"/>
		<stop  offset="1" style="stop-color:#DB74FF"/>
	</radialGradient>
	<path fill="url(#SVGID_2_)" d="M12.9,2.316c3.04-2.208,7.156-2.208,10.194,0l9.324,6.775c3.04,2.208,4.312,6.122,3.151,9.695
		l-3.562,10.962c-1.161,3.572-4.49,5.993-8.248,5.993H12.234c-3.757,0-7.087-2.421-8.247-5.993L0.425,18.786
		c-1.161-3.573,0.111-7.487,3.15-9.695L12.9,2.316z"/>
	<g id="XMLID_1865_">
		<path id="XMLID_1869_" fill="#FBDBED" d="M19.111,18.192c1.075,0.4,2.186,0.812,3.009,1.5c0.769,0.646,1.204,1.459,1.316,2.472
			c0.358-0.188,0.751-0.372,1.155-0.526c-0.402-3.046-5.384-4.82-4.518-8.744c0,0-2.563,1.581-2.207,4.816
			C18.267,17.878,18.686,18.035,19.111,18.192z"/>
		<path id="XMLID_1868_" fill="#FFFFFF" d="M28.505,23.344c-0.217-0.097-0.207-0.335-0.309-0.585
			c-0.75-1.823-3.197-0.968-5.081,0.132c-0.046,0.026-0.091,0.055-0.136,0.084c0.253-5.275-7.299-3.27-8.497-8.023
			c0,0-2.635,4.26,2.682,7.656c0.811,0.519,1.394,1.482,1.277,2.463c-0.499,4.16-8.981,1.111-9.366-5.791
			c-0.313-5.632,4.575-9.943,10.38-9.943c3.825,0,7.173,2.044,9.012,5.098c-1.756-4.008-5.758-6.809-10.416-6.809
			c-6.276,0-11.365,5.088-11.365,11.366c0,6.276,5.089,11.366,11.365,11.366c0.139,0,0.276-0.004,0.413-0.01
			c1.779,0.07,3.678-0.308,5.325-1.629c1.943-1.557,1.557-3.482,3.337-4.523c0.504-0.297,1.164-0.553,2.248-0.295
			C29.374,23.898,29.186,23.648,28.505,23.344z"/>
		<path id="XMLID_1866_" fill="#00A8C9" d="M14.069,21.283"/>
	</g>
</g>
<g>
	<path fill="#183B56" d="M43.867,21.829V6.943h9.406v2.75h-6.509v3.674h5.795v2.667h-5.774v5.795H43.867z"/>
	<path fill="#183B56" d="M69.421,21.829V11.394l-4.283,10.435h-2.414L58.44,11.478v10.351h-2.771V6.943h3.821l4.472,10.75
		l4.367-10.75h3.947v14.886H69.421z"/>
	<path fill="#183B56" d="M82.442,6.628c4.053,0,7.664,2.96,7.664,7.769c0,4.787-3.611,7.747-7.664,7.747
		c-4.031,0-7.643-2.96-7.643-7.747C74.8,9.588,78.411,6.628,82.442,6.628z M82.442,19.331c2.311,0,4.662-1.596,4.662-4.956
		c0-3.359-2.352-4.955-4.662-4.955c-2.288,0-4.64,1.596-4.64,4.955C77.803,17.735,80.154,19.331,82.442,19.331z"/>
	<path fill="#183B56" d="M95.212,21.829h-2.793v-10.33h2.709v1.281c0.63-1.071,1.869-1.554,2.981-1.554
		c2.562,0,3.737,1.827,3.737,4.094v6.509h-2.793v-6.026c0-1.155-0.566-2.058-1.91-2.058c-1.218,0-1.932,0.945-1.932,2.142V21.829z"
		/>
	<path fill="#183B56" d="M113.942,18.868c-0.525,1.785-2.162,3.275-4.703,3.275c-2.834,0-5.333-2.036-5.333-5.521
		c0-3.296,2.436-5.438,5.081-5.438c3.191,0,5.102,2.037,5.102,5.354c0,0.398-0.041,0.818-0.041,0.861h-7.391
		c0.063,1.364,1.217,2.352,2.604,2.352c1.301,0,2.016-0.651,2.352-1.575L113.942,18.868z M111.339,15.488
		c-0.042-1.029-0.714-2.037-2.31-2.037c-1.448,0-2.247,1.092-2.31,2.037H111.339z"/>
	<path fill="#183B56" d="M119.934,10.504l2.851,4.332h-2.043l-1.873-2.998l-1.884,2.998h-1.983l2.852-4.344l-2.839-4.332h2.031
		l1.86,2.998l1.896-2.998h1.971L119.934,10.504z"/>
</g>
<line fill="none" x1="66" y1="27" x2="68.5" y2="27"/>
<g>
	<path fill="#183B56" d="M44.917,26.012v0.512h0.904v0.807h-0.904v3.087h-0.936V27.33h-0.68v-0.807h0.68v-0.536
		c0-0.872,0.56-1.399,1.359-1.399c0.232,0,0.424,0.049,0.488,0.08v0.792c-0.056-0.017-0.16-0.04-0.336-0.04
		C45.245,25.42,44.917,25.531,44.917,26.012z"/>
	<path fill="#183B56" d="M46.566,30.417v-3.894h0.888v0.496c0.224-0.4,0.711-0.608,1.151-0.608c0.512,0,0.959,0.231,1.167,0.688
		c0.304-0.512,0.759-0.688,1.263-0.688c0.704,0,1.375,0.448,1.375,1.479v2.526h-0.896v-2.374c0-0.457-0.232-0.801-0.751-0.801
		c-0.488,0-0.808,0.385-0.808,0.864v2.311h-0.912v-2.374c0-0.448-0.224-0.801-0.751-0.801c-0.496,0-0.808,0.368-0.808,0.864v2.311
		H46.566z"/>
	<path fill="#183B56" d="M57.284,28.466c0,1.2-0.855,2.071-2.023,2.071c-1.159,0-2.015-0.871-2.015-2.071
		c0-1.19,0.855-2.063,2.015-2.063C56.428,26.403,57.284,27.275,57.284,28.466z M56.348,28.466c0-0.808-0.512-1.224-1.087-1.224
		c-0.567,0-1.087,0.416-1.087,1.224s0.52,1.239,1.087,1.239C55.836,29.705,56.348,29.281,56.348,28.466z"/>
	<path fill="#183B56" d="M59.109,30.417h-0.928v-3.894h0.903v0.52c0.256-0.447,0.72-0.632,1.151-0.632
		c0.952,0,1.407,0.688,1.407,1.543v2.463h-0.928v-2.303c0-0.479-0.216-0.863-0.799-0.863c-0.528,0-0.808,0.407-0.808,0.919V30.417z"
		/>
	<path fill="#183B56" d="M66.22,29.306c-0.208,0.68-0.823,1.231-1.759,1.231c-1.056,0-1.991-0.768-1.991-2.087
		c0-1.231,0.911-2.047,1.895-2.047c1.199,0,1.903,0.792,1.903,2.022c0,0.152-0.016,0.28-0.024,0.296h-2.846
		c0.023,0.592,0.487,1.016,1.063,1.016c0.56,0,0.847-0.296,0.976-0.68L66.22,29.306z M65.332,28.043
		c-0.016-0.457-0.319-0.864-0.959-0.864c-0.584,0-0.92,0.448-0.952,0.864H65.332z"/>
	<path fill="#183B56" d="M67.638,29.162c0.359,0,0.655,0.295,0.655,0.655s-0.296,0.647-0.655,0.647c-0.36,0-0.647-0.287-0.647-0.647
		S67.277,29.162,67.638,29.162z"/>
	<path fill="#183B56" d="M73.02,28.466c0,1.2-0.855,2.071-2.023,2.071c-1.159,0-2.015-0.871-2.015-2.071
		c0-1.19,0.855-2.063,2.015-2.063C72.164,26.403,73.02,27.275,73.02,28.466z M72.084,28.466c0-0.808-0.512-1.224-1.088-1.224
		c-0.567,0-1.087,0.416-1.087,1.224s0.52,1.239,1.087,1.239C71.572,29.705,72.084,29.281,72.084,28.466z"/>
	<path fill="#183B56" d="M76.196,27.442c-0.104-0.016-0.208-0.024-0.305-0.024c-0.719,0-1.047,0.416-1.047,1.145v1.854h-0.928
		v-3.894h0.903v0.623c0.185-0.424,0.616-0.672,1.128-0.672c0.111,0,0.208,0.017,0.248,0.024V27.442z"/>
	<path fill="#183B56" d="M77.51,30.409c0.063,0.479,0.439,0.839,0.975,0.839c0.736,0,1.104-0.375,1.104-1.167v-0.407
		c-0.168,0.303-0.56,0.567-1.127,0.567c-1.04,0-1.799-0.8-1.799-1.896c0-1.039,0.728-1.895,1.799-1.895
		c0.607,0,0.983,0.248,1.151,0.568v-0.496h0.896v3.525c0,1.04-0.536,2.008-1.999,2.008c-1.031,0-1.751-0.641-1.855-1.424
		L77.51,30.409z M79.612,28.346c0-0.663-0.424-1.095-1-1.095c-0.591,0-1.015,0.432-1.015,1.095c0,0.68,0.407,1.104,1.015,1.104
		C79.204,29.449,79.612,29.018,79.612,28.346z"/>
</g>
</svg>
