<?xml version="1.0" encoding="utf-8"?>
<!-- Generator: Adobe Illustrator 16.0.0, SVG Export Plug-In . SVG Version: 6.00 Build 0)  -->
<!DOCTYPE svg PUBLIC "-//W3C//DTD SVG 1.1//EN" "http://www.w3.org/Graphics/SVG/1.1/DTD/svg11.dtd">
<svg version="1.1" id="Layer_1" xmlns="http://www.w3.org/2000/svg" xmlns:xlink="http://www.w3.org/1999/xlink" x="0px" y="0px"
	 width="123.167px" height="36px" viewBox="0 0 123.167 36" enable-background="new 0 0 123.167 36" xml:space="preserve">
<g>
	<path fill="#FFFFFF" d="M11.058,11.781h12.734c2.525,0,4.572,2.047,4.572,4.572s-2.047,4.572-4.572,4.572H6.075L11.058,11.781z"/>
</g>
<linearGradient id="SVGID_1_" gradientUnits="userSpaceOnUse" x1="16.4229" y1="-792.6421" x2="16.4229" y2="-800.0718" gradientTransform="matrix(1 0 0 -1 -0.0601 -771.7158)">
	<stop  offset="0" style="stop-color:#FFFFFF;stop-opacity:0.6"/>
	<stop  offset="1" style="stop-color:#FFFFFF"/>
</linearGradient>
<path fill="url(#SVGID_1_)" d="M6.075,20.926h17.668l2.907,7.43L6.075,20.926z"/>
<g>
	
		<radialGradient id="SVGID_2_" cx="-714.1074" cy="439.7471" r="0.0822" gradientTransform="matrix(-13.6167 424.6737 435.7151 13.9708 -201308.6406 297119.8438)" gradientUnits="userSpaceOnUse">
		<stop  offset="0" style="stop-color:#31E7FA"/>
		<stop  offset="0.526" style="stop-color:#4477FF"/>
		<stop  offset="1" style="stop-color:#DB74FF"/>
	</radialGradient>
	<path fill="url(#SVGID_2_)" d="M12.9,2.316c3.04-2.208,7.156-2.208,10.194,0l9.324,6.775c3.04,2.208,4.312,6.122,3.151,9.695
		l-3.562,10.962c-1.161,3.572-4.49,5.993-8.248,5.993H12.234c-3.757,0-7.087-2.421-8.247-5.993L0.425,18.786
		c-1.161-3.573,0.111-7.487,3.15-9.695L12.9,2.316z"/>
	<g id="XMLID_1865_">
		<path id="XMLID_1869_" fill="#FBDBED" d="M19.111,18.192c1.075,0.4,2.186,0.812,3.009,1.5c0.769,0.646,1.204,1.459,1.316,2.473
			c0.358-0.188,0.751-0.372,1.155-0.525c-0.402-3.047-5.384-4.821-4.518-8.745c0,0-2.563,1.581-2.207,4.816
			C18.267,17.878,18.686,18.035,19.111,18.192z"/>
		<path id="XMLID_1868_" fill="#FFFFFF" d="M28.505,23.344c-0.217-0.097-0.207-0.335-0.309-0.585
			c-0.75-1.823-3.197-0.968-5.081,0.132c-0.046,0.026-0.091,0.055-0.136,0.084c0.253-5.274-7.299-3.27-8.497-8.022
			c0,0-2.635,4.26,2.682,7.655c0.811,0.52,1.394,1.482,1.277,2.463c-0.499,4.16-8.981,1.111-9.366-5.79
			c-0.313-5.632,4.575-9.943,10.38-9.943c3.825,0,7.173,2.044,9.012,5.098c-1.756-4.008-5.758-6.809-10.416-6.809
			c-6.276,0-11.365,5.088-11.365,11.366c0,6.275,5.089,11.365,11.365,11.365c0.139,0,0.276-0.004,0.413-0.01
			c1.779,0.07,3.678-0.308,5.325-1.629c1.943-1.557,1.557-3.482,3.337-4.523c0.504-0.297,1.164-0.553,2.248-0.295
			C29.374,23.898,29.186,23.648,28.505,23.344z"/>
		<path id="XMLID_1866_" fill="#00A8C9" d="M14.069,21.283"/>
	</g>
</g>
<g>
	<path fill="#FFFFFF" d="M43.867,21.829V6.943h9.406v2.75h-6.509v3.674h5.795v2.667h-5.774v5.795H43.867z"/>
	<path fill="#FFFFFF" d="M69.421,21.829V11.394l-4.283,10.435h-2.414L58.44,11.478v10.351h-2.771V6.943h3.821l4.472,10.75
		l4.367-10.75h3.946v14.886H69.421z"/>
	<path fill="#FFFFFF" d="M82.442,6.628c4.054,0,7.664,2.96,7.664,7.769c0,4.787-3.61,7.748-7.664,7.748
		c-4.03,0-7.644-2.961-7.644-7.748C74.8,9.588,78.412,6.628,82.442,6.628z M82.442,19.331c2.312,0,4.662-1.596,4.662-4.956
		c0-3.359-2.353-4.955-4.662-4.955c-2.288,0-4.64,1.596-4.64,4.955C77.803,17.735,80.154,19.331,82.442,19.331z"/>
	<path fill="#FFFFFF" d="M95.212,21.829h-2.793v-10.33h2.709v1.281c0.629-1.071,1.869-1.554,2.98-1.554
		c2.563,0,3.737,1.827,3.737,4.094v6.509h-2.793v-6.026c0-1.155-0.566-2.058-1.91-2.058c-1.218,0-1.933,0.945-1.933,2.142v5.942
		H95.212z"/>
	<path fill="#FFFFFF" d="M113.942,18.868c-0.524,1.784-2.162,3.274-4.703,3.274c-2.834,0-5.333-2.035-5.333-5.521
		c0-3.296,2.436-5.438,5.081-5.438c3.191,0,5.103,2.037,5.103,5.354c0,0.398-0.041,0.818-0.041,0.861h-7.391
		c0.063,1.365,1.217,2.352,2.604,2.352c1.301,0,2.016-0.651,2.352-1.575L113.942,18.868z M111.339,15.488
		c-0.043-1.029-0.715-2.037-2.311-2.037c-1.447,0-2.246,1.092-2.31,2.037H111.339z"/>
	<path fill="#FFFFFF" d="M119.934,10.504l2.851,4.332h-2.043l-1.873-2.998l-1.884,2.998h-1.983l2.853-4.344l-2.839-4.332h2.031
		l1.859,2.998l1.896-2.998h1.971L119.934,10.504z"/>
</g>
<line fill="none" x1="66" y1="27" x2="68.5" y2="27"/>
<g>
	<path fill="#FFFFFF" d="M44.917,26.012v0.512h0.904v0.808h-0.904v3.087h-0.936V27.33h-0.68v-0.807h0.68v-0.537
		c0-0.871,0.56-1.398,1.359-1.398c0.232,0,0.424,0.049,0.488,0.08v0.792c-0.056-0.017-0.16-0.04-0.336-0.04
		C45.245,25.42,44.917,25.531,44.917,26.012z"/>
	<path fill="#FFFFFF" d="M46.566,30.417v-3.894h0.888v0.496c0.224-0.4,0.711-0.608,1.151-0.608c0.512,0,0.959,0.231,1.167,0.688
		c0.304-0.513,0.759-0.688,1.263-0.688c0.704,0,1.375,0.448,1.375,1.479v2.525h-0.896v-2.374c0-0.457-0.232-0.801-0.751-0.801
		c-0.488,0-0.808,0.385-0.808,0.864v2.311h-0.912v-2.374c0-0.448-0.224-0.801-0.751-0.801c-0.496,0-0.808,0.368-0.808,0.864v2.311
		L46.566,30.417L46.566,30.417z"/>
	<path fill="#FFFFFF" d="M57.284,28.466c0,1.2-0.855,2.071-2.023,2.071c-1.159,0-2.015-0.871-2.015-2.071
		c0-1.19,0.855-2.063,2.015-2.063C56.428,26.402,57.284,27.275,57.284,28.466z M56.348,28.466c0-0.808-0.512-1.224-1.087-1.224
		c-0.567,0-1.087,0.416-1.087,1.224s0.52,1.239,1.087,1.239C55.836,29.705,56.348,29.281,56.348,28.466z"/>
	<path fill="#FFFFFF" d="M59.109,30.417h-0.928v-3.894h0.903v0.52c0.256-0.447,0.72-0.632,1.151-0.632
		c0.952,0,1.407,0.688,1.407,1.543v2.463h-0.928v-2.303c0-0.479-0.216-0.863-0.799-0.863c-0.528,0-0.808,0.407-0.808,0.919v2.247
		H59.109z"/>
	<path fill="#FFFFFF" d="M66.22,29.307c-0.208,0.68-0.823,1.23-1.76,1.23c-1.056,0-1.99-0.768-1.99-2.087
		c0-1.231,0.91-2.048,1.895-2.048c1.199,0,1.903,0.793,1.903,2.022c0,0.152-0.017,0.28-0.024,0.296h-2.846
		c0.023,0.592,0.486,1.016,1.063,1.016c0.561,0,0.848-0.295,0.977-0.68L66.22,29.307z M65.332,28.043
		c-0.016-0.457-0.318-0.863-0.959-0.863c-0.584,0-0.92,0.447-0.951,0.863H65.332z"/>
	<path fill="#FFFFFF" d="M67.638,29.162c0.359,0,0.654,0.295,0.654,0.654c0,0.36-0.295,0.647-0.654,0.647
		c-0.36,0-0.646-0.287-0.646-0.647C66.992,29.457,67.277,29.162,67.638,29.162z"/>
	<path fill="#FFFFFF" d="M73.02,28.466c0,1.2-0.854,2.071-2.022,2.071c-1.16,0-2.016-0.871-2.016-2.071
		c0-1.19,0.855-2.063,2.016-2.063C72.164,26.402,73.02,27.275,73.02,28.466z M72.083,28.466c0-0.808-0.512-1.224-1.088-1.224
		c-0.566,0-1.086,0.416-1.086,1.224s0.52,1.239,1.086,1.239C71.572,29.705,72.083,29.281,72.083,28.466z"/>
	<path fill="#FFFFFF" d="M76.196,27.441c-0.104-0.016-0.208-0.023-0.305-0.023c-0.72,0-1.047,0.416-1.047,1.145v1.854h-0.929v-3.894
		h0.903v0.623c0.185-0.424,0.616-0.672,1.128-0.672c0.111,0,0.208,0.017,0.248,0.023L76.196,27.441L76.196,27.441z"/>
	<path fill="#FFFFFF" d="M77.509,30.409c0.064,0.479,0.439,0.839,0.976,0.839c0.736,0,1.104-0.375,1.104-1.167v-0.407
		c-0.168,0.303-0.561,0.567-1.127,0.567c-1.041,0-1.799-0.8-1.799-1.896c0-1.038,0.728-1.895,1.799-1.895
		c0.606,0,0.982,0.248,1.15,0.567v-0.496h0.896v3.525c0,1.04-0.536,2.008-2,2.008c-1.03,0-1.75-0.641-1.854-1.424L77.509,30.409z
		 M79.612,28.346c0-0.662-0.424-1.095-1-1.095c-0.591,0-1.015,0.433-1.015,1.095c0,0.68,0.406,1.104,1.015,1.104
		C79.205,29.449,79.612,29.018,79.612,28.346z"/>
</g>
</svg>
