<?xml version="1.0" encoding="utf-8"?>
<!-- Generator: Adobe Illustrator 16.0.0, SVG Export Plug-In . SVG Version: 6.00 Build 0)  -->
<!DOCTYPE svg PUBLIC "-//W3C//DTD SVG 1.1//EN" "http://www.w3.org/Graphics/SVG/1.1/DTD/svg11.dtd">
<svg version="1.1"
	 id="Layer_1" xmlns:inkscape="http://www.inkscape.org/namespaces/inkscape" xmlns:sodipodi="http://sodipodi.sourceforge.net/DTD/sodipodi-0.dtd" xmlns:dc="http://purl.org/dc/elements/1.1/" xmlns:cc="http://creativecommons.org/ns#" xmlns:rdf="http://www.w3.org/1999/02/22-rdf-syntax-ns#" xmlns:svg="http://www.w3.org/2000/svg" sodipodi:docname="how tor works.svg" inkscape:version="1.0.1 (3bc2e813f5, 2020-09-07)"
	 xmlns="http://www.w3.org/2000/svg" xmlns:xlink="http://www.w3.org/1999/xlink" x="0px" y="0px" width="712.875px" height="400px"
	 viewBox="171.5 0 712.875 400" enable-background="new 171.5 0 712.875 400" xml:space="preserve">
<defs>
	
	<inkscape:path-effect  is_visible="true" effect="spiro" id="path-effect5025"></inkscape:path-effect>
	<inkscape:path-effect  is_visible="true" effect="spiro" id="path-effect5021"></inkscape:path-effect>
	
		<inkscape:path-effect  weight="33.333333" is_visible="true" apply_no_weight="true" only_selected="false" steps="2" effect="bspline" helper_size="0" id="path-effect5017" apply_with_weight="true">
		</inkscape:path-effect>
	<inkscape:path-effect  is_visible="true" effect="spiro" id="path-effect5011"></inkscape:path-effect>
	<inkscape:path-effect  is_visible="true" effect="spiro" id="path-effect5007"></inkscape:path-effect>
	<inkscape:path-effect  is_visible="true" effect="spiro" id="path-effect5003"></inkscape:path-effect>
</defs>
<sodipodi:namedview  pagecolor="#ffffff" bordercolor="#666666" borderopacity="1" objecttolerance="10" gridtolerance="10" guidetolerance="10" inkscape:cy="218.13256" showgrid="false" fit-margin-top="0" inkscape:cx="528.90659" fit-margin-left="0" inkscape:zoom="1" id="namedview15" inkscape:document-rotation="0" inkscape:current-layer="g5205" inkscape:window-maximized="1" inkscape:window-y="-8" inkscape:window-x="-8" fit-margin-bottom="0" fit-margin-right="0" inkscape:window-height="1017" inkscape:window-width="1920" inkscape:pageshadow="2" inkscape:pageopacity="0">
	</sodipodi:namedview>
<g id="g4449" transform="matrix(2.5614665,0,0,3.1125975,640.8941,-2915.6981)" opacity="0.1">
	<path id="path2844" fill="#FF4AF9" stroke="#FF4AF9" d="M-24.554,977.214c0,13.529-13.794,24.496-30.81,24.496
		c-17.016,0-30.81-10.967-30.81-24.496s13.794-24.496,30.81-24.496C-38.348,952.718-24.554,963.685-24.554,977.214z"/>
	<path id="path2844-3" fill="#FF4AF9" stroke="#FF4AF9" d="M-25.924,978.058c0,13.43-13.234,24.317-29.56,24.317
		c-16.326,0-29.56-10.887-29.56-24.317s13.234-24.318,29.56-24.318C-39.158,953.74-25.924,964.628-25.924,978.058z"/>
	<path id="path2844-9" fill="#FF4AF9" stroke="#FF4AF9" d="M-23.291,1008.276c0,12.274-11.193,22.223-25.001,22.223
		c-13.808,0-25.001-9.949-25.001-22.223c0-12.274,11.193-22.223,25.001-22.223C-34.484,986.053-23.291,996.003-23.291,1008.276
		L-23.291,1008.276z"/>
	<path id="path2844-5" fill="#FF4AF9" stroke="#FF4AF9" d="M-3.593,991.104c0,12.274-11.194,22.224-25.001,22.224
		s-25.001-9.95-25.001-22.224s11.194-22.223,25.001-22.223S-3.593,978.83-3.593,991.104z"/>
	<path id="path2844-11" fill="#FF4AF9" stroke="#FF4AF9" d="M-59.152,998.175c0,12.274-11.193,22.223-25.001,22.223
		c-13.808,0-25.001-9.95-25.001-22.223s11.193-22.223,25.001-22.223C-70.345,975.952-59.152,985.901-59.152,998.175z"/>
	<path id="path2844-11-1" fill="#FF4AF9" stroke="#FF4AF9" d="M-56.732,999.308c0,12.274-11.473,22.224-25.627,22.224
		c-14.153,0-25.626-9.95-25.626-22.224c0-12.274,11.473-22.223,25.626-22.223C-68.206,977.085-56.732,987.035-56.732,999.308z"/>
	<path id="path2844-1" fill="#FF4AF9" stroke="#FF4AF9" d="M-88.951,1017.62c0,9.902-8.932,17.93-19.951,17.93
		c-11.018,0-19.951-8.028-19.951-17.93s8.932-17.93,19.951-17.93C-97.883,999.69-88.951,1007.718-88.951,1017.62z"/>
	<path id="path2844-1-76" fill="#FF4AF9" stroke="#FF4AF9" d="M-88.39,1018.047c0,9.305-8.772,16.848-19.593,16.848
		c-10.821,0-19.594-7.543-19.594-16.848c0-9.305,8.772-16.848,19.594-16.848C-97.162,1001.199-88.39,1008.742-88.39,1018.047z"/>
	<path id="path2844-5-4" fill="#FF4AF9" stroke="#FF4AF9" d="M-3.161,993.237c0,12.865-11.393,23.295-25.448,23.295
		c-14.054,0-25.447-10.429-25.447-23.295c0-12.865,11.393-23.295,25.447-23.295C-14.554,969.942-3.161,980.371-3.161,993.237z"/>
	<path id="path2844-2" fill="#FF4AF9" stroke="#FF4AF9" d="M21.156,998.68c0,12.274-11.193,22.224-25.001,22.224
		c-13.808,0-25.001-9.95-25.001-22.224c0-12.273,11.193-22.223,25.001-22.223C9.962,976.457,21.156,986.407,21.156,998.68z"/>
	<path id="path2844-2-2" fill="#FF4AF9" stroke="#FF4AF9" d="M20.411,998.594c0,11.583-11.274,20.973-25.18,20.973
		c-13.907,0-25.18-9.39-25.18-20.973s11.274-20.973,25.18-20.973C9.137,977.62,20.411,987.01,20.411,998.594z"/>
	<path id="path2844-1-7" fill="#FF4AF9" stroke="#FF4AF9" d="M-87.436,1032.015c0,6.555-5.201,11.869-11.617,11.869
		c-6.416,0-11.617-5.314-11.617-11.869c0-6.555,5.201-11.869,11.617-11.869C-92.637,1020.146-87.436,1025.46-87.436,1032.015z"/>
	<path id="path2844-1-7-2" fill="#FF4AF9" stroke="#FF4AF9" d="M-87.081,1031.272c0,6.457-5.121,11.691-11.438,11.691
		c-6.317,0-11.438-5.234-11.438-11.691s5.121-11.691,11.438-11.691C-92.202,1019.582-87.081,1024.816-87.081,1031.272z"/>
	<path id="path2844-4" fill="#FF4AF9" stroke="#FF4AF9" d="M-45.01,1028.479c0,12.274-11.193,22.224-25.001,22.224
		c-13.808,0-25.001-9.95-25.001-22.224c0-12.273,11.194-22.223,25.001-22.223S-45.01,1016.206-45.01,1028.479z"/>
	<path id="path2844-4-2" fill="#FF4AF9" stroke="#FF4AF9" d="M-44.873,1027.902c0,12.015-10.93,21.754-24.413,21.754
		c-13.483,0-24.413-9.739-24.413-21.754c0-12.014,10.93-21.754,24.413-21.754C-55.803,1006.149-44.873,1015.888-44.873,1027.902z"/>
	<path id="path2844-8" fill="#FF4AF9" stroke="#FF4AF9" d="M10.044,1018.378c0,12.273-11.194,22.224-25.001,22.224
		s-25.001-9.95-25.001-22.224c0-12.274,11.194-22.223,25.001-22.223S10.044,1006.105,10.044,1018.378L10.044,1018.378z"/>
	<path id="path2844-8-1" fill="#FF4AF9" stroke="#FF4AF9" d="M8.714,1018.103c0,11.805-11.213,21.375-25.046,21.375
		s-25.046-9.57-25.046-21.375c0-11.805,11.213-21.375,25.046-21.375S8.714,1006.298,8.714,1018.103L8.714,1018.103z"/>
	<path id="path2844-1-7-6" fill="#FF4AF9" stroke="#FF4AF9" d="M-38.39,1046.323c-7.972,1.318-15.502-3.805-16.82-11.443
		c-1.318-7.638,4.076-14.898,12.048-16.217c7.972-1.318,15.502,3.805,16.82,11.443C-25.024,1037.745-30.418,1045.005-38.39,1046.323
		z"/>
	<path id="path2844-1-7-6-5" fill="#FF4AF9" stroke="#FF4AF9" d="M-38.08,1044.926c-7.838,1.318-15.242-3.805-16.538-11.443
		c-1.295-7.638,4.008-14.898,11.845-16.217c7.838-1.318,15.242,3.805,16.538,11.443
		C-24.939,1036.348-30.242,1043.608-38.08,1044.926z"/>
</g>
<path id="path5037" sodipodi:nodetypes="cc" inkscape:connector-curvature="0" fill="none" stroke="#33FF00" stroke-width="12.2569" d="
	M300.64,125.431c50.927,15.37,106.438-44.713,181.974-43.698"/>
<path id="path5039" sodipodi:nodetypes="cc" inkscape:connector-curvature="0" fill="none" stroke="#33FF00" stroke-width="11.7681" d="
	M384.368,209.889c4.256-84.629,116.502-38.545,128.665-99.081"/>
<path id="path4-4" inkscape:connector-curvature="0" fill="#3B4652" d="M545.38,36.83h-62.327c-2.101,0-3.808,1.708-3.808,3.807
	v13.659c0,2.1,1.707,3.807,3.808,3.807h29.789v6.417h-29.789c-2.101,0-3.808,1.708-3.808,3.808v13.658
	c0,2.1,1.707,3.807,3.808,3.807h29.789v6.417h-29.789c-2.101,0-3.808,1.707-3.808,3.807v13.659c0,2.1,1.707,3.807,3.808,3.807
	h29.789v3.532c0.452-0.078,0.903-0.118,1.374-0.118c0.472,0,0.923,0.039,1.374,0.118v-3.532h29.79c2.1,0,3.807-1.708,3.807-3.807
	V96.017c0-2.1-1.707-3.807-3.807-3.807h-29.79v-6.417h29.79c2.1,0,3.807-1.707,3.807-3.807V68.327c0-2.1-1.707-3.808-3.807-3.808
	h-29.79v-6.417h29.79c2.1,0,3.807-1.708,3.807-3.807V40.637C549.187,38.537,547.48,36.83,545.38,36.83z M490.745,104.181h-5.515
	c-0.765,0-1.373-0.608-1.373-1.374s0.608-1.374,1.373-1.374h5.515c0.766,0,1.374,0.608,1.374,1.374S491.511,104.181,490.745,104.181
	z M500.499,104.181h-5.515c-0.766,0-1.374-0.608-1.374-1.374s0.608-1.374,1.374-1.374h5.515c0.765,0,1.373,0.608,1.373,1.374
	S501.264,104.181,500.499,104.181z M538.747,98.372c2.452,0,4.435,1.982,4.435,4.435s-1.982,4.435-4.435,4.435
	c-2.453,0-4.436-1.982-4.436-4.435S536.294,98.372,538.747,98.372z M490.745,76.51h-5.515c-0.765,0-1.373-0.608-1.373-1.374
	c0-0.766,0.608-1.374,1.373-1.374h5.515c0.766,0,1.374,0.608,1.374,1.374C492.119,75.902,491.511,76.51,490.745,76.51z
	 M500.499,76.51h-5.515c-0.766,0-1.374-0.608-1.374-1.374c0-0.766,0.608-1.374,1.374-1.374h5.515c0.765,0,1.373,0.608,1.373,1.374
	C501.872,75.902,501.264,76.51,500.499,76.51z M538.747,70.682c2.452,0,4.435,1.982,4.435,4.436c0,2.453-1.982,4.435-4.435,4.435
	c-2.453,0-4.436-1.982-4.436-4.435C534.312,72.664,536.294,70.682,538.747,70.682z M490.745,48.84h-5.515
	c-0.765,0-1.373-0.608-1.373-1.374c0-0.765,0.608-1.374,1.373-1.374h5.515c0.766,0,1.374,0.608,1.374,1.374
	C492.119,48.232,491.511,48.84,490.745,48.84z M500.499,48.84h-5.515c-0.766,0-1.374-0.608-1.374-1.374
	c0-0.765,0.608-1.374,1.374-1.374h5.515c0.765,0,1.373,0.608,1.373,1.374C501.872,48.232,501.264,48.84,500.499,48.84z
	 M538.747,51.902c-2.453,0-4.436-1.982-4.436-4.436c0-2.453,1.982-4.435,4.436-4.435c2.452,0,4.435,1.982,4.435,4.435
	C543.201,49.919,541.199,51.902,538.747,51.902z"/>
<g id="g4864" transform="matrix(1.2256927,0,0,1.2256927,-139.59762,-154.92161)">
	<path id="path4" inkscape:connector-curvature="0" fill="#1FD0FF" d="M332.601,178.637h-55.062c-3.508,0-6.36,2.852-6.36,6.36
		v33.949h67.804v-33.949C338.961,181.466,336.132,178.637,332.601,178.637L332.601,178.637z"/>
	<path id="path6" inkscape:connector-curvature="0" fill="#3B4652" d="M271.18,225.679c0,3.507,2.852,6.36,6.36,6.36h22.188v14.66
		h-6.242c-0.912,0-1.637,0.725-1.637,1.637c0,0.912,0.725,1.637,1.637,1.637h23.147c0.912,0,1.637-0.725,1.637-1.637
		c0-0.912-0.725-1.637-1.637-1.637h-6.477v-14.66h22.423c3.507,0,6.36-2.852,6.36-6.36v-3.46h-67.805v3.46H271.18z"/>
	<path id="path10" inkscape:connector-curvature="0" fill="#3B4652" d="M374.921,178.613h-23.732c-1.66,0-3.016,1.356-3.016,3.016
		v63.994c0,1.66,1.356,3.016,3.016,3.016h23.755c1.66,0,3.016-1.356,3.016-3.016V181.63
		C377.937,179.97,376.581,178.613,374.921,178.613z M354.369,191.286h17.372v9.586h-17.372V191.286z M363.043,236.598
		c-2.759,0-5.004-2.245-5.004-5.004c0-2.758,2.244-5.003,5.004-5.003c2.759,0,5.004,2.245,5.004,5.003
		C368.047,234.354,365.826,236.598,363.043,236.598z M371.741,208.027h-17.372c-0.912,0-1.637-0.725-1.637-1.637
		c0-0.912,0.725-1.637,1.637-1.637h17.372c0.912,0,1.637,0.725,1.637,1.637C373.378,207.302,372.653,208.027,371.741,208.027z"/>
</g>
<path id="path5041" sodipodi:nodetypes="cc" inkscape:connector-curvature="0" fill="none" stroke="#33FF00" stroke-width="12.2569" d="
	M399.536,248.23c95.112,34.025,49.111,86.069,180.292,75.138"/>
<path id="path4893" inkscape:connector-curvature="0" fill="#3B4652" d="M398.297,208.427H335.97c-2.101,0-3.808,1.707-3.808,3.808
	v13.658c0,2.1,1.707,3.807,3.808,3.807h29.789v6.418H335.97c-2.101,0-3.808,1.707-3.808,3.807v13.658
	c0,2.101,1.707,3.808,3.808,3.808h29.789v6.417H335.97c-2.101,0-3.808,1.707-3.808,3.808v13.658c0,2.101,1.707,3.808,3.808,3.808
	h29.789v3.532c0.452-0.079,0.903-0.118,1.374-0.118s0.923,0.039,1.374,0.118v-3.532h29.79c2.1,0,3.807-1.707,3.807-3.808v-13.658
	c0-2.101-1.707-3.808-3.807-3.808h-29.79v-6.417h29.79c2.1,0,3.807-1.708,3.807-3.808v-13.658c0-2.1-1.707-3.807-3.807-3.807h-29.79
	v-6.418h29.79c2.1,0,3.807-1.707,3.807-3.807v-13.658C402.104,210.134,400.397,208.427,398.297,208.427z M343.662,275.778h-5.515
	c-0.766,0-1.374-0.607-1.374-1.373s0.608-1.374,1.374-1.374h5.515c0.766,0,1.374,0.608,1.374,1.374S344.428,275.778,343.662,275.778
	z M353.415,275.778h-5.514c-0.766,0-1.374-0.607-1.374-1.373s0.608-1.374,1.374-1.374h5.514c0.766,0,1.374,0.608,1.374,1.374
	S354.181,275.778,353.415,275.778z M391.663,269.969c2.453,0,4.436,1.982,4.436,4.436s-1.982,4.436-4.436,4.436
	c-2.452,0-4.435-1.982-4.435-4.436S389.211,269.969,391.663,269.969z M343.662,248.108h-5.515c-0.766,0-1.374-0.608-1.374-1.374
	c0-0.765,0.608-1.374,1.374-1.374h5.515c0.766,0,1.374,0.609,1.374,1.374C345.036,247.499,344.428,248.108,343.662,248.108z
	 M353.415,248.108h-5.514c-0.766,0-1.374-0.608-1.374-1.374c0-0.765,0.608-1.374,1.374-1.374h5.514c0.766,0,1.374,0.609,1.374,1.374
	C354.789,247.499,354.181,248.108,353.415,248.108z M391.663,242.279c2.453,0,4.436,1.981,4.436,4.435s-1.982,4.435-4.436,4.435
	c-2.452,0-4.435-1.981-4.435-4.435S389.211,242.279,391.663,242.279z M343.662,220.437h-5.515c-0.766,0-1.374-0.608-1.374-1.374
	c0-0.765,0.608-1.373,1.374-1.373h5.515c0.766,0,1.374,0.608,1.374,1.373C345.036,219.828,344.428,220.437,343.662,220.437z
	 M353.415,220.437h-5.514c-0.766,0-1.374-0.608-1.374-1.374c0-0.765,0.608-1.373,1.374-1.373h5.514c0.766,0,1.374,0.608,1.374,1.373
	C354.789,219.828,354.181,220.437,353.415,220.437z M391.663,223.498c-2.452,0-4.435-1.982-4.435-4.436s1.982-4.435,4.435-4.435
	c2.453,0,4.436,1.981,4.436,4.435C396.118,221.516,394.116,223.498,391.663,223.498z"/>
<path id="path5043" inkscape:connector-curvature="0" fill="#FFFFFF" stroke="#FF0000" stroke-width="11.4966" stroke-dasharray="22.9933,11.4966" stroke-dashoffset="1" d="
	M646.513,324.006c121.307,13.41,44.188-153.491,133.262-153.943"/>
<path id="path4903" inkscape:connector-curvature="0" fill="#3B4652" d="M644.24,281.969h-62.327c-2.1,0-3.808,1.707-3.808,3.807
	v13.658c0,2.1,1.708,3.808,3.808,3.808h29.79v6.417h-29.79c-2.1,0-3.808,1.707-3.808,3.807v13.659c0,2.1,1.708,3.808,3.808,3.808
	h29.79v6.417h-29.79c-2.1,0-3.808,1.707-3.808,3.808v13.658c0,2.1,1.708,3.807,3.808,3.807h29.79v3.533
	c0.451-0.079,0.902-0.118,1.373-0.118c0.472,0,0.923,0.039,1.374,0.118v-3.533h29.79c2.1,0,3.807-1.707,3.807-3.807v-13.658
	c0-2.101-1.707-3.808-3.807-3.808h-29.79v-6.417h29.79c2.1,0,3.807-1.708,3.807-3.808v-13.659c0-2.1-1.707-3.807-3.807-3.807h-29.79
	v-6.417h29.79c2.1,0,3.807-1.708,3.807-3.808v-13.658C648.047,283.676,646.34,281.969,644.24,281.969z M589.606,349.32h-5.515
	c-0.765,0-1.373-0.608-1.373-1.374s0.608-1.373,1.373-1.373h5.515c0.766,0,1.374,0.607,1.374,1.373S590.371,349.32,589.606,349.32z
	 M599.36,349.32h-5.515c-0.766,0-1.374-0.608-1.374-1.374s0.608-1.373,1.374-1.373h5.515c0.765,0,1.373,0.607,1.373,1.373
	S600.124,349.32,599.36,349.32z M637.608,343.511c2.453,0,4.435,1.981,4.435,4.435s-1.981,4.436-4.435,4.436
	s-4.436-1.982-4.436-4.436S635.155,343.511,637.608,343.511z M589.606,321.649h-5.515c-0.765,0-1.373-0.607-1.373-1.373
	s0.608-1.374,1.373-1.374h5.515c0.766,0,1.374,0.608,1.374,1.374S590.371,321.649,589.606,321.649z M599.36,321.649h-5.515
	c-0.766,0-1.374-0.607-1.374-1.373s0.608-1.374,1.374-1.374h5.515c0.765,0,1.373,0.608,1.373,1.374S600.124,321.649,599.36,321.649z
	 M637.608,315.82c2.453,0,4.435,1.982,4.435,4.436s-1.981,4.435-4.435,4.435s-4.436-1.981-4.436-4.435
	S635.155,315.82,637.608,315.82z M589.606,293.979h-5.515c-0.765,0-1.373-0.608-1.373-1.374c0-0.765,0.608-1.374,1.373-1.374h5.515
	c0.766,0,1.374,0.609,1.374,1.374C590.98,293.37,590.371,293.979,589.606,293.979z M599.36,293.979h-5.515
	c-0.766,0-1.374-0.608-1.374-1.374c0-0.765,0.608-1.374,1.374-1.374h5.515c0.765,0,1.373,0.609,1.373,1.374
	C600.733,293.37,600.124,293.979,599.36,293.979z M637.608,297.039c-2.453,0-4.436-1.981-4.436-4.435s1.982-4.435,4.436-4.435
	s4.435,1.981,4.435,4.435C642.062,295.058,640.061,297.039,637.608,297.039z"/>
<path id="path4913" inkscape:connector-curvature="0" fill="#3B4652" d="M839.546,134.885h-62.327c-2.1,0-3.808,1.708-3.808,3.808
	v13.658c0,2.1,1.708,3.808,3.808,3.808h29.79v6.417h-29.79c-2.1,0-3.808,1.707-3.808,3.807v13.659c0,2.1,1.708,3.807,3.808,3.807
	h29.79v6.417h-29.79c-2.1,0-3.808,1.708-3.808,3.807v13.658c0,2.101,1.708,3.808,3.808,3.808h29.79v3.532
	c0.451-0.078,0.902-0.117,1.374-0.117c0.471,0,0.922,0.039,1.373,0.117v-3.532h29.79c2.1,0,3.808-1.707,3.808-3.808v-13.658
	c0-2.1-1.708-3.807-3.808-3.807h-29.79v-6.417h29.79c2.1,0,3.808-1.708,3.808-3.807v-13.659c0-2.1-1.708-3.807-3.808-3.807h-29.79
	v-6.417h29.79c2.1,0,3.808-1.708,3.808-3.808v-13.658C843.354,136.592,841.646,134.885,839.546,134.885z M784.911,202.237h-5.515
	c-0.765,0-1.373-0.608-1.373-1.374c0-0.765,0.608-1.374,1.373-1.374h5.515c0.766,0,1.374,0.608,1.374,1.374
	C786.285,201.628,785.677,202.237,784.911,202.237z M794.665,202.237h-5.515c-0.766,0-1.374-0.608-1.374-1.374
	c0-0.765,0.608-1.374,1.374-1.374h5.515c0.765,0,1.373,0.608,1.373,1.374C796.038,201.628,795.43,202.237,794.665,202.237z
	 M832.913,196.427c2.453,0,4.435,1.982,4.435,4.435s-1.981,4.436-4.435,4.436s-4.436-1.982-4.436-4.436
	S830.46,196.427,832.913,196.427z M784.911,174.566h-5.515c-0.765,0-1.373-0.608-1.373-1.374c0-0.765,0.608-1.374,1.373-1.374h5.515
	c0.766,0,1.374,0.608,1.374,1.374C786.285,173.958,785.677,174.566,784.911,174.566z M794.665,174.566h-5.515
	c-0.766,0-1.374-0.608-1.374-1.374c0-0.765,0.608-1.374,1.374-1.374h5.515c0.765,0,1.373,0.608,1.373,1.374
	C796.038,173.958,795.43,174.566,794.665,174.566z M832.913,168.737c2.453,0,4.435,1.982,4.435,4.435s-1.981,4.435-4.435,4.435
	s-4.436-1.982-4.436-4.435S830.46,168.737,832.913,168.737z M784.911,146.895h-5.515c-0.765,0-1.373-0.608-1.373-1.374
	s0.608-1.374,1.373-1.374h5.515c0.766,0,1.374,0.608,1.374,1.374S785.677,146.895,784.911,146.895z M794.665,146.895h-5.515
	c-0.766,0-1.374-0.608-1.374-1.374s0.608-1.374,1.374-1.374h5.515c0.765,0,1.373,0.608,1.373,1.374S795.43,146.895,794.665,146.895z
	 M832.913,149.957c-2.453,0-4.436-1.982-4.436-4.435s1.982-4.435,4.436-4.435s4.435,1.982,4.435,4.435
	C837.367,147.975,835.366,149.957,832.913,149.957z"/>
<circle id="circle4915" fill="#1FD0FF" cx="808.383" cy="223.097" r="5.456"/>
<path id="path4917" inkscape:connector-curvature="0" fill="#1FD0FF" d="M837.878,217.642c-2.551,0-4.69,1.747-5.299,4.102
	c-0.059,0-0.117-0.021-0.177-0.021h-15.954c0.078,0.452,0.117,0.903,0.117,1.375c0,0.471-0.039,0.922-0.117,1.373h15.954
	c0.06,0,0.118,0,0.177-0.02c0.608,2.355,2.748,4.102,5.299,4.102c3.022,0,5.456-2.453,5.456-5.455
	C843.354,220.095,840.901,217.642,837.878,217.642z"/>
<path id="path4919" inkscape:connector-curvature="0" fill="#1FD0FF" d="M784.343,221.723c-0.06,0-0.118,0-0.177,0.021
	c-0.608-2.354-2.748-4.102-5.299-4.102c-3.022,0-5.456,2.453-5.456,5.456c0,3.021,2.453,5.455,5.456,5.455
	c2.551,0,4.69-1.746,5.299-4.102c0.059,0,0.117,0.02,0.177,0.02h15.954c-0.078-0.451-0.117-0.902-0.117-1.373
	c0-0.472,0.039-0.923,0.117-1.375H784.343z"/>
<g id="g5009" transform="matrix(0.40747165,0,0,0.40747165,816.95502,-5.4723472)">
	
		<path id="path2554" inkscape:connector-curvature="0" fill="#FF4AF9" fill-opacity="0.9216" stroke="#FF4AF9" stroke-opacity="0.9216" d="
		M-581.431,108.784l-4.916,19.529c6.965-13.793,18.027-24.171,30.73-33.323c-9.289,10.79-17.754,21.579-22.945,32.368
		c8.74-12.291,20.486-19.119,33.733-23.627c-17.618,15.706-31.602,32.56-42.255,49.495l-8.467-3.687
		C-594.049,136.018-588.942,122.169-581.431,108.784z"/>
	<g id="layer4" transform="translate(-32.829031,43.424729)">
		
			<path id="path2538" inkscape:connector-curvature="0" fill="#FF4AF9" fill-opacity="0.9216" stroke="#FF4AF9" stroke-opacity="0.9216" d="
			M-557.889,107.971l12.019,1.639c-3.552,11.745,6.967,19.939,10.38,21.853c7.648,4.234,15.022,8.604,20.896,13.929
			c11.063,10.107,17.344,24.31,17.344,39.334c0,14.885-6.828,29.226-18.301,38.785c-10.79,9.015-25.675,12.839-40.151,12.839
			c-9.016,0-17.074-0.41-25.814-3.279c-19.938-6.691-34.826-23.763-36.055-44.249c-1.093-15.98,2.459-28.134,14.888-40.835
			c6.418-6.693,19.394-14.34,28.271-20.486c4.371-3.004,9.014-11.473,0.137-27.451l1.776-1.366l13.157,8.813l-11.108-4.578
			c0.956,1.365,3.552,7.511,4.098,9.287c1.229,5.052,0.683,9.971-0.41,12.155c-5.599,10.107-15.159,12.838-22.126,18.574
			c-12.29,10.107-25.675,18.164-24.172,45.888c0.683,13.656,11.336,30.319,27.315,38.104c9.014,4.37,19.394,6.145,29.91,6.691
			c9.421,0.41,27.451-5.19,37.282-13.384c10.516-8.739,16.391-21.988,16.391-35.507c0-13.658-5.464-26.633-15.708-35.784
			c-5.872-5.325-15.569-11.745-21.577-15.159c-6.008-3.415-13.522-12.974-11.063-22.125L-557.889,107.971z"/>
		
			<path id="path2540" inkscape:connector-curvature="0" fill="#FF4AF9" fill-opacity="0.9216" stroke="#FF4AF9" stroke-opacity="0.9216" d="
			M-561.575,128.184c-1.229,6.283-2.596,17.618-8.057,21.853c-2.322,1.637-4.645,3.277-7.104,4.916
			c-9.831,6.693-19.667,12.974-24.172,29.09c-0.956,3.414-0.134,7.101,0.685,10.515c2.457,9.833,9.424,20.486,14.885,26.769
			c0,0.273,1.093,0.956,1.093,1.229c4.508,5.327,5.874,6.828,22.943,10.652l-0.41,1.913c-10.243-2.731-18.711-5.189-24.036-11.336
			c0-0.135-0.956-1.093-0.956-1.093c-5.735-6.556-12.702-17.481-15.295-27.724c-0.956-4.097-1.776-7.238-0.683-11.473
			c4.642-16.66,14.749-23.217,24.992-30.182c2.322-1.502,5.052-2.869,7.238-4.644C-566.219,145.528-563.897,135.968-561.575,128.184
			z"/>
		
			<path id="path2542" inkscape:connector-curvature="0" fill="#FF4AF9" fill-opacity="0.9216" stroke="#FF4AF9" stroke-opacity="0.9216" d="
			M-557.208,154.131c0.137,7.102-0.556,10.665,1.22,15.72c1.09,3.004,4.781,7.101,5.874,11.062c1.503,5.328,3.14,11.199,3.001,14.75
			c0,4.098-0.256,11.742-2.032,19.938c-1.352,6.772-4.472,12.581-9.718,15.875c-5.373-1.106-11.681-2.996-15.406-6.187
			c-7.238-6.283-13.649-16.787-14.469-25.939c-0.683-7.51,6.272-18.588,15.969-24.187c8.194-4.78,10.099-10.228,11.875-18.968
			c-2.459,7.648-4.767,14.059-12.688,18.156c-11.473,6.008-17.359,16.096-16.812,25.656c0.817,12.291,5.74,20.62,15.437,27.312
			c4.098,2.869,11.751,5.899,16.532,6.719v-0.624c3.624-0.679,8.316-6.633,10.656-14.688c2.049-7.238,2.857-16.502,2.718-22.375
			c-0.137-3.414-1.642-10.808-4.374-17.5c-1.503-3.687-3.808-7.373-5.313-9.969C-556.376,166.284-556.388,160.687-557.208,154.131z"
			/>
		
			<path id="path2544" inkscape:connector-curvature="0" fill="#FF4AF9" fill-opacity="0.9216" stroke="#FF4AF9" stroke-opacity="0.9216" d="
			M-558.02,180.912c0.137,4.78,2.056,10.905,2.876,17.189c0.683,4.643,0.386,9.307,0.249,13.406
			c-0.134,4.743-1.714,13.243-3.875,17.375c-2.037-0.934-2.833-1.999-4.156-3.718c-1.637-2.322-2.751-4.644-3.844-7.375
			c-0.817-2.049-1.776-4.394-2.186-7.125c-0.547-4.097-0.393-10.507,4.249-17.063c3.552-5.19,4.364-5.584,5.594-11.594
			c-1.639,5.327-2.864,5.869-6.687,10.375c-4.235,4.917-4.939,12.159-4.939,18.031c0,2.459,0.983,5.188,1.939,7.782
			c1.09,2.732,2.03,5.451,3.53,7.499c2.258,3.322,5.148,5.21,6.562,5.563c0.01,0.002,0.024-0.001,0.031,0
			c0.031,0.007,0.065,0.026,0.093,0.031v-0.156c2.651-2.954,4.247-5.89,4.784-8.844c0.681-3.551,0.839-7.11,1.249-11.343
			c0.41-3.552,0.113-8.334-0.844-13.251C-554.759,191.548-557.064,185.281-558.02,180.912z"/>
		
			<path id="path2550" inkscape:connector-curvature="0" fill="#FF4AF9" fill-opacity="0.9216" stroke="#FF4AF9" stroke-opacity="0.9216" d="
			M-557.615,122.448c0.139,7.101,0.683,20.35,2.596,25.54c0.546,1.775,5.599,9.56,9.15,18.983c2.459,6.556,3.003,12.564,3.415,14.34
			c1.637,7.784-0.412,20.896-3.144,33.324c-1.364,6.691-6.008,15.022-11.334,18.301l-1.093,1.911
			c3.005-0.137,10.38-7.375,12.975-16.388c4.369-15.297,6.145-22.398,4.098-39.334c-0.273-1.639-0.956-7.238-3.552-13.247
			c-3.825-9.152-9.287-17.891-9.97-19.667C-555.703,143.343-557.342,130.915-557.615,122.448z"/>
		
			<path id="path2552" inkscape:connector-curvature="0" fill="#FF4AF9" fill-opacity="0.9216" stroke="#FF4AF9" stroke-opacity="0.9216" d="
			M-555.051,112.735c-0.407,7.298-0.515,9.986,0.851,15.312c1.503,5.873,9.15,14.339,12.292,24.037
			c6.008,18.574,4.506,42.883,0.134,61.867c-1.637,6.69-9.424,16.388-17.208,19.529l5.738,1.366
			c3.14-0.138,11.197-7.649,14.339-16.253c5.052-13.521,6.008-29.636,3.959-46.57c-0.137-1.639-2.869-16.253-5.462-22.399
			c-3.688-9.149-10.243-17.344-10.926-19.118C-552.561,127.501-555.259,121.262-555.051,112.735z"/>
		
			<rect id="rect2556" x="-559.394" y="107.599" fill="#FF4AF9" fill-opacity="0.9216" stroke="#FF4AF9" stroke-opacity="0.9216" width="0.551" height="126.019"/>
	</g>
</g>
<g id="g4969" transform="matrix(0.40747165,0,0,0.40747165,607.4267,236.32821)">
	
		<path id="path4951" inkscape:connector-curvature="0" fill="#FF4AF9" fill-opacity="0.9216" stroke="#FF4AF9" stroke-opacity="0.9216" d="
		M-581.431,108.784l-4.916,19.53c6.965-13.793,18.028-24.172,30.73-33.323c-9.287,10.787-17.754,21.579-22.945,32.367
		c8.741-12.29,20.486-19.12,33.733-23.626c-17.618,15.708-31.602,32.561-42.255,49.495l-8.467-3.688
		C-594.049,136.019-588.942,122.171-581.431,108.784z"/>
	<g id="g4967" transform="translate(-32.829031,43.424729)">
		
			<path id="path4953" inkscape:connector-curvature="0" fill="#FF4AF9" fill-opacity="0.9216" stroke="#FF4AF9" stroke-opacity="0.9216" d="
			M-557.889,107.971l12.019,1.639c-3.552,11.743,6.967,19.94,10.38,21.853c7.648,4.232,15.022,8.604,20.896,13.929
			c11.063,10.104,17.344,24.309,17.344,39.334c0,14.885-6.828,29.225-18.301,38.785c-10.79,9.014-25.675,12.839-40.151,12.839
			c-9.016,0-17.074-0.41-25.814-3.279c-19.938-6.691-34.826-23.763-36.053-44.252c-1.095-15.976,2.457-28.132,14.885-40.834
			c6.418-6.691,19.394-14.339,28.271-20.486c4.372-3.005,9.014-11.473,0.137-27.451l1.776-1.366l13.157,8.815l-11.108-4.58
			c0.956,1.366,3.552,7.513,4.098,9.287c1.229,5.052,0.683,9.97-0.41,12.156c-5.599,10.107-15.159,12.836-22.123,18.574
			c-12.292,10.104-25.678,18.164-24.175,45.886c0.683,13.658,11.336,30.322,27.315,38.107c9.014,4.371,19.394,6.145,29.91,6.691
			c9.421,0.41,27.451-5.191,37.282-13.383c10.516-8.743,16.391-21.989,16.391-35.509c0-13.658-5.464-26.631-15.708-35.784
			c-5.872-5.325-15.569-11.746-21.577-15.159c-6.008-3.415-13.522-12.975-11.063-22.126L-557.889,107.971z"/>
		
			<path id="path4955" inkscape:connector-curvature="0" fill="#FF4AF9" fill-opacity="0.9216" stroke="#FF4AF9" stroke-opacity="0.9216" d="
			M-561.575,128.184c-1.229,6.284-2.596,17.618-8.057,21.853c-2.322,1.637-4.645,3.279-7.101,4.915
			c-9.833,6.694-19.669,12.973-24.175,29.088c-0.956,3.418-0.134,7.104,0.685,10.516c2.457,9.833,9.421,20.486,14.886,26.77
			c0,0.273,1.093,0.954,1.093,1.227c4.508,5.33,5.872,6.83,22.943,10.653l-0.41,1.915c-10.243-2.732-18.708-5.191-24.036-11.336
			c0-0.139-0.956-1.093-0.956-1.093c-5.735-6.557-12.702-17.481-15.295-27.724c-0.956-4.098-1.776-7.238-0.683-11.475
			c4.642-16.661,14.749-23.216,24.992-30.181c2.322-1.503,5.052-2.869,7.238-4.645
			C-566.219,145.529-563.897,135.969-561.575,128.184z"/>
		
			<path id="path4957" inkscape:connector-curvature="0" fill="#FF4AF9" fill-opacity="0.9216" stroke="#FF4AF9" stroke-opacity="0.9216" d="
			M-557.208,154.13c0.137,7.104-0.556,10.665,1.22,15.72c1.091,3.003,4.781,7.101,5.874,11.063c1.503,5.328,3.137,11.2,3.001,14.751
			c0,4.098-0.256,11.741-2.032,19.935c-1.352,6.773-4.472,12.582-9.718,15.875c-5.373-1.107-11.681-2.996-15.406-6.188
			c-7.238-6.279-13.649-16.786-14.469-25.936c-0.683-7.511,6.272-18.588,15.969-24.187c8.194-4.779,10.099-10.229,11.875-18.969
			c-2.459,7.648-4.767,14.061-12.688,18.157c-11.473,6.008-17.359,16.096-16.812,25.656c0.82,12.29,5.74,20.621,15.437,27.312
			c4.098,2.869,11.751,5.901,16.532,6.72v-0.628c3.624-0.676,8.319-6.632,10.655-14.687c2.049-7.238,2.857-16.501,2.72-22.375
			c-0.139-3.413-1.644-10.809-4.376-17.5c-1.503-3.686-3.811-7.372-5.313-9.968C-556.376,166.286-556.388,160.687-557.208,154.13z"
			/>
		
			<path id="path4959" inkscape:connector-curvature="0" fill="#FF4AF9" fill-opacity="0.9216" stroke="#FF4AF9" stroke-opacity="0.9216" d="
			M-558.02,180.913c0.137,4.781,2.056,10.905,2.876,17.186c0.683,4.645,0.386,9.309,0.249,13.407
			c-0.134,4.745-1.716,13.244-3.875,17.376c-2.035-0.935-2.833-1.999-4.156-3.72c-1.637-2.32-2.751-4.645-3.844-7.374
			c-0.817-2.049-1.776-4.393-2.186-7.125c-0.546-4.096-0.393-10.507,4.249-17.062c3.552-5.189,4.364-5.587,5.594-11.593
			c-1.639,5.325-2.862,5.867-6.687,10.373c-4.235,4.918-4.939,12.161-4.939,18.032c0,2.459,0.98,5.186,1.939,7.779
			c1.09,2.732,2.028,5.455,3.53,7.501c2.258,3.322,5.148,5.21,6.562,5.563c0.01,0.002,0.024-0.002,0.031,0
			c0.031,0.007,0.067,0.026,0.096,0.031v-0.156c2.648-2.955,4.244-5.888,4.779-8.844c0.685-3.552,0.841-7.111,1.251-11.343
			c0.41-3.552,0.113-8.336-0.844-13.251C-554.761,191.547-557.064,185.282-558.02,180.913L-558.02,180.913z"/>
		
			<path id="path4961" inkscape:connector-curvature="0" fill="#FF4AF9" fill-opacity="0.9216" stroke="#FF4AF9" stroke-opacity="0.9216" d="
			M-557.615,122.447c0.139,7.104,0.683,20.352,2.596,25.539c0.546,1.776,5.599,9.563,9.15,18.986
			c2.459,6.555,3.003,12.563,3.413,14.337c1.639,7.787-0.41,20.899-3.142,33.325c-1.364,6.694-6.008,15.025-11.334,18.301
			l-1.093,1.912c3.005-0.137,10.38-7.374,12.975-16.391c4.371-15.295,6.145-22.397,4.098-39.331
			c-0.273-1.642-0.956-7.238-3.552-13.249c-3.825-9.15-9.287-17.891-9.97-19.667C-555.703,143.343-557.342,130.916-557.615,122.447z
			"/>
		
			<path id="path4963" inkscape:connector-curvature="0" fill="#FF4AF9" fill-opacity="0.9216" stroke="#FF4AF9" stroke-opacity="0.9216" d="
			M-555.051,112.736c-0.405,7.298-0.515,9.984,0.851,15.31c1.503,5.874,9.15,14.341,12.292,24.038
			c6.008,18.574,4.506,42.885,0.134,61.867c-1.637,6.691-9.424,16.388-17.208,19.528l5.738,1.366
			c3.14-0.134,11.197-7.645,14.339-16.249c5.052-13.522,6.008-29.637,3.959-46.571c-0.137-1.639-2.869-16.254-5.462-22.399
			c-3.688-9.15-10.243-17.344-10.926-19.12C-552.561,127.501-555.259,121.263-555.051,112.736z"/>
		
			<rect id="rect4965" x="-559.394" y="107.6" fill="#FF4AF9" fill-opacity="0.9216" stroke="#FF4AF9" stroke-opacity="0.9216" width="0.551" height="126.018"/>
	</g>
</g>
<g id="g4997" transform="matrix(0.40747165,0,0,0.40747165,854.06756,166.19857)">
	
		<path id="path4979" inkscape:connector-curvature="0" fill="#FF4AF9" fill-opacity="0.9216" stroke="#FF4AF9" stroke-opacity="0.9216" d="
		M-581.429,108.785l-4.918,19.528c6.965-13.793,18.028-24.172,30.73-33.323c-9.287,10.79-17.754,21.579-22.945,32.369
		c8.743-12.292,20.486-19.12,33.735-23.628c-17.62,15.705-31.604,32.558-42.255,49.495l-8.467-3.688
		C-594.049,136.018-588.942,122.168-581.429,108.785z"/>
	<g id="g4995" transform="translate(-32.829031,43.424729)">
		
			<path id="path4981" inkscape:connector-curvature="0" fill="#FF4AF9" fill-opacity="0.9216" stroke="#FF4AF9" stroke-opacity="0.9216" d="
			M-557.887,107.97l12.017,1.639c-3.549,11.746,6.967,19.938,10.38,21.852c7.648,4.235,15.025,8.604,20.896,13.929
			c11.063,10.107,17.344,24.309,17.344,39.334c0,14.885-6.828,29.227-18.301,38.785c-10.787,9.016-25.675,12.839-40.151,12.839
			c-9.014,0-17.074-0.41-25.812-3.279c-19.94-6.691-34.825-23.763-36.055-44.249c-1.093-15.981,2.457-28.134,14.885-40.834
			c6.418-6.694,19.394-14.341,28.273-20.486c4.369-3.005,9.014-11.475,0.134-27.451l1.776-1.366l13.158,8.81l-11.108-4.578
			c0.956,1.366,3.552,7.511,4.098,9.289c1.229,5.052,0.683,9.97-0.41,12.153c-5.599,10.107-15.159,12.839-22.123,18.574
			c-12.292,10.107-25.678,18.164-24.175,45.888c0.683,13.656,11.336,30.317,27.314,38.104c9.014,4.369,19.394,6.145,29.91,6.691
			c9.424,0.41,27.451-5.189,37.285-13.385c10.514-8.738,16.388-21.987,16.388-35.506c0-13.658-5.462-26.634-15.705-35.784
			c-5.874-5.325-15.569-11.744-21.579-15.159c-6.008-3.415-13.519-12.973-11.063-22.123L-557.887,107.97z"/>
		
			<path id="path4983" inkscape:connector-curvature="0" fill="#FF4AF9" fill-opacity="0.9216" stroke="#FF4AF9" stroke-opacity="0.9216" d="
			M-561.575,128.184c-1.229,6.282-2.593,17.618-8.057,21.853c-2.322,1.637-4.645,3.276-7.101,4.915
			c-9.833,6.691-19.667,12.975-24.172,29.09c-0.956,3.413-0.137,7.101,0.683,10.516c2.459,9.831,9.424,20.486,14.885,26.768
			c0,0.273,1.093,0.956,1.093,1.229c4.508,5.325,5.874,6.828,22.945,10.651l-0.41,1.913c-10.243-2.73-18.711-5.186-24.038-11.336
			c0-0.134-0.956-1.093-0.956-1.093c-5.735-6.555-12.702-17.481-15.295-27.724c-0.956-4.096-1.776-7.238-0.683-11.47
			c4.642-16.661,14.749-23.219,24.992-30.183c2.322-1.5,5.054-2.869,7.238-4.645C-566.217,145.528-563.897,135.968-561.575,128.184z
			"/>
		
			<path id="path4985" inkscape:connector-curvature="0" fill="#FF4AF9" fill-opacity="0.9216" stroke="#FF4AF9" stroke-opacity="0.9216" d="
			M-557.206,154.132c0.137,7.101-0.556,10.665,1.218,15.717c1.093,3.005,4.781,7.104,5.874,11.063
			c1.503,5.328,3.14,11.199,3.001,14.749c0,4.098-0.256,11.744-2.03,19.94c-1.354,6.771-4.474,12.58-9.721,15.875
			c-5.373-1.107-11.681-2.996-15.406-6.188c-7.238-6.284-13.649-16.786-14.469-25.939c-0.681-7.509,6.272-18.588,15.969-24.187
			c8.194-4.781,10.099-10.226,11.875-18.969c-2.459,7.65-4.767,14.059-12.688,18.157c-11.473,6.008-17.359,16.096-16.812,25.656
			c0.82,12.292,5.742,20.618,15.437,27.312c4.098,2.869,11.753,5.898,16.532,6.718v-0.623c3.626-0.681,8.319-6.634,10.655-14.687
			c2.049-7.238,2.857-16.503,2.72-22.375c-0.137-3.415-1.644-10.809-4.376-17.5c-1.5-3.688-3.808-7.374-5.311-9.97
			C-556.374,166.283-556.386,160.687-557.206,154.132z"/>
		
			<path id="path4987" inkscape:connector-curvature="0" fill="#FF4AF9" fill-opacity="0.9216" stroke="#FF4AF9" stroke-opacity="0.9216" d="
			M-558.019,180.912c0.134,4.779,2.054,10.905,2.874,17.189c0.685,4.645,0.388,9.309,0.249,13.407
			c-0.134,4.741-1.714,13.241-3.873,17.373c-2.037-0.932-2.833-1.999-4.158-3.717c-1.637-2.325-2.749-4.645-3.842-7.377
			c-0.82-2.047-1.778-4.393-2.188-7.123c-0.546-4.098-0.393-10.507,4.249-17.064c3.552-5.191,4.364-5.584,5.594-11.595
			c-1.639,5.328-2.862,5.872-6.687,10.377c-4.232,4.915-4.937,12.158-4.937,18.03c0,2.459,0.98,5.189,1.936,7.782
			c1.093,2.732,2.03,5.45,3.533,7.499c2.258,3.322,5.148,5.21,6.562,5.563c0.007,0.002,0.022,0,0.031,0
			c0.029,0.007,0.065,0.026,0.093,0.031v-0.156c2.648-2.953,4.245-5.891,4.781-8.844c0.683-3.552,0.839-7.108,1.249-11.343
			c0.41-3.552,0.113-8.333-0.844-13.251c-1.364-6.145-3.669-12.412-4.625-16.781H-558.019z"/>
		
			<path id="path4989" inkscape:connector-curvature="0" fill="#FF4AF9" fill-opacity="0.9216" stroke="#FF4AF9" stroke-opacity="0.9216" d="
			M-557.614,122.448c0.137,7.099,0.683,20.347,2.593,25.539c0.547,1.773,5.601,9.56,9.15,18.981
			c2.459,6.557,3.005,12.566,3.415,14.341c1.639,7.784-0.41,20.896-3.142,33.323c-1.366,6.691-6.011,15.022-11.336,18.301
			l-1.09,1.912c3.003-0.137,10.377-7.374,12.973-16.388c4.371-15.295,6.145-22.399,4.098-39.334
			c-0.273-1.639-0.956-7.238-3.552-13.249c-3.823-9.15-9.287-17.888-9.968-19.667C-555.703,143.342-557.34,130.913-557.614,122.448z
			"/>
		
			<path id="path4991" inkscape:connector-curvature="0" fill="#FF4AF9" fill-opacity="0.9216" stroke="#FF4AF9" stroke-opacity="0.9216" d="
			M-555.052,112.735c-0.405,7.298-0.513,9.987,0.851,15.312c1.503,5.872,9.15,14.339,12.292,24.038
			c6.008,18.574,4.508,42.881,0.137,61.867c-1.639,6.689-9.424,16.388-17.208,19.528l5.735,1.366
			c3.142-0.139,11.197-7.65,14.339-16.254c5.052-13.519,6.011-29.634,3.962-46.569c-0.137-1.639-2.869-16.252-5.464-22.399
			c-3.688-9.148-10.243-17.344-10.926-19.118C-552.561,127.501-555.26,121.262-555.052,112.735z"/>
		
			<rect id="rect4993" x="-559.394" y="107.599" fill="#FF4AF9" fill-opacity="0.9216" stroke="#FF4AF9" stroke-opacity="0.9216" width="0.551" height="126.02"/>
	</g>
</g>
<rect id="rect5029" x="625.35" y="16.136" opacity="0.92" fill="#33FF00" fill-opacity="0.9216" stroke="#33FF00" stroke-miterlimit="10" enable-background="new    " width="38.046" height="12.367"/>
<rect id="rect5095" x="625.35" y="42.969" opacity="0.92" fill="#FF0000" fill-opacity="0.9216" enable-background="new    " width="38.046" height="12.367"/>
<g>
	<path d="M220.382,180.086V165.2h9.049v1.91h-6.992v4.787h6.341v1.932h-6.341v6.257H220.382z"/>
	<path d="M245.999,180.086v-11.59l-5.081,11.59h-1.89l-5.039-11.59v11.59h-2.037V165.2h2.792l5.249,12.114l5.291-12.114h2.75v14.886
		H245.999z"/>
	<path d="M258.348,164.885c3.737,0,7.475,2.771,7.475,7.747c0,4.977-3.737,7.77-7.475,7.77s-7.475-2.793-7.475-7.77
		C250.874,167.656,254.611,164.885,258.348,164.885z M258.348,178.511c2.771,0,5.375-1.994,5.375-5.879
		c0-3.884-2.604-5.857-5.375-5.857s-5.375,1.974-5.375,5.857C252.973,176.517,255.577,178.511,258.348,178.511z"/>
	<path d="M270.424,180.086h-1.974v-10.099h1.932v1.448c0.735-1.26,1.932-1.743,3.107-1.743c2.415,0,3.611,1.743,3.611,3.99v6.403
		h-1.974v-6.067c0-1.407-0.588-2.541-2.352-2.541c-1.554,0-2.352,1.238-2.352,2.771V180.086z"/>
	<path d="M289.05,177.21c-0.567,1.784-2.184,3.191-4.535,3.191c-2.708,0-5.081-1.975-5.081-5.396c0-3.17,2.289-5.333,4.829-5.333
		c3.107,0,4.85,2.142,4.85,5.291c0,0.252-0.021,0.504-0.042,0.63h-7.601c0.042,1.806,1.344,3.065,3.044,3.065
		c1.638,0,2.457-0.903,2.834-2.036L289.05,177.21z M287.055,173.997c-0.042-1.449-0.987-2.582-2.771-2.582
		c-1.659,0-2.667,1.28-2.75,2.582H287.055z"/>
	<path d="M294.433,168.748l2.913,4.345h-1.432l-2.19-3.39l-2.239,3.39h-1.407l2.961-4.345l-2.937-4.332h1.444l2.19,3.402
		l2.228-3.402h1.419L294.433,168.748z"/>
	<path d="M219.128,192.311v12.976h-2.058v-12.976h-4.976V190.4h12.01v1.911H219.128z"/>
	<path d="M233.492,200.226c0,3.087-2.142,5.375-5.165,5.375s-5.165-2.288-5.165-5.375c0-3.064,2.142-5.354,5.165-5.354
		S233.492,197.161,233.492,200.226z M231.476,200.226c0-2.33-1.47-3.59-3.149-3.59s-3.149,1.26-3.149,3.59
		c0,2.352,1.47,3.611,3.149,3.611S231.476,202.577,231.476,200.226z"/>
	<path d="M241.619,197.182c-0.294-0.042-0.588-0.063-0.861-0.063c-1.659,0-2.771,0.883-2.771,3.107v5.061h-1.974v-10.1h1.932v1.764
		c0.735-1.553,1.995-1.932,3.023-1.932c0.273,0,0.546,0.043,0.651,0.063V197.182z"/>
	<path d="M248.235,197.833c0-4.977,3.695-7.748,7.391-7.748c3.401,0,5.795,1.848,6.551,4.725l-1.911,0.672
		c-0.567-2.247-2.205-3.507-4.64-3.507c-2.708,0-5.291,1.974-5.291,5.858c0,3.884,2.583,5.879,5.291,5.879
		c2.541,0,4.136-1.533,4.745-3.57l1.827,0.672c-0.798,2.793-3.149,4.787-6.572,4.787
		C251.784,205.601,248.235,202.809,248.235,197.833z"/>
	<path d="M264.51,205.286v-15.201h1.974v15.201H264.51z"/>
	<path d="M270.81,189.939c0.798,0,1.428,0.629,1.428,1.428c0,0.776-0.63,1.406-1.428,1.406c-0.777,0-1.407-0.63-1.407-1.406
		C269.403,190.568,270.033,189.939,270.81,189.939z M269.844,205.286v-10.1h1.953v10.1H269.844z"/>
	<path d="M283.954,202.409c-0.567,1.785-2.184,3.191-4.535,3.191c-2.708,0-5.081-1.973-5.081-5.396c0-3.171,2.289-5.333,4.829-5.333
		c3.107,0,4.85,2.142,4.85,5.291c0,0.252-0.021,0.504-0.042,0.63h-7.601c0.042,1.806,1.344,3.065,3.044,3.065
		c1.638,0,2.457-0.902,2.834-2.037L283.954,202.409z M281.96,199.197c-0.042-1.448-0.987-2.583-2.771-2.583
		c-1.659,0-2.667,1.281-2.75,2.583H281.96z"/>
	<path d="M288.513,205.286h-1.974v-10.1h1.932v1.449c0.735-1.26,1.932-1.742,3.107-1.742c2.415,0,3.611,1.742,3.611,3.988v6.404
		h-1.974v-6.068c0-1.406-0.588-2.54-2.352-2.54c-1.554,0-2.352,1.239-2.352,2.771V205.286z"/>
	<path d="M300.986,195.187h2.184v1.785h-2.184v5.249c0,0.924,0.378,1.386,1.407,1.386c0.252,0,0.609-0.042,0.777-0.084v1.68
		c-0.168,0.063-0.672,0.189-1.344,0.189c-1.722,0-2.813-1.051-2.813-2.877v-5.543h-1.932v-1.785h0.546
		c1.092,0,1.554-0.672,1.554-1.553v-1.639h1.806V195.187z"/>
</g>
<g>
	<path d="M770.764,257.738v-14.886h9.05v1.91h-6.991v4.787h6.34v1.932h-6.34v6.257H770.764z"/>
	<path d="M796.381,257.738v-11.59l-5.08,11.59h-1.891l-5.039-11.59v11.59h-2.036v-14.886h2.792l5.25,12.114l5.291-12.114h2.75
		v14.886H796.381z"/>
	<path d="M808.731,242.537c3.738,0,7.475,2.771,7.475,7.747c0,4.977-3.736,7.77-7.475,7.77c-3.736,0-7.475-2.793-7.475-7.77
		C801.256,245.309,804.994,242.537,808.731,242.537z M808.731,256.163c2.771,0,5.375-1.994,5.375-5.879
		c0-3.884-2.604-5.857-5.375-5.857s-5.375,1.974-5.375,5.857C803.356,254.169,805.959,256.163,808.731,256.163z"/>
	<path d="M820.807,257.738h-1.974V247.64h1.932v1.448c0.735-1.26,1.932-1.743,3.107-1.743c2.415,0,3.611,1.743,3.611,3.99v6.403
		h-1.974v-6.067c0-1.407-0.588-2.541-2.352-2.541c-1.554,0-2.352,1.238-2.352,2.771V257.738z"/>
	<path d="M839.432,254.862c-0.566,1.784-2.184,3.191-4.535,3.191c-2.708,0-5.08-1.975-5.08-5.396c0-3.17,2.288-5.333,4.828-5.333
		c3.107,0,4.851,2.142,4.851,5.291c0,0.252-0.021,0.504-0.042,0.63h-7.601c0.042,1.806,1.344,3.065,3.044,3.065
		c1.639,0,2.457-0.903,2.835-2.036L839.432,254.862z M837.438,251.65c-0.042-1.449-0.986-2.582-2.771-2.582
		c-1.658,0-2.666,1.28-2.75,2.582H837.438z"/>
	<path d="M844.817,246.401l2.912,4.345h-1.432l-2.191-3.39l-2.238,3.39h-1.408l2.962-4.345l-2.937-4.332h1.443l2.19,3.402
		l2.228-3.402h1.42L844.817,246.401z"/>
	<path d="M756.209,282.939v-14.887h5.207c3.779,0,7.076,2.583,7.076,7.475c0,4.871-3.339,7.412-7.118,7.412H756.209z
		 M761.311,281.112c2.751,0,5.061-1.848,5.061-5.586c0-3.758-2.268-5.647-5.018-5.647h-3.087v11.233H761.311z"/>
	<path d="M779.916,280.062c-0.566,1.785-2.184,3.191-4.535,3.191c-2.709,0-5.081-1.973-5.081-5.396c0-3.171,2.288-5.333,4.829-5.333
		c3.107,0,4.85,2.142,4.85,5.291c0,0.252-0.021,0.504-0.041,0.63h-7.602c0.043,1.806,1.344,3.065,3.045,3.065
		c1.638,0,2.457-0.902,2.834-2.037L779.916,280.062z M777.922,276.85c-0.043-1.448-0.987-2.583-2.771-2.583
		c-1.659,0-2.667,1.281-2.751,2.583H777.922z"/>
	<path d="M783.34,279.685c0.127,1.049,0.924,1.889,2.352,1.889c1.113,0,1.723-0.629,1.723-1.344c0-0.629-0.463-1.112-1.303-1.301
		l-1.721-0.379c-1.575-0.336-2.52-1.406-2.52-2.834c0-1.722,1.616-3.191,3.59-3.191c2.771,0,3.633,1.806,3.842,2.709l-1.742,0.65
		c-0.084-0.525-0.504-1.68-2.1-1.68c-1.008,0-1.68,0.65-1.68,1.344c0,0.609,0.378,1.05,1.154,1.218l1.639,0.356
		c1.826,0.399,2.792,1.512,2.792,3.003c0,1.428-1.196,3.128-3.695,3.128c-2.771,0-3.947-1.784-4.115-2.939L783.34,279.685z"/>
	<path d="M794.638,272.839h2.184v1.785h-2.184v5.249c0,0.924,0.378,1.386,1.407,1.386c0.252,0,0.608-0.042,0.776-0.084v1.68
		c-0.168,0.063-0.672,0.189-1.344,0.189c-1.722,0-2.813-1.051-2.813-2.877v-5.543h-1.932v-1.785h0.546
		c1.092,0,1.554-0.672,1.554-1.553v-1.639h1.806V272.839z"/>
	<path d="M800.413,267.591c0.798,0,1.428,0.629,1.428,1.428c0,0.776-0.63,1.406-1.428,1.406c-0.776,0-1.407-0.63-1.407-1.406
		C799.006,268.22,799.637,267.591,800.413,267.591z M799.448,282.939v-10.1h1.953v10.1H799.448z"/>
	<path d="M806.735,282.939h-1.975v-10.1h1.932v1.449c0.735-1.26,1.932-1.742,3.107-1.742c2.415,0,3.611,1.742,3.611,3.988v6.404
		h-1.973v-6.068c0-1.406-0.588-2.54-2.352-2.54c-1.555,0-2.352,1.239-2.352,2.771V282.939z"/>
	<path d="M818.998,277.165l2.729-0.399c0.609-0.084,0.777-0.399,0.777-0.756c0-0.987-0.65-1.806-2.184-1.806
		c-1.386,0-2.162,0.861-2.289,2.037l-1.889-0.441c0.209-1.932,1.952-3.275,4.136-3.275c3.023,0,4.199,1.722,4.199,3.695v5.061
		c0,0.881,0.084,1.406,0.126,1.658h-1.932c-0.042-0.252-0.105-0.63-0.105-1.365c-0.44,0.715-1.448,1.68-3.254,1.68
		c-2.058,0-3.381-1.428-3.381-3.023C815.932,278.425,817.255,277.417,818.998,277.165z M822.504,278.613v-0.462l-3.086,0.462
		c-0.84,0.126-1.471,0.608-1.471,1.512c0,0.756,0.631,1.47,1.639,1.47C821.202,281.595,822.504,280.818,822.504,278.613z"/>
	<path d="M830.191,272.839h2.184v1.785h-2.184v5.249c0,0.924,0.378,1.386,1.407,1.386c0.252,0,0.608-0.042,0.776-0.084v1.68
		c-0.168,0.063-0.672,0.189-1.344,0.189c-1.722,0-2.813-1.051-2.813-2.877v-5.543h-1.932v-1.785h0.546
		c1.092,0,1.554-0.672,1.554-1.553v-1.639h1.806V272.839z"/>
	<path d="M835.966,267.591c0.798,0,1.428,0.629,1.428,1.428c0,0.776-0.63,1.406-1.428,1.406c-0.776,0-1.407-0.63-1.407-1.406
		C834.559,268.22,835.19,267.591,835.966,267.591z M835,282.939v-10.1h1.953v10.1H835z"/>
	<path d="M849.803,277.878c0,3.087-2.141,5.375-5.164,5.375s-5.166-2.288-5.166-5.375c0-3.064,2.143-5.354,5.166-5.354
		S849.803,274.814,849.803,277.878z M847.787,277.878c0-2.33-1.469-3.59-3.148-3.59s-3.15,1.26-3.15,3.59
		c0,2.352,1.471,3.611,3.15,3.611S847.787,280.23,847.787,277.878z"/>
	<path d="M854.299,282.939h-1.975v-10.1h1.932v1.449c0.735-1.26,1.932-1.742,3.107-1.742c2.415,0,3.611,1.742,3.611,3.988v6.404
		h-1.973v-6.068c0-1.406-0.588-2.54-2.352-2.54c-1.555,0-2.352,1.239-2.352,2.771V282.939z"/>
</g>
<g>
	<path d="M321.623,377.359v-11.59l-5.081,11.59h-1.89l-5.039-11.59v11.59h-2.037v-14.886h2.792l5.249,12.114l5.291-12.114h2.75
		v14.886H321.623z"/>
	<path d="M328.199,362.01c0.798,0,1.428,0.631,1.428,1.428c0,0.777-0.63,1.407-1.428,1.407c-0.777,0-1.407-0.63-1.407-1.407
		C326.792,362.641,327.422,362.01,328.199,362.01z M327.233,377.359V367.26h1.953v10.099H327.233z"/>
	<path d="M339.622,375.826c-0.483,0.965-1.554,1.805-3.128,1.805c-2.96,0-4.787-2.352-4.787-5.354c0-2.855,1.932-5.291,4.787-5.291
		c1.785,0,2.75,0.882,3.086,1.701v-6.53h1.953v13.333c0,0.965,0.084,1.7,0.105,1.868h-1.911c-0.042-0.231-0.105-0.756-0.105-1.364
		V375.826z M336.682,375.889c1.806,0,2.918-1.574,2.918-3.653s-1.092-3.507-2.897-3.507s-2.981,1.471-2.981,3.549
		S334.793,375.889,336.682,375.889z"/>
	<path d="M351.97,375.826c-0.483,0.965-1.554,1.805-3.128,1.805c-2.96,0-4.787-2.352-4.787-5.354c0-2.855,1.932-5.291,4.787-5.291
		c1.785,0,2.75,0.882,3.086,1.701v-6.53h1.953v13.333c0,0.965,0.084,1.7,0.105,1.868h-1.911c-0.042-0.231-0.105-0.756-0.105-1.364
		V375.826z M349.031,375.889c1.806,0,2.918-1.574,2.918-3.653s-1.092-3.507-2.897-3.507s-2.981,1.471-2.981,3.549
		S347.141,375.889,349.031,375.889z"/>
	<path d="M357.242,377.359v-15.201h1.974v15.201H357.242z"/>
	<path d="M371.374,374.483c-0.567,1.784-2.184,3.191-4.535,3.191c-2.708,0-5.081-1.975-5.081-5.396c0-3.17,2.289-5.333,4.829-5.333
		c3.107,0,4.85,2.142,4.85,5.291c0,0.252-0.021,0.504-0.042,0.63h-7.601c0.042,1.806,1.344,3.065,3.044,3.065
		c1.638,0,2.457-0.903,2.834-2.036L371.374,374.483z M369.379,371.27c-0.042-1.449-0.987-2.582-2.771-2.582
		c-1.659,0-2.667,1.28-2.75,2.582H369.379z"/>
	<path d="M383.722,371.27h-2.226v6.089h-2.079v-14.886h5.606c2.813,0,4.556,1.973,4.556,4.43c0,2.142-1.365,3.801-3.611,4.221
		l3.548,6.235h-2.394L383.722,371.27z M384.646,369.422c1.68,0,2.813-0.986,2.813-2.52c0-1.574-1.134-2.582-2.813-2.582h-3.149
		v5.102H384.646z"/>
	<path d="M400.584,374.483c-0.567,1.784-2.184,3.191-4.535,3.191c-2.708,0-5.081-1.975-5.081-5.396c0-3.17,2.289-5.333,4.829-5.333
		c3.107,0,4.85,2.142,4.85,5.291c0,0.252-0.021,0.504-0.042,0.63h-7.601c0.042,1.806,1.344,3.065,3.044,3.065
		c1.638,0,2.457-0.903,2.834-2.036L400.584,374.483z M398.59,371.27c-0.042-1.449-0.987-2.582-2.771-2.582
		c-1.659,0-2.667,1.28-2.75,2.582H398.59z"/>
	<path d="M403.169,377.359v-15.201h1.974v15.201H403.169z"/>
	<path d="M410.938,371.584l2.729-0.398c0.609-0.084,0.777-0.398,0.777-0.756c0-0.986-0.651-1.806-2.184-1.806
		c-1.386,0-2.163,0.86-2.289,2.036l-1.89-0.44c0.21-1.932,1.953-3.275,4.136-3.275c3.023,0,4.199,1.722,4.199,3.695v5.06
		c0,0.883,0.084,1.407,0.126,1.659h-1.932c-0.042-0.252-0.105-0.63-0.105-1.364c-0.441,0.713-1.449,1.68-3.254,1.68
		c-2.058,0-3.38-1.428-3.38-3.023C407.873,372.844,409.196,371.836,410.938,371.584z M414.445,373.033v-0.462l-3.086,0.462
		c-0.84,0.126-1.47,0.609-1.47,1.512c0,0.756,0.63,1.47,1.638,1.47C413.143,376.015,414.445,375.238,414.445,373.033z"/>
	<path d="M419.633,381.578l2.52-5.332l-4.346-8.986h2.268l3.149,6.971l3.023-6.971h2.121l-6.572,14.318H419.633z"/>
</g>
<g>
	<path d="M568.076,390.53v-14.886h9.049v1.91h-6.991v4.577h6.341v1.932h-6.341v4.556h6.991v1.911H568.076z"/>
	<path d="M582.356,385.387l-3.633-4.955h2.395l2.477,3.548l2.436-3.548h2.331l-3.591,4.955c0.609,0.818,3.107,4.324,3.717,5.144
		h-2.373l-2.604-3.716l-2.561,3.716h-2.352L582.356,385.387z"/>
	<path d="M591.344,375.182c0.798,0,1.428,0.631,1.428,1.428c0,0.777-0.63,1.407-1.428,1.407c-0.777,0-1.406-0.63-1.406-1.407
		C589.938,375.813,590.567,375.182,591.344,375.182z M590.378,390.53v-10.099h1.952v10.099H590.378z"/>
	<path d="M598.336,380.432h2.184v1.784h-2.184v5.249c0,0.924,0.379,1.386,1.407,1.386c0.252,0,0.608-0.042,0.776-0.084v1.68
		c-0.168,0.063-0.672,0.188-1.344,0.188c-1.721,0-2.813-1.049-2.813-2.876v-5.543h-1.932v-1.784h0.545
		c1.092,0,1.555-0.672,1.555-1.555v-1.637h1.805V380.432z"/>
	<path d="M612.91,384.442h-2.226v6.089h-2.079v-14.886h5.606c2.813,0,4.556,1.973,4.556,4.43c0,2.142-1.364,3.801-3.611,4.221
		l3.549,6.235h-2.394L612.91,384.442z M613.834,382.594c1.68,0,2.813-0.986,2.813-2.52c0-1.574-1.134-2.582-2.813-2.582h-3.149
		v5.102H613.834z"/>
	<path d="M629.772,387.654c-0.566,1.784-2.184,3.191-4.535,3.191c-2.708,0-5.08-1.975-5.08-5.396c0-3.17,2.288-5.333,4.828-5.333
		c3.107,0,4.851,2.142,4.851,5.291c0,0.252-0.021,0.504-0.042,0.63h-7.601c0.042,1.806,1.344,3.065,3.044,3.065
		c1.639,0,2.457-0.903,2.835-2.036L629.772,387.654z M627.778,384.442c-0.042-1.449-0.986-2.582-2.771-2.582
		c-1.658,0-2.666,1.28-2.75,2.582H627.778z"/>
	<path d="M632.357,390.53v-15.201h1.974v15.201H632.357z"/>
	<path d="M640.126,384.756l2.729-0.398c0.609-0.084,0.777-0.398,0.777-0.756c0-0.986-0.651-1.806-2.184-1.806
		c-1.387,0-2.163,0.86-2.289,2.036l-1.89-0.44c0.21-1.932,1.952-3.275,4.136-3.275c3.023,0,4.199,1.722,4.199,3.695v5.06
		c0,0.883,0.084,1.407,0.127,1.659h-1.932c-0.043-0.252-0.105-0.63-0.105-1.364c-0.441,0.713-1.449,1.68-3.254,1.68
		c-2.059,0-3.381-1.428-3.381-3.023C637.061,386.016,638.383,385.008,640.126,384.756z M643.633,386.205v-0.462l-3.087,0.462
		c-0.84,0.126-1.47,0.609-1.47,1.512c0,0.756,0.63,1.47,1.638,1.47C642.33,389.187,643.633,388.41,643.633,386.205z"/>
	<path d="M648.821,394.75l2.52-5.332l-4.346-8.986h2.268l3.148,6.971l3.023-6.971h2.121l-6.572,14.318H648.821z"/>
</g>
<g>
	<path d="M459.407,23.187V8.301h9.049v1.91h-6.991v4.577h6.341v1.932h-6.341v4.556h6.991v1.911H459.407z"/>
	<path d="M473.056,23.187h-1.974V13.088h1.932v1.448c0.734-1.26,1.932-1.743,3.107-1.743c2.414,0,3.611,1.743,3.611,3.99v6.403
		h-1.974v-6.067c0-1.407-0.588-2.541-2.352-2.541c-1.554,0-2.352,1.238-2.352,2.771V23.187z"/>
	<path d="M485.53,13.088h2.184v1.784h-2.184v5.249c0,0.924,0.378,1.386,1.406,1.386c0.252,0,0.609-0.042,0.777-0.084v1.68
		c-0.168,0.063-0.672,0.188-1.344,0.188c-1.722,0-2.813-1.049-2.813-2.876v-5.543h-1.932v-1.784h0.546
		c1.092,0,1.554-0.672,1.554-1.555V9.897h1.806V13.088z"/>
	<path d="M495.735,15.082c-0.293-0.042-0.588-0.063-0.86-0.063c-1.659,0-2.771,0.881-2.771,3.107v5.06h-1.974V13.088h1.932v1.764
		c0.734-1.555,1.994-1.932,3.023-1.932c0.273,0,0.546,0.041,0.65,0.063V15.082z"/>
	<path d="M498.508,27.406l2.52-5.332l-4.347-8.986h2.268l3.149,6.971l3.023-6.971h2.121l-6.572,14.318H498.508z"/>
	<path d="M525.826,23.187l-0.189-2.1c-0.65,1.176-2.268,2.415-4.766,2.415c-3.737,0-7.223-2.73-7.223-7.77s3.695-7.747,7.369-7.747
		c3.234,0,5.732,1.806,6.594,4.493l-1.869,0.798c-0.672-2.142-2.414-3.401-4.725-3.401c-2.666,0-5.27,1.91-5.27,5.857
		s2.52,5.9,5.186,5.9c3.318,0,4.515-2.352,4.599-3.885h-5.165v-1.848h7.117v7.286H525.826z"/>
	<path d="M534.018,23.502c-2.352,0-3.779-1.764-3.779-4.053v-6.361h1.975v6.067c0,1.386,0.629,2.604,2.288,2.604
		c1.596,0,2.394-1.05,2.394-2.583v-6.088h1.974v8.23c0,0.797,0.063,1.512,0.104,1.868h-1.889c-0.043-0.231-0.084-0.798-0.084-1.218
		C536.453,23.019,535.194,23.502,534.018,23.502z"/>
	<path d="M544.665,17.412l2.729-0.398c0.609-0.084,0.777-0.398,0.777-0.756c0-0.986-0.651-1.806-2.184-1.806
		c-1.387,0-2.163,0.86-2.289,2.036l-1.89-0.44c0.21-1.932,1.952-3.275,4.136-3.275c3.023,0,4.199,1.722,4.199,3.695v5.06
		c0,0.883,0.084,1.407,0.127,1.659h-1.932c-0.043-0.252-0.105-0.63-0.105-1.364c-0.441,0.713-1.449,1.68-3.254,1.68
		c-2.059,0-3.381-1.428-3.381-3.023C541.6,18.672,542.922,17.664,544.665,17.412z M548.172,18.861V18.4l-3.087,0.462
		c-0.84,0.126-1.47,0.609-1.47,1.512c0,0.756,0.63,1.47,1.638,1.47C546.869,21.843,548.172,21.067,548.172,18.861z"/>
	<path d="M558.819,15.082c-0.294-0.042-0.588-0.063-0.861-0.063c-1.658,0-2.771,0.881-2.771,3.107v5.06h-1.973V13.088h1.932v1.764
		c0.734-1.555,1.994-1.932,3.023-1.932c0.272,0,0.545,0.041,0.65,0.063V15.082z"/>
	<path d="M567.89,21.654c-0.483,0.965-1.554,1.805-3.128,1.805c-2.961,0-4.787-2.352-4.787-5.354c0-2.855,1.932-5.291,4.787-5.291
		c1.784,0,2.75,0.882,3.086,1.701v-6.53h1.953v13.333c0,0.965,0.084,1.7,0.104,1.868h-1.911c-0.041-0.231-0.104-0.756-0.104-1.364
		V21.654z M564.951,21.717c1.806,0,2.919-1.574,2.919-3.653s-1.092-3.507-2.898-3.507c-1.805,0-2.98,1.471-2.98,3.549
		S563.061,21.717,564.951,21.717z"/>
</g>
<g>
	<path d="M472.912,185.826v12.976h-2.057v-12.976h-4.977v-1.91h12.01v1.91H472.912z"/>
	<path d="M487.277,193.742c0,3.086-2.142,5.375-5.165,5.375s-5.165-2.289-5.165-5.375c0-3.066,2.142-5.354,5.165-5.354
		S487.277,190.676,487.277,193.742z M485.261,193.742c0-2.331-1.47-3.591-3.149-3.591s-3.149,1.26-3.149,3.591
		c0,2.352,1.47,3.611,3.149,3.611S485.261,196.094,485.261,193.742z"/>
	<path d="M495.405,190.697c-0.295-0.042-0.588-0.063-0.861-0.063c-1.658,0-2.771,0.881-2.771,3.107v5.06h-1.974v-10.099h1.932v1.764
		c0.735-1.555,1.995-1.932,3.023-1.932c0.272,0,0.546,0.041,0.651,0.063V190.697z"/>
	<path d="M513.064,198.802l-8.042-12.136v12.136h-2.057v-14.886h2.75l7.433,11.422v-11.422h2.058v14.886H513.064z"/>
	<path d="M527.575,195.926c-0.566,1.784-2.184,3.191-4.535,3.191c-2.709,0-5.081-1.975-5.081-5.396c0-3.17,2.288-5.333,4.829-5.333
		c3.107,0,4.85,2.142,4.85,5.291c0,0.252-0.021,0.504-0.041,0.63h-7.602c0.043,1.806,1.344,3.065,3.045,3.065
		c1.638,0,2.457-0.903,2.834-2.036L527.575,195.926z M525.58,192.713c-0.043-1.449-0.987-2.582-2.771-2.582
		c-1.659,0-2.667,1.28-2.751,2.582H525.58z"/>
	<path d="M532.805,188.703h2.184v1.784h-2.184v5.249c0,0.924,0.377,1.386,1.406,1.386c0.252,0,0.609-0.042,0.777-0.084v1.68
		c-0.168,0.063-0.672,0.188-1.344,0.188c-1.723,0-2.814-1.049-2.814-2.876v-5.543h-1.932v-1.784h0.547
		c1.092,0,1.553-0.672,1.553-1.555v-1.637h1.807V188.703z"/>
	<path d="M545.551,188.703l2.624,7.6l2.226-7.6h2.078l-3.275,10.099h-2.036l-2.688-7.685l-2.624,7.685h-2.079l-3.317-10.099h2.162
		l2.268,7.6l2.625-7.6H545.551z"/>
	<path d="M563.757,193.742c0,3.086-2.142,5.375-5.165,5.375s-5.165-2.289-5.165-5.375c0-3.066,2.142-5.354,5.165-5.354
		S563.757,190.676,563.757,193.742z M561.742,193.742c0-2.331-1.47-3.591-3.149-3.591s-3.149,1.26-3.149,3.591
		c0,2.352,1.47,3.611,3.149,3.611S561.742,196.094,561.742,193.742z"/>
	<path d="M571.885,190.697c-0.295-0.042-0.588-0.063-0.861-0.063c-1.658,0-2.771,0.881-2.771,3.107v5.06h-1.974v-10.099h1.932v1.764
		c0.735-1.555,1.995-1.932,3.023-1.932c0.272,0,0.546,0.041,0.651,0.063V190.697z"/>
	<path d="M578.731,192.965l4.388,5.837h-2.478l-3.297-4.451l-1.406,1.407v3.044h-1.953v-15.201h1.953v9.574l4.367-4.472h2.729
		L578.731,192.965z"/>
</g>
<g>
	<path d="M675.941,29.187V14.301h9.05v1.91h-6.992v4.577h6.341v1.932h-6.341v4.556h6.992v1.911H675.941z"/>
	<path d="M689.59,29.187h-1.974V19.088h1.932v1.448c0.735-1.26,1.932-1.743,3.107-1.743c2.415,0,3.611,1.743,3.611,3.99v6.403
		h-1.974v-6.067c0-1.407-0.588-2.541-2.352-2.541c-1.554,0-2.352,1.238-2.352,2.771V29.187z"/>
	<path d="M700.594,24.127c0,2.309,1.449,3.548,3.086,3.548c1.891,0,2.583-1.28,2.814-2.079l1.742,0.756
		c-0.482,1.449-1.932,3.15-4.557,3.15c-2.939,0-5.102-2.311-5.102-5.375c0-3.15,2.205-5.354,5.081-5.354
		c2.688,0,4.073,1.68,4.493,3.212l-1.785,0.756c-0.252-0.986-0.986-2.141-2.708-2.141C702.064,20.6,700.594,21.776,700.594,24.127z"
		/>
	<path d="M716.155,21.082c-0.295-0.042-0.588-0.063-0.861-0.063c-1.658,0-2.771,0.881-2.771,3.107v5.06h-1.974V19.088h1.932v1.764
		c0.735-1.555,1.995-1.932,3.023-1.932c0.272,0,0.546,0.041,0.651,0.063V21.082z"/>
	<path d="M718.926,33.406l2.52-5.332l-4.346-8.986h2.268l3.149,6.971l3.023-6.971h2.12l-6.571,14.318H718.926z"/>
	<path d="M729.553,33.176V19.088h1.91v1.574c0.546-1.008,1.742-1.806,3.381-1.806c3.023,0,4.64,2.331,4.64,5.271
		c0,3.002-1.743,5.332-4.703,5.332c-1.554,0-2.729-0.734-3.275-1.637v5.354H729.553z M734.487,20.6
		c-1.806,0-3.002,1.512-3.002,3.527c0,2.078,1.196,3.568,3.002,3.568c1.826,0,2.981-1.49,2.981-3.568
		C737.468,22.111,736.334,20.6,734.487,20.6z"/>
	<path d="M744.545,19.088h2.184v1.784h-2.184v5.249c0,0.924,0.379,1.386,1.407,1.386c0.252,0,0.608-0.042,0.776-0.084v1.68
		c-0.168,0.063-0.672,0.188-1.344,0.188c-1.721,0-2.813-1.049-2.813-2.876v-5.543h-1.932v-1.784h0.545
		c1.092,0,1.555-0.672,1.555-1.555v-1.637h1.805V19.088z"/>
	<path d="M758.048,26.311c-0.567,1.784-2.184,3.191-4.535,3.191c-2.708,0-5.081-1.975-5.081-5.396c0-3.17,2.289-5.333,4.829-5.333
		c3.107,0,4.851,2.142,4.851,5.291c0,0.252-0.021,0.504-0.043,0.63h-7.6c0.041,1.806,1.344,3.065,3.044,3.065
		c1.638,0,2.456-0.903,2.835-2.036L758.048,26.311z M756.053,23.098c-0.041-1.449-0.986-2.582-2.771-2.582
		c-1.658,0-2.666,1.28-2.75,2.582H756.053z"/>
	<path d="M767.708,27.654c-0.483,0.965-1.554,1.805-3.128,1.805c-2.961,0-4.787-2.352-4.787-5.354c0-2.855,1.932-5.291,4.787-5.291
		c1.784,0,2.75,0.882,3.086,1.701v-6.53h1.953v13.333c0,0.965,0.084,1.7,0.104,1.868h-1.911c-0.041-0.231-0.104-0.756-0.104-1.364
		V27.654z M764.769,27.717c1.806,0,2.919-1.574,2.919-3.653s-1.092-3.507-2.898-3.507c-1.805,0-2.98,1.471-2.98,3.549
		S762.879,27.717,764.769,27.717z"/>
	<path d="M778.231,29.187V13.985h1.953v6.53c0.482-0.903,1.658-1.723,3.338-1.723c3.065,0,4.641,2.352,4.641,5.291
		c0,3.003-1.701,5.375-4.703,5.375c-1.491,0-2.646-0.65-3.275-1.742v1.47H778.231z M783.164,20.536
		c-1.742,0-3.002,1.364-3.002,3.548s1.26,3.611,3.002,3.611c1.807,0,2.982-1.428,2.982-3.611S784.992,20.536,783.164,20.536z"/>
	<path d="M790.62,33.406l2.52-5.332l-4.347-8.986h2.268l3.15,6.971l3.023-6.971h2.12l-6.571,14.318H790.62z"/>
	<path d="M812.061,16.211v12.976h-2.059V16.211h-4.976v-1.91h12.01v1.91H812.061z"/>
	<path d="M826.424,24.127c0,3.086-2.142,5.375-5.165,5.375s-5.165-2.289-5.165-5.375c0-3.066,2.142-5.354,5.165-5.354
		S826.424,21.061,826.424,24.127z M824.409,24.127c0-2.331-1.47-3.591-3.149-3.591s-3.149,1.26-3.149,3.591
		c0,2.352,1.47,3.611,3.149,3.611S824.409,26.479,824.409,24.127z"/>
	<path d="M834.551,21.082c-0.293-0.042-0.588-0.063-0.86-0.063c-1.659,0-2.771,0.881-2.771,3.107v5.06h-1.974V19.088h1.932v1.764
		c0.734-1.555,1.994-1.932,3.023-1.932c0.273,0,0.546,0.041,0.65,0.063V21.082z"/>
</g>
<g>
	<path d="M686.039,56.83l-8.041-12.136V56.83h-2.058V41.944h2.751l7.432,11.422V41.944h2.059V56.83H686.039z"/>
	<path d="M701.243,51.771c0,3.086-2.142,5.375-5.165,5.375s-5.165-2.289-5.165-5.375c0-3.066,2.142-5.354,5.165-5.354
		S701.243,48.704,701.243,51.771z M699.228,51.771c0-2.331-1.47-3.591-3.149-3.591s-3.149,1.26-3.149,3.591
		c0,2.352,1.47,3.611,3.149,3.611S699.228,54.122,699.228,51.771z"/>
	<path d="M706.305,46.732h2.184v1.784h-2.184v5.249c0,0.924,0.379,1.386,1.407,1.386c0.252,0,0.608-0.042,0.776-0.084v1.68
		c-0.168,0.063-0.672,0.188-1.344,0.188c-1.721,0-2.813-1.049-2.813-2.876v-5.543h-1.932v-1.784h0.545
		c1.092,0,1.555-0.672,1.555-1.555V43.54h1.805V46.732z"/>
	<path d="M725.162,53.954c-0.566,1.784-2.184,3.191-4.535,3.191c-2.709,0-5.081-1.975-5.081-5.396c0-3.17,2.288-5.333,4.829-5.333
		c3.107,0,4.85,2.142,4.85,5.291c0,0.252-0.021,0.504-0.041,0.63h-7.602c0.043,1.806,1.344,3.065,3.045,3.065
		c1.638,0,2.457-0.903,2.834-2.036L725.162,53.954z M723.168,50.741c-0.043-1.449-0.987-2.582-2.771-2.582
		c-1.659,0-2.667,1.28-2.751,2.582H723.168z"/>
	<path d="M729.721,56.83h-1.975V46.732h1.932v1.448c0.735-1.26,1.932-1.743,3.107-1.743c2.415,0,3.611,1.743,3.611,3.99v6.403
		h-1.973v-6.067c0-1.407-0.588-2.541-2.352-2.541c-1.555,0-2.352,1.238-2.352,2.771V56.83z"/>
	<path d="M740.725,51.771c0,2.309,1.448,3.548,3.086,3.548c1.89,0,2.582-1.28,2.813-2.079l1.743,0.756
		c-0.483,1.449-1.932,3.15-4.557,3.15c-2.939,0-5.102-2.311-5.102-5.375c0-3.15,2.204-5.354,5.08-5.354
		c2.688,0,4.074,1.68,4.494,3.212l-1.785,0.756c-0.252-0.986-0.986-2.141-2.709-2.141C742.194,48.243,740.725,49.419,740.725,51.771
		z"/>
	<path d="M756.284,48.726c-0.294-0.042-0.588-0.063-0.86-0.063c-1.659,0-2.771,0.881-2.771,3.107v5.06h-1.975V46.732h1.932v1.764
		c0.735-1.555,1.995-1.932,3.023-1.932c0.273,0,0.547,0.041,0.651,0.063V48.726z"/>
	<path d="M759.057,61.05l2.52-5.332l-4.346-8.986h2.268l3.148,6.971l3.023-6.971h2.121l-6.572,14.318H759.057z"/>
	<path d="M769.684,60.819V46.732h1.91v1.574c0.546-1.008,1.742-1.806,3.381-1.806c3.023,0,4.64,2.331,4.64,5.271
		c0,3.002-1.743,5.332-4.703,5.332c-1.554,0-2.729-0.734-3.275-1.637v5.354H769.684z M774.617,48.243
		c-1.806,0-3.002,1.512-3.002,3.527c0,2.078,1.196,3.568,3.002,3.568c1.826,0,2.981-1.49,2.981-3.568
		C777.599,49.755,776.465,48.243,774.617,48.243z"/>
	<path d="M784.676,46.732h2.184v1.784h-2.184v5.249c0,0.924,0.379,1.386,1.407,1.386c0.252,0,0.608-0.042,0.776-0.084v1.68
		c-0.168,0.063-0.672,0.188-1.344,0.188c-1.721,0-2.813-1.049-2.813-2.876v-5.543h-1.932v-1.784h0.545
		c1.092,0,1.555-0.672,1.555-1.555V43.54h1.805V46.732z"/>
	<path d="M798.178,53.954c-0.566,1.784-2.184,3.191-4.535,3.191c-2.708,0-5.08-1.975-5.08-5.396c0-3.17,2.288-5.333,4.828-5.333
		c3.107,0,4.851,2.142,4.851,5.291c0,0.252-0.021,0.504-0.042,0.63h-7.601c0.042,1.806,1.344,3.065,3.044,3.065
		c1.639,0,2.457-0.903,2.835-2.036L798.178,53.954z M796.184,50.741c-0.042-1.449-0.986-2.582-2.771-2.582
		c-1.658,0-2.666,1.28-2.75,2.582H796.184z"/>
	<path d="M807.838,55.298c-0.482,0.965-1.553,1.805-3.128,1.805c-2.96,0-4.787-2.352-4.787-5.354c0-2.855,1.932-5.291,4.787-5.291
		c1.784,0,2.751,0.882,3.087,1.701v-6.53h1.952v13.333c0,0.965,0.084,1.7,0.104,1.868h-1.91c-0.042-0.231-0.105-0.756-0.105-1.364
		V55.298z M804.899,55.36c1.807,0,2.919-1.574,2.919-3.653s-1.092-3.507-2.897-3.507s-2.981,1.471-2.981,3.549
		S803.01,55.36,804.899,55.36z"/>
	<path d="M818.362,56.83V41.629h1.952v6.53c0.483-0.903,1.659-1.723,3.339-1.723c3.064,0,4.64,2.352,4.64,5.291
		c0,3.003-1.7,5.375-4.703,5.375c-1.491,0-2.646-0.65-3.275-1.742v1.47H818.362z M823.295,48.18c-1.742,0-3.002,1.364-3.002,3.548
		s1.26,3.611,3.002,3.611c1.806,0,2.981-1.428,2.981-3.611S825.121,48.18,823.295,48.18z"/>
	<path d="M830.751,61.05l2.52-5.332l-4.347-8.986h2.268l3.15,6.971l3.023-6.971h2.12l-6.571,14.318H830.751z"/>
	<path d="M852.192,43.855V56.83h-2.059V43.855h-4.976v-1.91h12.01v1.91H852.192z"/>
	<path d="M866.555,51.771c0,3.086-2.143,5.375-5.166,5.375s-5.164-2.289-5.164-5.375c0-3.066,2.141-5.354,5.164-5.354
		S866.555,48.704,866.555,51.771z M864.539,51.771c0-2.331-1.471-3.591-3.15-3.591s-3.148,1.26-3.148,3.591
		c0,2.352,1.469,3.611,3.148,3.611S864.539,54.122,864.539,51.771z"/>
	<path d="M874.682,48.726c-0.294-0.042-0.588-0.063-0.861-0.063c-1.658,0-2.771,0.881-2.771,3.107v5.06h-1.973V46.732h1.932v1.764
		c0.734-1.555,1.994-1.932,3.023-1.932c0.272,0,0.545,0.041,0.65,0.063V48.726z"/>
</g>
</svg>
